<ttFont>
          <CharString index="0">
            hhcurveto
            -48 -40 -105 callsubr
            78 -25 rlineto
            -9 30 -7 36 35 vvcurveto
            return
          </CharString>
          <CharString index="1">
            hlineto
            50 -107 callgsubr
            return
          </CharString>
          <CharString index="2">
            -23 -32 -25 -86 callsubr
            90 -77 hvcurveto
            -103 callsubr
            return
          </CharString>
          <CharString index="3">
            -95 callsubr
            186 52 callgsubr
            26 callsubr
            55 -20 48 hhcurveto
            return
          </CharString>
          <CharString index="4">
            45 32 rlineto
            -104 callgsubr
            return
          </CharString>
          <CharString index="5">
            rmoveto
            79 248 9 42 92 -290 rlineto
            -22 379 rmoveto
            -29 -1 -40 -3 -23 -7 -176 -529 rcurveline
            -11 -31 -18 -20 -45 -8 rrcurveto
            194 callsubr
            -13 vvcurveto
            196 hlineto
            2 12 2 12 13 vvcurveto
            -29 1 -25 2 -22 12 50 159 rcurveline
            208 hlineto
            48 -151 -20 -12 -26 -6 -26 -5 rlinecurve
            -3 -12 -1 -12 -13 vvcurveto
            242 hlineto
            3 12 1 12 1 13 -46 3 -21 13 -13 42 rrcurveto
            endchar
          </CharString>
          <CharString index="6">
            2 -265 rlineto
            -78 -55 -68 -49 -53 hhcurveto
            -69 -36 50 55 65 48 69 77 45 28 -23 -21 19 hvcurveto
            return
          </CharString>
          <CharString index="7">
            rmoveto
            63 callgsubr
            23 -9 rrcurveto
            -372 vlineto
            -115 -57 -46 -82 -83 -58 45 116 vhcurveto
            335 vlineto
            35 21 10 42 5 vhcurveto
            3 -21 callsubr
            23 -3 24 -10 rrcurveto
            -367 vlineto
            -156 102 -61 136 136 101 61 156 vhcurveto
            331 vlineto
            35 20 10 43 67 callsubr
            endchar
          </CharString>
          <CharString index="8">
            -71 callgsubr
            66 25 60 79 92 callgsubr
            -334 vlineto
            3 callsubr
          </CharString>
          <CharString index="9">
            hhcurveto
            28 33 11 22 27 hvcurveto
            -5 -201 90 -57 185 callgsubr
            61 32 53 27 52 hhcurveto
            61 43 -54 -60 -68 -46 -34 -61 -17 -19 2 8 -25 hvcurveto
            29 -84 rlineto
            -4 21 19 -2 19 hhcurveto
            91 64 53 100 101 -117 121 -91 51 callsubr
            endchar
          </CharString>
          <CharString index="10">
            -8 callgsubr
            -229 25 callsubr
            99 callgsubr
            -484 vlineto
            -36 -21 -9 -42 -73 callgsubr
            229 149 callsubr
            -23 3 -24 10 rrcurveto
            return
          </CharString>
          <CharString index="11">
            -81 callsubr
            endchar
          </CharString>
          <CharString index="12">
            hlineto
            -70 callsubr
            return
          </CharString>
          <CharString index="13">
            -76 -59 -58 -74 -113 98 -60 105 -5 hvcurveto
            -43 -35 -50 -27 -70 hhcurveto
            -97 -87 74 65 -42 hvcurveto
            69 9 30 44 55 vvcurveto
            return
          </CharString>
          <CharString index="14">
            hlineto
            51 -72 rlineto
            132 -210 hlineto
            -73 callsubr
            return
          </CharString>
          <CharString index="15">
            hlineto
            -89 callgsubr
            return
          </CharString>
          <CharString index="16">
            -69 callsubr
            226 hlineto
            -19 callgsubr
            -20 3 -22 9 rrcurveto
            return
          </CharString>
          <CharString index="17">
            -101 callsubr
            25 41 rlineto
            -7 callgsubr
            return
          </CharString>
          <CharString index="18">
            56 callgsubr
            43 29 -22 -22 20 hvcurveto
            30 41 rlineto
            30 -28 -50 44 -74 hhcurveto
            -79 -91 -67 -106 92 callsubr
            105 return
          </CharString>
          <CharString index="19">
            rmoveto
            101 -62 51 -79 -68 -55 -37 -63 -32 vhcurveto
            -1 32 -3 31 -5 31 -54 -6 -48 -13 -48 -18 -3 -10 -2 -14 -1 -11 25 1 23 0 21 -2 -78 callgsubr
            252 vlineto
            64 25 37 callsubr
            -16 -10 -43 91 callsubr
            223 152 callgsubr
            -24 1 -17 212 callsubr
          </CharString>
          <CharString index="20">
            hlineto
            -108 -57 -56 -90 -95 62 -117 77 -97 hvcurveto
            45 31 rlineto
            -53 -54 callgsubr
            41 74 vhcurveto
            return
          </CharString>
          <CharString index="21">
            -62 callsubr
            -93 -70 -71 -94 -124 113 -116 return
          </CharString>
          <CharString index="22">
            hvcurveto
            48 43 51 49 40 vvcurveto
            81 -77 73 -86 -74 -56 -54 -65 -68 52 -55 37 -27 vhcurveto
            -81 -62 -59 -45 -68 vvcurveto
            -95 106 -101 98 32 30 10 12 18 vhcurveto
            86 -128 60 42 -102 114 rlineto
            14 13 12 20 22 vvcurveto
            35 -40 55 -33 -29 -31 -22 -30 -20 10 -17 13 -20 vhcurveto
            -14 -14 -22 -6 -26 hhcurveto
            -61 -49 42 57 64 82 54 49 38 hvcurveto
            return
          </CharString>
          <CharString index="23">
            -95 callsubr
            192 -217 hlineto
            -29 -15 -12 -23 -19 259 callgsubr
            rlineto
            -140 86 109 -161 182 hhcurveto
            return
          </CharString>
          <CharString index="24">
            rmoveto
            121 -2 37 73 82 hhcurveto
            81 41 -73 -121 3 hvcurveto
            -120 3 -37 -70 -81 hhcurveto
            -82 -41 70 120 -4 hvcurveto
            345 hmoveto
            152 -90 89 -133 -131 -93 -90 -151 -149 86 -91 137 131 93 91 149 vhcurveto
            return
          </CharString>
          <CharString index="25">
            89 -59 -96 callsubr
          </CharString>
          <CharString index="26">
            rlineto
            -72 callsubr
            return
          </CharString>
          <CharString index="27">
            -37 -22 262 callgsubr
            44 18 262 callsubr
            return
          </CharString>
          <CharString index="28">
            -21 24 -76 callsubr
            return
          </CharString>
          <CharString index="29">
            rmoveto
            249 74 vlineto
            88 39 -48 -77 -77 -39 -47 -88 hvcurveto
            158 -91 rmoveto
            -13 26 -15 21 -23 12 rrcurveto
            83 22 43 58 76 vvcurveto
            100 -74 68 -139 vhcurveto
            -257 25 callsubr
            24 -5 -9 23 hvcurveto
            -484 vlineto
            -36 -21 -9 -42 -73 callgsubr
            244 220 callgsubr
            -29 2 -28 7 -26 10 rrcurveto
            232 56 vlineto
            42 12 -16 -29 14 hvcurveto
            121 -243 rlineto
            139 hlineto
            3 13 1 13 13 vvcurveto
            -39 -19 12 46 -23 hvcurveto
            endchar
          </CharString>
          <CharString index="30">
            rmoveto
            27 22 23 27 28 -22 23 -27 -26 -22 -23 -28 -27 22 -23 26 hvcurveto
            -146 hmoveto
            27 22 23 27 28 -22 23 -27 -26 -22 -23 -28 -27 22 -23 26 hvcurveto
            return
          </CharString>
          <CharString index="31">
            -38 -26 vvcurveto
            -27 -23 -26 -120 -61 vhcurveto
            return
          </CharString>
          <CharString index="32">
            38 -79 callgsubr
            return
          </CharString>
          <CharString index="33">
            53 59 177 callgsubr
            157 vlineto
            endchar
          </CharString>
          <CharString index="34">
            -48 callgsubr
            17 44 hvcurveto
            310 return
          </CharString>
          <CharString index="35">
            603 156 vlineto
            return
          </CharString>
          <CharString index="36">
            422 604 rmoveto
            16 -48 -52 14 -64 hhcurveto
            -112 -85 -59 -102 hvcurveto
            -204 296 28 -158 vvcurveto
            -60 -49 -40 -69 -82 -59 34 115 2 vhcurveto
            3 -14 -11 1 -13 hhcurveto
            -5 -42 -5 -66 2 -56 rrcurveto
            -24 61 57 -14 60 hhcurveto
            118 96 68 110 hvcurveto
            206 -301 -29 150 vvcurveto
            57 44 34 64 65 47 -30 -85 14 vhcurveto
            -2 9 12 0 10 hhcurveto
            6 40 5 49 1 46 rrcurveto
            return
          </CharString>
          <CharString index="37">
            50 -72 rlineto
            return
          </CharString>
          <CharString index="38">
            vlineto
            -37 -21 -10 -44 -5 vhcurveto
            -3 -40 callgsubr
            return
          </CharString>
          <CharString index="39">
            -165 288 105 rmoveto
            -41 -37 -29 -57 -49 -63 12 86 6 vhcurveto
            1 -10 -14 1 -8 hhcurveto
            -5 -35 -3 -49 4 -43 rrcurveto
            -13 41 50 -7 49 hhcurveto
            108 82 53 86 hvcurveto
            142 -230 -10 97 vvcurveto
            43 34 26 46 46 45 -14 -77 -9 vhcurveto
            -2 8 14 -1 9 hhcurveto
            4 31 3 40 -2 47 rrcurveto
            12 -37 -31 8 -50 hhcurveto
            -95 -74 -41 -91 hvcurveto
            -142 225 3 -93 vvcurveto
            return
          </CharString>
          <CharString index="40">
            -5 callsubr
            60 50 -46 -58 -41 -18 -36 -13 -14 vhcurveto
            return
          </CharString>
          <CharString index="41">
            rmoveto
            -62 -7 -48 -12 -50 -19 -61 callsubr
            return
          </CharString>
          <CharString index="42">
            65 211 -226 -19 callsubr
            155 vlineto
            endchar
          </CharString>
          <CharString index="43">
            rmoveto
            -2 -12 -2 -12 -13 vvcurveto
            25 -1 15 -4 19 -6 -134 -217 rcurveline
            -11 -18 -11 -22 -6 -21 rrcurveto
            -3 hlineto
            -127 231 -20 36 10 17 60 5 rlinecurve
            13 -2 11 -4 13 vhcurveto
            -236 hlineto
            -12 2 -12 2 -13 vhcurveto
            17 -1 18 -3 19 -6 187 -323 rcurveline
            -165 vlineto
            -37 -25 -8 -41 -6 vhcurveto
            194 callsubr
            1 -13 rrcurveto
            243 hlineto
            2 12 1 14 11 vvcurveto
            -25 1 -24 3 -23 8 rrcurveto
            211 vlineto
            169 273 21 34 13 13 41 6 rlinecurve
            3 13 1 11 13 vvcurveto
            endchar
          </CharString>
          <CharString index="44">
            rmoveto
            -36 -21 -10 -44 -6 vhcurveto
            -3 -40 callgsubr
            260 152 callgsubr
            -33 2 -36 6 -30 11 rrcurveto
            192 vlineto
            101 14 87 27 70 hhcurveto
            9 34 1 39 -6 19 rrcurveto
            -76 -67 -57 -82 -32 hvcurveto
            48 -3 42 -7 42 vhcurveto
            -54 -5 89 callgsubr
            return
          </CharString>
          <CharString index="45">
            hvcurveto
            30 -28 -48 28 -53 hhcurveto
            return
          </CharString>
          <CharString index="46">
            -3 -11 -2 -14 -1 -10 25 1 23 -1 21 -1 -78 callgsubr
            return
          </CharString>
          <CharString index="47">
            rmoveto
            493 vlineto
            35 21 10 41 5 vhcurveto
            4 -21 callsubr
            24 -3 23 -10 rrcurveto
            -484 vlineto
            -36 -21 -9 -42 -73 callgsubr
            460 hlineto
            3 49 -2 50 -5 50 rrcurveto
            1 -8 -16 0 -11 hhcurveto
            -68 -6 -10 -39 -68 hhcurveto
            endchar
          </CharString>
          <CharString index="48">
            vvcurveto
            -84 137 -136 104 170 callgsubr
            vhcurveto
            -3 -167 -82 callsubr
          </CharString>
          <CharString index="49">
            rmoveto
            256 358 6 17 -2 24 -4 14 rlinecurve
            -346 hlineto
            -7 -46 -3 -43 -44 vvcurveto
            -5 9 9 -1 8 hhcurveto
            71 13 23 24 60 hhcurveto
            128 hlineto
            -260 -359 -4 -17 0 -22 4 -15 rlinecurve
            358 hlineto
            7 47 4 42 -1 44 rrcurveto
            4 -8 -10 2 -7 hhcurveto
            -72 -13 -23 -23 -61 hhcurveto
            endchar
          </CharString>
          <CharString index="50">
            hhcurveto
            -39 -10 callgsubr
            return
          </CharString>
          <CharString index="51">
            rmoveto
            -2 -12 -1 -17 -11 vvcurveto
            26 -2 24 -3 26 -9 rrcurveto
            -180 vlineto
            -18 -34 -42 -12 -42 hhcurveto
            -113 -83 85 181 164 82 101 138 72 55 -40 -75 8 hvcurveto
            -1 10 14 0 7 hhcurveto
            10 49 7 52 1 41 rrcurveto
            19 -50 -62 13 -72 hhcurveto
            -175 -153 -131 -199 -205 135 -113 150 57 54 18 27 42 hvcurveto
            21 -33 rlineto
            50 219 hlineto
            37 24 7 41 8 vhcurveto
            3 10 2 17 -1 13 rrcurveto
            endchar
          </CharString>
          <CharString index="52">
            -95 callsubr
            87 -194 hlineto
            -51 27 -61 53 -44 vhcurveto
            -43 50 46 -15 37 hhcurveto
            81 52 56 86 hvcurveto
            266 return
          </CharString>
          <CharString index="53">
            18 callgsubr
            vhcurveto
            -4 -144 89 -67 -46 callgsubr
          </CharString>
          <CharString index="54">
            54 69 54 -24 55 -46 41 hvcurveto
            return
          </CharString>
          <CharString index="55">
            -47 -64 37 48 19 return
          </CharString>
          <CharString index="56">
            rmoveto
            67 -67 67 67 -68 66 rlineto
            return
          </CharString>
          <CharString index="57">
            -1 -165 rlineto
            38 -32 -48 23 -54 -95 callgsubr
            return
          </CharString>
          <CharString index="58">
            -85 callgsubr
            78 78 callsubr
            return
          </CharString>
          <CharString index="59">
            rmoveto
            14 vlineto
            -16 15 -34 19 -26 2 -105 -171 rcurveline
            26 -16 rlineto
            return
          </CharString>
          <CharString index="60">
            45 32 rlineto
            -99 callsubr
          </CharString>
          <CharString index="61">
            38 -86 callgsubr
            -3 0 return
          </CharString>
          <CharString index="62">
            -54 72 rlineto
            -50 -47 -46 -18 -60 hhcurveto
            -83 -69 54 82 102 75 35 66 hvcurveto
            return
          </CharString>
          <CharString index="63">
            rmoveto
            46 30 29 46 55 vvcurveto
            53 -32 27 -27 -24 -18 -16 -24 vhcurveto
            -37 40 -12 -38 vvcurveto
            -27 -12 -19 -25 -21 vhcurveto
            return
          </CharString>
          <CharString index="64">
            rmoveto
            202 callsubr
            -161 145 -113 128 89 84 61 79 82 -76 63 -64 -67 -44 -54 -61 -45 23 -36 16 -18 hvcurveto
            76 callgsubr
            144 192 174 hlineto
            -282 -418 rmoveto
            42 29 39 46 28 17 -17 -25 -52 -49 -35 -50 -11 vhcurveto
            -13 193 callgsubr
            return
          </CharString>
          <CharString index="65">
            77 callsubr
            -185 hlineto
            -102 4 116 -108 85 hhcurveto
            return
          </CharString>
          <CharString index="66">
            -49 72 rlineto
            -613 -95 callsubr
            366 -9 callgsubr
            return
          </CharString>
          <CharString index="67">
            11 536 103 rmoveto
            -33 -49 -54 -15 -58 hhcurveto
            -119 -95 88 170 168 89 98 125 72 47 -46 -73 2 hvcurveto
            -1 3 25 0 2 hhcurveto
            11 49 6 52 1 44 rrcurveto
            19 -39 -67 13 -60 hhcurveto
            -179 -146 -131 -199 return
          </CharString>
          <CharString index="68">
            132 hlineto
            43 -11 29 -30 28 vhcurveto
            -5 5 -32 29 -7 5 rrcurveto
            29 -33 -29 7 -35 hhcurveto
            return
          </CharString>
          <CharString index="69">
            rmoveto
            66 callgsubr
            206 180 161 hlineto
            -41 callsubr
            return
          </CharString>
          <CharString index="70">
            hlineto
            49 -72 rlineto
            return
          </CharString>
          <CharString index="71">
            62 36 rcurveline
            -79 84 -75 90 -36 52 20 callgsubr
          </CharString>
          <CharString index="72">
            rmoveto
            -5 -45 0 -56 4 -42 8 -3 18 -1 8 1 rrcurveto
            78 6 23 25 60 hhcurveto
            78 -492 hlineto
            -36 -22 -9 -60 -73 callgsubr
            267 hlineto
            3 11 1 14 -1 12 -28 1 -31 4 -27 10 rrcurveto
            528 78 vlineto
            60 22 -25 -78 7 hvcurveto
            8 -1 17 1 9 3 3 42 1 56 -5 45 rrcurveto
            endchar
          </CharString>
          <CharString index="73">
            84 -75 90 -36 52 return
          </CharString>
          <CharString index="74">
            89 -52 rlineto
            324 vlineto
            return
          </CharString>
          <CharString index="75">
            33 callgsubr
            137 4 rlineto
            -30 -16 -23 -36 -34 vvcurveto
            return
          </CharString>
          <CharString index="76">
            rlineto
            -135 46 74 -181 142 hhcurveto
            return
          </CharString>
          <CharString index="77">
            188 209 -71 rmoveto
            68 -53 81 53 147 90 33 31 rlinecurve
            14 12 45 34 7 12 -3 -99 rcurveline
            86 -55 224 callgsubr
            -49 72 rlineto
            -856 -95 callsubr
            179 -217 hlineto
            -29 -15 -12 -23 -20 -21 12 23 -23 vhcurveto
            -38 -35 62 -108 118 -177 168 -4 rlinecurve
            92 443 rmoveto
            -76 -59 -58 -74 -113 100 -60 105 -5 hvcurveto
            -41 -36 -50 -29 -69 hhcurveto
            -97 -83 66 73 -47 hvcurveto
            68 9 30 44 55 vvcurveto
            237 349 vlineto
            -1 -163 rlineto
            37 -34 -46 22 -54 hhcurveto
            110 -263 rmoveto
            256 callgsubr
            42 33 45 56 53 -40 -68 -39 -18 -35 -13 -13 vhcurveto
            return
          </CharString>
          <CharString index="78">
            33 16 callsubr
            156 vlineto
            return
          </CharString>
          <CharString index="79">
            47 callsubr
            89 24 callgsubr
          </CharString>
          <CharString index="80">
            -107 callsubr
            65 26 61 76 23 return
          </CharString>
          <CharString index="81">
            -28 callgsubr
            22 -1 return
          </CharString>
          <CharString index="82">
            hhcurveto
            36 40 24 16 21 hvcurveto
            -7 -199 65 callgsubr
          </CharString>
          <CharString index="83">
            2 -268 -21 -31 -23 -27 -24 -20 rlinecurve
            -163 176 rlineto
            56 callgsubr
            44 28 -22 -22 21 hvcurveto
            29 41 rlineto
            30 -28 -50 44 -74 hhcurveto
            return
          </CharString>
          <CharString index="84">
            321 rmoveto
            -36 -22 -47 -38 -54 hhcurveto
            216 callgsubr
            vlineto
            return
          </CharString>
          <CharString index="85">
            hhcurveto
            -70 -38 51 56 72 48 61 77 40 33 -23 -22 20 hvcurveto
            26 41 rlineto
            182 callgsubr
            -85 -84 -68 -108 return
          </CharString>
          <CharString index="86">
            -1 callsubr
            -229 hlineto
            -26 callsubr
            return
          </CharString>
          <CharString index="87">
            4 -19 -24 3 -23 hhcurveto
            -20 -20 -2 -4 -19 hvcurveto
            -25 22 -18 26 30 vvcurveto
            43 34 39 36 11 vhcurveto
            return
          </CharString>
          <CharString index="88">
            vlineto
            101 callsubr
            return
          </CharString>
          <CharString index="89">
            rmoveto
            -13 19 -13 14 -17 8 108 104 rcurveline
            30 31 30 11 43 hhcurveto
            3 12 0 13 13 vvcurveto
            -210 hlineto
            -3 -8 -2 -11 -11 vvcurveto
            20 -10 24 -7 23 -6 -184 -180 rcurveline
            493 vlineto
            -7 callsubr
            -553 -91 callsubr
            110 vlineto
            55 53 5 -3 5 -5 6 -8 rlinecurve
            142 -198 rlineto
            139 hlineto
            4 13 1 14 11 vvcurveto
            -45 3 -21 11 -33 46 rrcurveto
            endchar
          </CharString>
          <CharString index="90">
            vvcurveto
            -132 141 -129 127 72 60 33 44 38 vhcurveto
            5 callsubr
          </CharString>
          <CharString index="91">
            -45 -57 -39 -45 hhcurveto
            -33 -26 17 40 45 29 19 53 hvcurveto
            207 154 177 99 callsubr
            -617 199 callsubr
            -75 275 callgsubr
            -46 -40 -68 -90 89 -80 68 hvcurveto
            49 53 39 41 hhcurveto
            29 16 -17 -18 -59 -69 -46 -90 -73 -62 52 67 -44 hvcurveto
            -43 -32 return
          </CharString>
          <CharString index="92">
            -15 54 callsubr
            35 -23 vhcurveto
            -40 -16 -30 -35 -45 vvcurveto
            return
          </CharString>
          <CharString index="93">
            -196 -181 rcurveline
            66 -47 241 248 -4 -194 88 -55 -96 callsubr
          </CharString>
          <CharString index="94">
            344 -38 callgsubr
            return
          </CharString>
          <CharString index="95">
            299 rmoveto
            -134 81 110 -167 187 hhcurveto
            96 78 68 39 30 hvcurveto
            -6 -94 87 -57 105 callsubr
            -873 -95 callsubr
            192 -217 hlineto
            -29 -15 -12 -23 -19 -22 12 23 -22 vhcurveto
            188 -14 rmoveto
            237 349 vlineto
            -50 callsubr
            356 -39 rmoveto
            -45 -21 -35 -11 -11 vhcurveto
            270 callsubr
            62 49 -43 -61 vhcurveto
            return
          </CharString>
          <CharString index="96">
            6 17 2 15 24 vvcurveto
            -47 -5 -44 -2 -43 -1 rrcurveto
            128 vlineto
            -20 5 -77 -135 -21 -2 -21 -6 -20 -8 rlinecurve
            -1 -7 -1 -13 -9 vvcurveto
            20 23 -1 -3 21 hvcurveto
            -286 vlineto
            return
          </CharString>
          <CharString index="97">
            -46 rmoveto
            -97 callgsubr
            417 99 callsubr
            -885 hlineto
            50 -105 callgsubr
            22 130 callsubr
            -135 rlineto
            return
          </CharString>
          <CharString index="98">
            rmoveto
            -53 -35 -19 -57 -59 -35 19 53 vhcurveto
            -29 hlineto
            -3 -9 0 -10 -11 vvcurveto
            -63 45 -50 81 81 44 50 64 10 -1 10 -2 9 vhcurveto
            return
          </CharString>
          <CharString index="99">
            rmoveto
            67 -66 67 66 -68 67 rlineto
            return
          </CharString>
          <CharString index="100">
            -62 -6 -48 -12 -50 165 callgsubr
            -12 25 1 23 1 21 -2 rrcurveto
            return
          </CharString>
          <CharString index="101">
            -18 634 71 callsubr
            -655 -84 callsubr
            123 141 106 151 42 -20 54 -47 43 hvcurveto
            113 callgsubr
            vlineto
            324 -367 -67 callsubr
            return
          </CharString>
          <CharString index="102">
            rmoveto
            270 callsubr
            return
          </CharString>
          <CharString index="103">
            rmoveto
            -40 226 callgsubr
            56 30 56 51 41 12 -42 -37 -64 -29 -63 -29 -32 vhcurveto
            30 378 rmoveto
            231 78 callsubr
            return
          </CharString>
          <CharString index="104">
            304 185 -65 callgsubr
            return
          </CharString>
          <CharString index="105">
            hhcurveto
            -53 -48 37 55 64 55 42 72 11 hvcurveto
            98 hlineto
            -50 74 rlineto
            return
          </CharString>
          <CharString index="106">
            140 callgsubr
            11 rrcurveto
            return
          </CharString>
          <CharString index="107">
            80 -2 13 46 43 hhcurveto
            43 14 -46 -80 2 hvcurveto
            -78 1 -13 -46 -42 hhcurveto
            -44 -14 46 78 -1 hvcurveto
            203 hmoveto
            100 -60 63 -87 -86 -60 -63 -100 -99 60 -62 86 87 60 62 99 vhcurveto
            -134 475 rmoveto
            -411 -623 rlineto
            59 hlineto
            411 623 rlineto
            -455 -151 rmoveto
            80 -2 13 46 43 hhcurveto
            43 15 -46 -80 2 hvcurveto
            -78 1 -14 -46 -42 hhcurveto
            -44 -14 46 78 -1 hvcurveto
            204 hmoveto
            100 -70 63 -78 -77 -69 -63 -100 -99 69 -62 77 78 70 62 99 vhcurveto
            endchar
          </CharString>
          <CharString index="108">
            rmoveto
            21 17 -12 -31 -31 -18 -13 -20 -20 -18 13 31 31 18 12 20 hvcurveto
            -116 vmoveto
            50 44 28 45 44 -44 28 -50 -50 -44 -28 -44 -45 44 -28 50 hvcurveto
            return
          </CharString>
          <CharString index="109">
            rmoveto
            -211 236 211 hlineto
            return
          </CharString>
          <CharString index="110">
            88 -59 -46 callgsubr
          </CharString>
          <CharString index="111">
            43 201 43 rmoveto
            248 121 vlineto
            4 15 0 16 -4 15 rrcurveto
            -121 244 69 hlineto
            21 callsubr
            -236 -76 vlineto
            -3 -15 0 -16 3 -15 rrcurveto
            76 -203 hlineto
            117 callsubr
          </CharString>
          <CharString index="112">
            -45 callsubr
            endchar
          </CharString>
          <CharString index="113">
            rmoveto
            19 -29 -31 12 -42 hhcurveto
            -53 -46 -28 -57 -10 hvcurveto
            -10 -17 -6 -23 2 -29 rrcurveto
            80 -89 -108 66 -96 79 callsubr
            -50 72 rlineto
            -126 hlineto
            -35 36 -11 33 38 83 callgsubr
          </CharString>
          <CharString index="114">
            rmoveto
            65 25 33 37 44 vvcurveto
            39 -30 28 -35 -29 -22 -15 -25 vhcurveto
            -30 42 -8 -23 vvcurveto
            -22 -21 -19 -28 -14 vhcurveto
            return
          </CharString>
          <CharString index="115">
            17 22 85 callsubr
            -23 -25 4 -24 hhcurveto
            return
          </CharString>
          <CharString index="116">
            rmoveto
            -16 -25 -24 -9 -23 hhcurveto
            -66 -51 111 callsubr
            460 271 rmoveto
            return
          </CharString>
          <CharString index="117">
            hlineto
            6 -9 37 -52 6 -11 rrcurveto
            83 -178 hlineto
            -26 -15 -49 -23 -41 hhcurveto
            -24 -43 10 21 -26 hvcurveto
            29 27 17 29 35 vvcurveto
            82 -79 104 -87 -58 -57 -34 -48 -41 vhcurveto
            63 -62 rlineto
            46 44 45 18 32 hhcurveto
            36 33 -28 -40 -64 -79 -43 -85 -30 hvcurveto
            48 -79 31 12 34 16 29 19 rlinecurve
            31 -27 15 -32 -38 vvcurveto
            -61 -45 -50 -78 -93 -62 123 96 -43 vhcurveto
            -44 -25 rlineto
            -99 39 86 -175 147 hhcurveto
            return
          </CharString>
          <CharString index="118">
            rmoveto
            -97 58 97 -72 98 hhcurveto
            118 74 79 76 61 -62 99 -74 hvcurveto
            -45 -57 -40 -45 hhcurveto
            -36 -23 31 37 48 29 23 53 hvcurveto
            207 180 240 99 callsubr
            -697 -95 callsubr
            371 -98 275 callgsubr
            -46 -47 -68 -93 89 -90 204 callsubr
            -24 -58 -64 -56 -90 -73 -66 59 66 -44 hvcurveto
            389 135 -51 callsubr
            endchar
          </CharString>
          <CharString index="119">
            -304 -95 callsubr
            65 -304 hlineto
            -213 105 rlineto
            25 22 54 50 49 vvcurveto
            84 -67 80 -85 -66 -62 -52 -70 -62 35 -46 53 -40 vhcurveto
            -54 -42 -98 -46 -35 -18 67 -50 rcurveline
            37 18 83 43 69 49 return
          </CharString>
          <CharString index="120">
            73 -110 87 -109 104 -126 rlinecurve
            62 36 -30 callgsubr
            rlinecurve
            -64 callgsubr
            return
          </CharString>
          <CharString index="121">
            19 -29 133 callgsubr
            -40 -23 -32 return
          </CharString>
          <CharString index="122">
            -6 callgsubr
            -358 -37 callsubr
            114 -235 -193 132 hlineto
            45 -13 28 -32 30 vhcurveto
            -40 36 rlineto
            29 -34 -28 7 -35 hhcurveto
            return
          </CharString>
          <CharString index="123">
            9 18 22 hvcurveto
            -3 -233 86 -58 rlineto
            603 return
          </CharString>
          <CharString index="124">
            rmoveto
            65 -46 258 254 -5 214 callgsubr
            29 -21 -36 20 hvcurveto
            42 33 rlineto
            59 -42 187 callsubr
            -674 -37 callsubr
            86 -163 hlineto
            -89 95 -104 82 -9 vhcurveto
            -10 65 176 callgsubr
          </CharString>
          <CharString index="125">
            13 callsubr
            -43 55 55 -20 48 hhcurveto
            return
          </CharString>
          <CharString index="126">
            213 callsubr
            111 -293 hlineto
            -30 2 -15 22 -17 vhcurveto
            46 -35 143 -110 30 -22 rrcurveto
            45 -35 26 -23 -22 vvcurveto
            -19 -13 -18 -17 -17 vhcurveto
            72 -55 rlineto
            20 20 19 31 34 vvcurveto
            27 return
          </CharString>
          <CharString index="127">
            rmoveto
            240 callgsubr
            -127 126 rlineto
            -43 hlineto
            -127 -126 23 -21 rlineto
            return
          </CharString>
          <CharString index="128">
            148 74 -105 -164 -165 -74 -104 -144 hvcurveto
            -236 580 rmoveto
            -28 callgsubr
            rrcurveto
            22 26 -4 -9 21 hvcurveto
            return
          </CharString>
          <CharString index="129">
            rmoveto
            193 182 194 callgsubr
            return
          </CharString>
          <CharString index="130">
            25 callgsubr
            71 -288 223 callsubr
            139 vlineto
            191 callsubr
            endchar
          </CharString>
          <CharString index="131">
            216 201 rmoveto
            16 16 1 3 15 hvcurveto
            96 13 80 72 118 vvcurveto
            100 -84 129 -110 -76 -51 -60 -70 -77 76 -61 55 -22 vhcurveto
            26 39 rlineto
            -39 20 -36 32 40 vvcurveto
            49 31 32 47 58 31 -54 -62 -100 -65 -62 -93 -41 -35 25 27 -28 vhcurveto
            -40 -36 41 -57 118 -143 125 -143 rlinecurve
            58 39 127 callsubr
            rlinecurve
            return
          </CharString>
          <CharString index="132">
            hlineto
            106 callgsubr
            return
          </CharString>
          <CharString index="133">
            -64 callgsubr
            -43 55 return
          </CharString>
          <CharString index="134">
            -40 -36 -9 -15 -31 vhcurveto
            -16 16 -19 23 29 182 callsubr
            219 176 209 78 callsubr
            -680 -95 callsubr
            384 -98 -193 239 callgsubr
            55 -52 hvcurveto
            -41 -34 -24 -49 -53 vvcurveto
            -161 223 -121 52 -31 vhcurveto
            47 30 rlineto
            -49 27 -198 99 123 vvcurveto
            87 71 61 110 return
          </CharString>
          <CharString index="135">
            41 callgsubr
            88 35 callgsubr
          </CharString>
          <CharString index="136">
            -64 37 48 19 16 94 callsubr
            -48 34 vhcurveto
            201 hlineto
            78 callgsubr
            return
          </CharString>
          <CharString index="137">
            -41 -53 -38 -46 hhcurveto
            -35 -22 29 36 48 42 21 43 hvcurveto
            208 164 return
          </CharString>
          <CharString index="138">
            -37 callsubr
            178 52 callgsubr
            return
          </CharString>
          <CharString index="139">
            rmoveto
            -38 24 -23 32 37 vvcurveto
            48 39 38 49 48 23 -29 -35 -46 -70 -50 -28 -19 vhcurveto
            return
          </CharString>
          <CharString index="140">
            hhcurveto
            -61 -55 40 55 63 63 13 55 29 28 -4 -5 19 hvcurveto
            return
          </CharString>
          <CharString index="141">
            rmoveto
            34 -10 115 143 rlineto
            13 vlineto
            -21 13 -23 6 -29 3 rrcurveto
            46 -167 rmoveto
            33 -11 135 139 rlineto
            12 vlineto
            -21 14 -22 7 -28 3 rrcurveto
            endchar
          </CharString>
          <CharString index="142">
            625 -46 rmoveto
            603 157 263 callsubr
            -802 -95 callsubr
            556 -145 -300 hlineto
            83 callsubr
            return
          </CharString>
          <CharString index="143">
            -296 hlineto
            -54 -26 206 callsubr
            -50 48 60 73 callgsubr
            18 21 -2 -8 21 hvcurveto
            -26 79 rlineto
            10 -24 -25 4 -24 hhcurveto
            -46 -45 -18 -36 -28 hvcurveto
            return
          </CharString>
          <CharString index="144">
            41 34 52 hhcurveto
            48 32 -30 -64 hvcurveto
            -217 vlineto
            -37 return
          </CharString>
          <CharString index="145">
            -58 -107 callsubr
            65 26 61 76 return
          </CharString>
          <CharString index="146">
            -77 363 -17 rmoveto
            51 callgsubr
            return
          </CharString>
          <CharString index="147">
            vlineto
            1 -12 -12 1 -12 hhcurveto
            -151 -123 -88 -164 -154 94 -75 96 54 40 21 29 32 hvcurveto
            -32 13 30 -18 37 hhcurveto
            39 26 23 27 22 hvcurveto
            return
          </CharString>
          <CharString index="148">
            147 callsubr
            193 -323 hlineto
            141 callsubr
          </CharString>
          <CharString index="149">
            hhcurveto
            -24 -33 -10 -16 -26 hvcurveto
            52 -75 rlineto
            12 22 18 6 19 hhcurveto
            69 53 -81 -78 41 hvcurveto
            -171 hlineto
            41 -72 rlineto
            126 222 callsubr
            return
          </CharString>
          <CharString index="150">
            -106 callgsubr
            78 callgsubr
            return
          </CharString>
          <CharString index="151">
            vlineto
            -101 callsubr
            return
          </CharString>
          <CharString index="152">
            hlineto
            -101 callsubr
            return
          </CharString>
          <CharString index="153">
            89 -57 rlineto
            603 return
          </CharString>
          <CharString index="154">
            147 callsubr
            192 -323 hlineto
            return
          </CharString>
          <CharString index="155">
            -277 202 536 rmoveto
            -97 callsubr
            return
          </CharString>
          <CharString index="156">
            364 22 callsubr
            return
          </CharString>
          <CharString index="157">
            228 callgsubr
            -19 return
          </CharString>
          <CharString index="158">
            -45 -40 -17 -25 -26 hvcurveto
            return
          </CharString>
          <CharString index="159">
            hlineto
            50 196 callgsubr
            -27 206 callsubr
            -49 48 60 73 callgsubr
            8 callsubr
            -76 -73 -49 -97 245 callgsubr
            hvcurveto
            -6 126 callgsubr
            return
          </CharString>
          <CharString index="160">
            73 callgsubr
            18 21 -2 -8 21 hvcurveto
            -26 79 rlineto
            10 -24 -25 4 -24 hhcurveto
            -75 -74 -49 -97 return
          </CharString>
          <CharString index="161">
            -11 -20 -28 -33 vvcurveto
            -49 40 -36 return
          </CharString>
          <CharString index="162">
            -48 -57 callsubr
            return
          </CharString>
          <CharString index="163">
            -284 -95 callsubr
            45 -306 hlineto
            -50 -43 -61 -51 -73 hhcurveto
            -64 260 callgsubr
            26 27 208 callgsubr
            -28 85 rlineto
            4 -25 -30 4 -26 229 callsubr
            29 40 42 11 vhcurveto
            78 78 callsubr
            return
          </CharString>
          <CharString index="164">
            96 callgsubr
            -48 28 -56 44 -38 vhcurveto
            -59 -24 -42 -45 -69 vvcurveto
            -53 22 -54 49 -45 vhcurveto
            -54 58 67 -26 73 hhcurveto
            78 74 44 35 31 hvcurveto
            -55 72 rlineto
            -44 -46 -56 -27 -69 hhcurveto
            -77 -71 45 74 77 68 30 68 122 83 83 89 hvcurveto
            return
          </CharString>
          <CharString index="165">
            rmoveto
            -55 -31 139 callsubr
            46 22 53 vvcurveto
            30 -23 56 -47 34 vhcurveto
            201 hlineto
            return
          </CharString>
          <CharString index="166">
            846 rmoveto
            5 13 15 2 11 hhcurveto
            91 62 -169 -55 21 hvcurveto
            85 -51 -96 74 -85 hhcurveto
            -28 -29 -6 -17 -26 89 callsubr
            87 75 -88 -45 24 hvcurveto
            59 16 rlineto
            96 -22 -63 239 -146 hhcurveto
            -18 -26 -4 -9 -20 hvcurveto
            return
          </CharString>
          <CharString index="167">
            hlineto
            47 -72 rlineto
            139 return
          </CharString>
          <CharString index="168">
            -83 callsubr
            endchar
          </CharString>
          <CharString index="169">
            hhcurveto
            -40 -33 -27 -30 -22 hvcurveto
            16 4 125 1 13 vhcurveto
            338 hlineto
            return
          </CharString>
          <CharString index="170">
            -6 -15 -19 -6 -21 hhcurveto
            -21 -23 13 34 return
          </CharString>
          <CharString index="171">
            50 56 39 36 31 vhcurveto
            -3 -120 46 callsubr
            return
          </CharString>
          <CharString index="172">
            -31 hvcurveto
            -16 -8 -8 -10 -16 vvcurveto
            -80 120 98 callsubr
            154 vlineto
            return
          </CharString>
          <CharString index="173">
            46 -72 rlineto
            107 -545 hlineto
            88 -58 rlineto
            603 152 194 callgsubr
            -119 hlineto
            return
          </CharString>
          <CharString index="174">
            5 vhcurveto
            4 -1 callsubr
            return
          </CharString>
          <CharString index="175">
            -45 72 rlineto
            -609 213 callgsubr
            353 -75 -95 hlineto
            -124 -61 -68 -91 -55 21 -50 34 -40 hvcurveto
            -151 vlineto
            -36 -31 -7 -26 -47 75 -82 40 24 7 18 43 hvcurveto
            181 vlineto
            27 -15 30 -11 30 -3 14 -3 21 -1 22 4 return
          </CharString>
          <CharString index="176">
            -13 -48 -18 72 callgsubr
            return
          </CharString>
          <CharString index="177">
            107 58 75 84 37 -10 25 -14 22 hvcurveto
            -12 28 31 -12 30 hhcurveto
            return
          </CharString>
          <CharString index="178">
            557 rmoveto
            -49 72 rlineto
            return
          </CharString>
          <CharString index="179">
            -87 -65 -60 -94 -91 -75 65 84 103 69 33 75 vhcurveto
            return
          </CharString>
          <CharString index="180">
            -6 callgsubr
            224 callsubr
            422 -92 callgsubr
            -82 -82 -64 -108 -22 4 return
          </CharString>
          <CharString index="181">
            rmoveto
            -46 -30 -29 -46 -55 vvcurveto
            -53 32 -27 27 24 18 16 24 vhcurveto
            37 -40 12 38 vvcurveto
            27 12 19 25 21 vhcurveto
            return
          </CharString>
          <CharString index="182">
            hlineto
            -37 -23 262 callgsubr
            45 17 262 callsubr
            return
          </CharString>
          <CharString index="183">
            401 96 callsubr
            return
          </CharString>
          <CharString index="184">
            -95 callsubr
            93 return
          </CharString>
          <CharString index="185">
            hlineto
            -50 72 rlineto
            return
          </CharString>
          <CharString index="186">
            hhcurveto
            -75 -55 -43 -69 -56 45 -40 30 -16 hvcurveto
            44 26 rlineto
            -19 10 -21 22 28 vvcurveto
            44 34 20 46 101 135 -93 -94 76 vhcurveto
            -165 -95 callsubr
            107 198 callgsubr
            157 vlineto
            return
          </CharString>
          <CharString index="187">
            -25 rlineto
            -99 39 86 -175 147 hhcurveto
            70 callsubr
            return
          </CharString>
          <CharString index="188">
            347 81 rmoveto
            -19 -25 -28 -10 -34 hhcurveto
            -72 -49 49 131 133 55 47 93 23 18 -2 -4 19 hvcurveto
            return
          </CharString>
          <CharString index="189">
            -5 -152 90 -67 -96 callsubr
          </CharString>
          <CharString index="190">
            -89 callgsubr
            81 44 54 69 54 -24 55 -46 41 hvcurveto
            192 -323 hlineto
            return
          </CharString>
          <CharString index="191">
            -145 70 callgsubr
            return
          </CharString>
          <CharString index="192">
            -2 -8 21 hvcurveto
            -27 79 rlineto
            10 return
          </CharString>
          <CharString index="193">
            -77 hhcurveto
            -43 -51 19 50 58 59 11 52 32 31 -6 -5 19 hvcurveto
            -26 77 rlineto
            5 -22 -28 3 -25 hhcurveto
            -18 -18 -2 -3 -18 hvcurveto
            -17 13 -27 24 30 vvcurveto
            42 38 3 41 vhcurveto
            118 139 hlineto
            return
          </CharString>
          <CharString index="194">
            vlineto
            60 32 41 39 58 hhcurveto
            return
          </CharString>
          <CharString index="195">
            50 callgsubr
            -8 19 rlineto
            63 callsubr
            return
          </CharString>
          <CharString index="196">
            hvcurveto
            55 -69 rlineto
            11 21 22 5 19 hhcurveto
            return
          </CharString>
          <CharString index="197">
            137 4 77 callgsubr
            return
          </CharString>
          <CharString index="198">
            -5 vhcurveto
            -2 -40 callgsubr
            return
          </CharString>
          <CharString index="199">
            -109 113 -102 return
          </CharString>
          <CharString index="200">
            vhcurveto
            85 -126 58 116 callgsubr
            -41 -38 -36 -30 -34 -23 10 -22 15 -22 vhcurveto
            0 -26 -25 -50 -74 -65 53 81 89 55 31 95 vhcurveto
            return
          </CharString>
          <CharString index="201">
            9 19 13 hvcurveto
            72 46 46 22 53 vvcurveto
            30 -22 56 return
          </CharString>
          <CharString index="202">
            87 -56 -81 callsubr
            return
          </CharString>
          <CharString index="203">
            rmoveto
            -7 callgsubr
            return
          </CharString>
          <CharString index="204">
            -50 -47 -46 -18 -60 hhcurveto
            -83 -69 54 82 102 75 35 66 hvcurveto
            147 197 161 hlineto
            186 callsubr
            return
          </CharString>
          <CharString index="205">
            -95 91 64 callsubr
            return
          </CharString>
          <CharString index="206">
            hlineto
            -49 72 rlineto
            return
          </CharString>
          <CharString index="207">
            144 539 rmoveto
            36 28 29 34 36 -28 28 -36 -34 -29 -28 -36 -34 29 -29 34 hvcurveto
            return
          </CharString>
          <CharString index="208">
            88 -59 rlineto
            603 return
          </CharString>
          <CharString index="209">
            hhcurveto
            -54 -47 38 54 214 callsubr
            -74 137 237 callgsubr
            -102 121 -100 91 60 57 23 return
          </CharString>
          <CharString index="210">
            57 42 -105 124 rlineto
            23 22 15 25 20 vvcurveto
            36 -45 67 -40 -39 -36 -30 -35 -22 251 callsubr
            52 82 89 55 30 95 vhcurveto
            return
          </CharString>
          <CharString index="211">
            267 callsubr
            -236 rmoveto
            -13 hlineto
            return
          </CharString>
          <CharString index="212">
            rlineto
            603 157 263 callsubr
            return
          </CharString>
          <CharString index="213">
            38 121 callgsubr
            -26 return
          </CharString>
          <CharString index="214">
            -304 -95 callsubr
            65 -304 hlineto
            -202 105 rlineto
            26 22 53 50 49 vvcurveto
            84 -67 80 -84 -67 -62 -52 -70 -62 35 -46 54 -40 vhcurveto
            -55 -42 -97 -46 return
          </CharString>
          <CharString index="215">
            89 -54 178 callsubr
            -715 -95 callsubr
            268 -70 -78 hlineto
            -65 -48 -26 -57 -49 44 -45 30 -19 hvcurveto
            -39 -13 -26 -26 -42 vvcurveto
            return
          </CharString>
          <CharString index="216">
            rmoveto
            19 -29 -32 12 -42 hhcurveto
            -70 -60 -44 -82 -65 41 -72 52 -35 hvcurveto
            42 18 rlineto
            -38 29 -27 43 46 83 callgsubr
          </CharString>
          <CharString index="217">
            6 -3 5 -6 9 261 callgsubr
            return
          </CharString>
          <CharString index="218">
            54 62 32 11 28 17 22 hvcurveto
            return
          </CharString>
          <CharString index="219">
            15 21 -23 vhcurveto
            return
          </CharString>
          <CharString index="220">
            rmoveto
            135 139 rlineto
            12 vlineto
            -21 14 -22 7 -28 3 -97 -164 rcurveline
            27 132 rmoveto
            13 vlineto
            -21 13 -23 6 -29 3 -76 -168 rcurveline
            34 -10 rlineto
            return
          </CharString>
          <CharString index="221">
            rmoveto
            196 634 -196 hlineto
            236 -185 rmoveto
            196 185 -196 hlineto
            return
          </CharString>
          <CharString index="222">
            hhcurveto
            121 callsubr
          </CharString>
          <CharString index="223">
            -30 -58 -31 hvcurveto
            -15 179 callgsubr
            return
          </CharString>
          <CharString index="224">
            -36 -21 -9 -42 -73 callgsubr
            251 hlineto
            180 131 110 202 201 -135 110 -184 hvcurveto
            endchar
          </CharString>
          <CharString index="225">
            -62 -6 -47 -12 -51 -20 -4 -10 -1 -14 -1 -12 24 1 24 1 21 -2 rrcurveto
            return
          </CharString>
          <CharString index="226">
            -52 67 -54 84 77 vvcurveto
            68 38 41 75 vhcurveto
            return
          </CharString>
          <CharString index="227">
            222 callgsubr
            -25 55 -46 41 hvcurveto
            return
          </CharString>
          <CharString index="228">
            207 callgsubr
            hvcurveto
            82 callsubr
          </CharString>
          <CharString index="229">
            -49 -35 -36 -44 -28 hvcurveto
            54 -56 -47 27 -58 hhcurveto
            -98 -79 -86 -100 -95 103 -121 96 56 37 32 47 30 hvcurveto
            -53 54 62 -26 48 hhcurveto
            return
          </CharString>
          <CharString index="230">
            91 callgsubr
            43 55 34 263 callgsubr
            -93 return
          </CharString>
          <CharString index="231">
            -312 182 557 rmoveto
            164 hlineto
            -41 72 rlineto
            return
          </CharString>
          <CharString index="232">
            132 -105 198 callsubr
            return
          </CharString>
          <CharString index="233">
            153 callgsubr
            -161 return
          </CharString>
          <CharString index="234">
            -61 133 callsubr
            return
          </CharString>
          <CharString index="235">
            -8 -10 -49 -50 -9 -8 -161 174 rcurveline
            56 callgsubr
            44 28 -22 -21 21 hvcurveto
            29 40 rlineto
            30 -28 -50 44 -74 hhcurveto
            return
          </CharString>
          <CharString index="236">
            -3 -10 -2 -14 return
          </CharString>
          <CharString index="237">
            37 28 hvcurveto
            -5 return
          </CharString>
          <CharString index="238">
            25 -29 callsubr
            return
          </CharString>
          <CharString index="239">
            -44 -46 37 61 hvcurveto
            return
          </CharString>
          <CharString index="240">
            62 -95 102 -35 44 return
          </CharString>
          <CharString index="241">
            hhcurveto
            -42 -34 11 4 -30 hvcurveto
            2 -13 -13 2 -15 -40 -53 -38 -47 hhcurveto
            -35 -21 29 36 48 42 21 42 hvcurveto
            209 164 return
          </CharString>
          <CharString index="242">
            177 callgsubr
            153 vlineto
            endchar
          </CharString>
          <CharString index="243">
            hhcurveto
            -48 -55 -13 -49 -58 hvcurveto
            55 -69 rlineto
            35 44 return
          </CharString>
          <CharString index="244">
            -13 callsubr
            -316 169 callgsubr
            return
          </CharString>
          <CharString index="245">
            7 callsubr
            endchar
          </CharString>
          <CharString index="246">
            -55 -61 -87 hhcurveto
            -98 callgsubr
            return
          </CharString>
          <CharString index="247">
            rmoveto
            -61 -25 -31 -64 -59 hhcurveto
            -49 -42 42 64 82 54 61 79 40 30 -21 -30 32 hvcurveto
            -12 -26 -9 -24 -8 -23 rrcurveto
            return
          </CharString>
          <CharString index="248">
            88 24 callgsubr
          </CharString>
          <CharString index="249">
            89 -57 -81 callsubr
            return
          </CharString>
          <CharString index="250">
            hlineto
            151 callsubr
            return
          </CharString>
          <CharString index="251">
            -97 -55 154 return
          </CharString>
          <CharString index="252">
            -362 166 callsubr
            105 callgsubr
            return
          </CharString>
          <CharString index="253">
            rlineto
            -18 -14 -9 -13 -15 vvcurveto
            -47 78 -24 48 26 20 10 17 5 -2 6 -7 142 callgsubr
            return
          </CharString>
          <CharString index="254">
            hhcurveto
            81 -1 callgsubr
            return
          </CharString>
          <CharString index="255">
            -22 -27 -28 -12 -31 hhcurveto
            -31 -22 16 49 hvcurveto
            return
          </CharString>
          <CharString index="256">
            220 callgsubr
            -21 1 return
          </CharString>
          <CharString index="257">
            rmoveto
            -26 callsubr
            return
          </CharString>
          <CharString index="258">
            38 121 callgsubr
            -25 return
          </CharString>
          <CharString index="259">
            rmoveto
            -234 -41 234 hlineto
            return
          </CharString>
          <CharString index="260">
            15 159 callsubr
            return
          </CharString>
          <CharString index="261">
            96 callgsubr
            -56 33 -51 38 -32 vhcurveto
            -52 -14 -53 -44 -74 vvcurveto
            -69 34 -56 50 -42 vhcurveto
            return
          </CharString>
          <CharString index="262">
            -95 callsubr
            357 -98 -166 183 callgsubr
            21 -48 58 -53 hvcurveto
            -39 -31 -26 -44 -51 vvcurveto
            return
          </CharString>
          <CharString index="263">
            82 -76 63 -64 -67 -44 -54 -61 -45 23 -36 16 -18 vhcurveto
            76 callgsubr
            return
          </CharString>
          <CharString index="264">
            rlineto
            -17 225 callgsubr
            -48 79 -23 47 26 21 10 16 110 callsubr
            return
          </CharString>
          <CharString index="265">
            -40 32 -35 41 53 vvcurveto
            56 29 56 52 40 13 -42 -37 return
          </CharString>
          <CharString index="266">
            13 -2 -4 14 vhcurveto
            return
          </CharString>
          <CharString index="267">
            -9 -13 -14 vvcurveto
            -48 78 -23 48 26 20 9 17 6 -2 5 -7 9 264 callsubr
            32 -11 14 return
          </CharString>
          <CharString index="268">
            -270 hlineto
            174 callgsubr
            return
          </CharString>
          <CharString index="269">
            12 hvcurveto
            56 38 44 276 callgsubr
            -98 return
          </CharString>
          <CharString index="270">
            -51 218 callsubr
            return
          </CharString>
          <CharString index="271">
            hhcurveto
            -44 -38 34 59 hvcurveto
            return
          </CharString>
          <CharString index="272">
            hhcurveto
            -98 callgsubr
            45 22 53 vvcurveto
            30 -22 56 -47 34 vhcurveto
            return
          </CharString>
          <CharString index="273">
            -37 callsubr
            123 -229 -208 126 hlineto
            return
          </CharString>
          <CharString index="274">
            -124 113 -116 90 -77 return
          </CharString>
          <CharString index="275">
            183 callsubr
            157 vlineto
            return
          </CharString>
          <CharString index="276">
            hlineto
            -28 callgsubr
            return
          </CharString>
          <CharString index="277">
            22 -30 -39 hvcurveto
            return
          </CharString>
          <CharString index="278">
            80 rmoveto
            269 callsubr
            28 17 -17 -25 -52 -49 -35 -50 -11 vhcurveto
            return
          </CharString>
          <CharString index="279">
            -45 -88 -7 hvcurveto
            -21 -27 -32 -12 -43 218 callsubr
            527 vlineto
            return
          </CharString>
          <CharString index="280">
            -42 callgsubr
            -43 -31 return
          </CharString>
          <CharString index="281">
            -75 callsubr
            -26 13 return
          </CharString>
          <CharString index="282">
            -45 callgsubr
            -17 return
          </CharString>
          <CharString index="283">
            rmoveto
            -315 hlineto
            44 -72 rlineto
            75 112 callgsubr
            151 vlineto
            endchar
          </CharString>
          <CharString index="284">
            12 22 19 6 18 hhcurveto
            69 54 -81 -78 40 hvcurveto
            return
          </CharString>
          <CharString index="285">
            -81 callsubr
            -49 72 rlineto
            return
          </CharString>
          <CharString index="286">
            rmoveto
            165 181 vlineto
            -46 72 rlineto
            return
          </CharString>
          <CharString index="287">
            -5 126 callgsubr
            return
          </CharString>
          <CharString index="288">
            170 callsubr
            -167 return
          </CharString>
          <CharString index="289">
            vvcurveto
            44 35 9 50 vhcurveto
            return
          </CharString>
          <CharString index="290">
            88 -57 rlineto
            603 return
          </CharString>
          <CharString index="291">
            -95 callsubr
            104 return
          </CharString>
          <CharString index="292">
            hlineto
            48 -72 rlineto
            return
          </CharString>
          <CharString index="293">
            -48 72 rlineto
            200 callsubr
            return
          </CharString>
          <CharString index="294">
            -64 44 -56 120 callgsubr
            216 99 callsubr
            return
          </CharString>
          <CharString index="295">
            rmoveto
            231 callsubr
            22 21 rlineto
            endchar
          </CharString>
          <CharString index="296">
            -92 431 663 rmoveto
            -421 -701 rlineto
            47 hlineto
            421 701 rlineto
            endchar
          </CharString>
          <CharString index="297">
            92 callsubr
            104 207 callgsubr
            return
          </CharString>
          <CharString index="298">
            181 -192 rlineto
            -26 -26 -39 -14 -34 hhcurveto
            return
          </CharString>
          <CharString index="299">
            41 170 callsubr
            return
          </CharString>
          <CharString index="300">
            19 244 callgsubr
            return
          </CharString>
          <CharString index="301">
            -3 -11 -1 -13 return
          </CharString>
          <CharString index="302">
            22 -18 74 -56 20 -13 42 49 rcurveline
            -22 13 -76 51 -24 18 rrcurveto
            35 48 return
          </CharString>
          <CharString index="303">
            144 callgsubr
            134 callgsubr
            return
          </CharString>
          <CharString index="304">
            -84 -95 hlineto
            -123 -62 -69 -91 return
          </CharString>
          <CharString index="305">
            -43 -41 -25 -29 -24 hvcurveto
            return
          </CharString>
          <CharString index="306">
            -95 callsubr
            354 return
          </CharString>
          <CharString index="307">
            -604 185 callsubr
            355 -116 257 callgsubr
            return
          </CharString>
          <CharString index="308">
            -29 4 -27 229 callsubr
            return
          </CharString>
          <CharString index="309">
            -606 -95 callsubr
            343 -113 -105 hlineto
            -118 -60 -76 -90 return
          </CharString>
          <CharString index="310">
            hlineto
            101 -48 -71 141 -131 hhcurveto
            -23 -34 -10 -16 -25 hvcurveto
            endchar
          </CharString>
          <CharString index="311">
            68 hvcurveto
            52 53 39 34 hhcurveto
            34 14 -24 return
          </CharString>
          <CharString index="312">
            -46 217 callsubr
            return
          </CharString>
          <CharString index="313">
            277 callgsubr
            -60 return
          </CharString>
          <CharString index="314">
            -61 -60 vvcurveto
            -51 return
          </CharString>
          <CharString index="315">
            vhcurveto
            45 31 rlineto
            return
          </CharString>
          <CharString index="316">
            -50 -33 30 45 55 66 24 40 6 hvcurveto
            16 -5 17 -4 17 -2 return
          </CharString>
          <CharString index="317">
            hhcurveto
            -43 -49 15 36 -46 hvcurveto
            -29 -37 rlineto
            -62 66 68 -28 64 hhcurveto
            return
          </CharString>
          <CharString index="318">
            -148 501 557 rmoveto
            -46 72 rlineto
            -521 213 callsubr
            return
          </CharString>
          <CharString index="319">
            3 -28 10 rrcurveto
            endchar
          </CharString>
          <CharString index="320">
            hlineto
            46 -72 rlineto
            return
          </CharString>
          <CharString index="321">
            64 55 42 72 11 hvcurveto
            97 hlineto
            -50 74 rlineto
            -386 hlineto
            50 return
          </CharString>
          <CharString index="322">
            hlineto
            60 22 -12 -45 7 hvcurveto
            34 2 return
          </CharString>
          <CharString index="323" raw="1">
            f79c1d57 0a0b  
          </CharString>
          <CharString index="324">
            rmoveto
            -72 callsubr
            -49 72 rlineto
            return
          </CharString>
          <CharString index="325">
            -57 callsubr
            214 return
          </CharString>
          <CharString index="326">
            -6 -203 90 -55 185 callgsubr
            return
          </CharString>
          <CharString index="327">
            -62 -59 vvcurveto
            -52 -31 -28 -49 return
          </CharString>
          <CharString index="328">
            5 14 14 2 12 hhcurveto
            90 return
          </CharString>
          <CharString index="329">
            -544 hlineto
            89 -59 rlineto
            return
          </CharString>
          <CharString index="330">
            rmoveto
            -44 -38 34 59 hvcurveto
            return
          </CharString>
          <CharString index="331">
            -668 -95 callsubr
            return
          </CharString>
          <CharString index="332">
            hhcurveto
            -89 -64 -38 -76 return
          </CharString>
          <CharString index="333">
            48 22 57 62 vvcurveto
            return
          </CharString>
          <CharString index="334">
            89 -55 rlineto
            603 return
          </CharString>
          <CharString index="335">
            -112 -97 hlineto
            return
          </CharString>
          <CharString index="336">
            hhcurveto
            -10 -12 -1 -1 -9 hvcurveto
            -24 18 -21 23 33 vvcurveto
            38 return
          </CharString>
          <CharString index="337">
            89 83 61 79 82 -75 63 -65 -66 -44 -51 -61 -45 22 return
          </CharString>
          <CharString index="338">
            -43 hlineto
            -127 -126 23 -21 125 76 127 -76 return
          </CharString>
          <CharString index="339">
            -38 -28 -37 -30 return
          </CharString>
          <CharString index="340">
            11 vhcurveto
            78 78 callsubr
            -315 -95 callsubr
            return
          </CharString>
          <CharString index="341">
            -36 -21 -10 -44 -6 vhcurveto
            -4 -40 callgsubr
            return
          </CharString>
          <CharString index="342">
            hlineto
            50 -75 90 callsubr
            return
          </CharString>
          <CharString index="343">
            -5 -172 274 callgsubr
          </CharString>
          <CharString index="344">
            46 callsubr
            152 vlineto
            return
          </CharString>
          <CharString index="345">
            46 callsubr
            150 vlineto
            return
          </CharString>
          <CharString index="346">
            14 42 29 27 -5 -4 17 hvcurveto
            return
          </CharString>
          <CharString index="347">
            11 1 14 12 vvcurveto
            return
          </CharString>
          <CharString index="348">
            -124 121 hhcurveto
            return
          </CharString>
          <CharString index="349">
            -149 -165 hlineto
            return
          </CharString>
          <CharString index="350">
            48 30 23 53 return
          </CharString>
          <CharString index="351">
            vlineto
            -48 72 rlineto
            return
          </CharString>
          <CharString index="352">
            hhcurveto
            -38 273 callgsubr
            return
          </CharString>
          <CharString index="353">
            18 -31 27 41 vvcurveto
            49 38 40 48 vhcurveto
            endchar
          </CharString>
          <CharString index="354">
            25 -1 25 5 22 9 return
          </CharString>
          <CharString index="355">
            78 rlineto
            6 -28 return
          </CharString>
          <CharString index="356">
            88 -57 178 callsubr
            return
          </CharString>
          <CharString index="357">
            201 -212 rlineto
            -30 -29 -39 -19 -43 hhcurveto
            return
          </CharString>
          <CharString index="358">
            11 -22 14 -22 vhcurveto
            0 -25 -25 -50 -74 -65 return
          </CharString>
          <CharString index="359">
            162 callsubr
            84 return
          </CharString>
          <CharString index="360">
            175 557 rmoveto
            148 hlineto
            -41 72 rlineto
            return
          </CharString>
          <CharString index="361">
            -87 -79 54 85 99 91 14 52 vhcurveto
            143 return
          </CharString>
          <CharString index="362">
            vlineto
            88 -60 rlineto
            603 159 vlineto
            endchar
          </CharString>
          <CharString index="363">
            hhcurveto
            51 callsubr
            return
          </CharString>
          <CharString index="364">
            30 39 45 29 16 -17 -25 return
          </CharString>
          <CharString index="365">
            228 callgsubr
            -18 -19 13 return
          </CharString>
          <CharString index="366">
            hhcurveto
            -76 -59 -58 -74 -113 return
          </CharString>
          <CharString index="367">
            89 -59 rlineto
            603 return
          </CharString>
          <CharString index="368" raw="1">
            f7d807c7 ab0b  
          </CharString>
          <CharString index="369">
            10 13 17 hvcurveto
            87 return
          </CharString>
          <CharString index="370">
            vlineto
            -50 72 rlineto
            return
          </CharString>
          <CharString index="371">
            vhcurveto
            -2 5 -28 return
          </CharString>
          <CharString index="372">
            180 callsubr
            60 return
          </CharString>
          <CharString index="373">
            219 callgsubr
            69 return
          </CharString>
          <CharString index="374">
            2 callsubr
            -297 return
          </CharString>
          <CharString index="375">
            26 21 10 17 5 -3 6 -6 8 vhcurveto
            return
          </CharString>
          <CharString index="376">
            -13 193 callgsubr
            42 29 39 46 return
          </CharString>
          <CharString index="377">
            -36 callgsubr
            45 return
          </CharString>
          <CharString index="378">
            126 callsubr
            -16 vlineto
            return
          </CharString>
          <CharString index="379">
            34 174 rlineto
            -68 hlineto
            -34 -174 rlineto
            return
          </CharString>
          <CharString index="380">
            25 26 -18 19 -26 -25 -19 -19 -26 vhcurveto
            return
          </CharString>
          <CharString index="381">
            42 18 8 11 return
          </CharString>
          <CharString index="382">
            vlineto
            -49 72 rlineto
            return
          </CharString>
          <CharString index="383">
            193 72 rmoveto
            return
          </CharString>
        <CharString name=".notdef">
          170 171 -46 rmoveto
          410 701 -410 hlineto
          66 -61 rmoveto
          279 -578 -279 hlineto
          endchar
        </CharString>
        <CharString name="A">
          14 186 257 -102 callsubr
        </CharString>
        <CharString name="AE">
          264 259 257 rmoveto
          118 187 34 62 rlineto
          -249 vlineto
          97 -214 rmoveto
          249 vlineto
          138 -6 rlineto
          34 60 -34 hlineto
          -138 -9 rlineto
          244 152 vlineto
          70 9 -40 -69 6 hvcurveto
          11 21 1 1 7 hvcurveto
          6 49 1 50 -2 50 rrcurveto
          -444 hlineto
          -3 38 callgsubr
          rrcurveto
          19 22 -3 -7 20 hvcurveto
          -303 -478 -21 -32 -21 -21 -49 -6 rlinecurve
          -3 -11 -2 -15 1 -13 rrcurveto
          190 hlineto
          3 12 1 14 13 vvcurveto
          -24 2 -19 7 -21 12 96 151 rcurveline
          181 -123 hlineto
          -36 -21 -9 -42 -6 vhcurveto
          -5 -50 callgsubr
          459 hlineto
          2 52 -1 49 -4 52 -9 2 -21 1 -12 -1 rrcurveto
          -72 -7 -10 -40 -70 hhcurveto
          endchar
        </CharString>
        <CharString name="Aacute">
          14 462 799 -48 callsubr
          -121 -405 -102 callsubr
        </CharString>
        <CharString name="Abreve">
          14 390 827 -9 callsubr
          -234 -570 -102 callsubr
        </CharString>
        <CharString name="Acircumflex">
          14 297 742 20 callsubr
          14 -409 -102 callsubr
        </CharString>
        <CharString name="Adieresis">
          14 370 682 -77 callsubr
          -38 -425 -102 callsubr
        </CharString>
        <CharString name="Agrave">
          14 330 684 -2 callgsubr
          -117 -411 -102 callsubr
        </CharString>
        <CharString name="Amacron">
          14 414 729 152 callsubr
          -228 -431 -102 callsubr
        </CharString>
        <CharString name="Aogonek">
          14 186 257 rmoveto
          79 248 9 42 92 -290 rlineto
          257 -387 rmoveto
          47 callgsubr
          -1 1 3 11 1 12 1 13 rlinecurve
          -46 3 -21 13 -13 42 -175 541 rcurveline
          -29 -1 -40 -3 -23 -7 -176 -529 rcurveline
          -11 -31 -18 -20 -45 -8 rrcurveto
          194 callsubr
          -13 vvcurveto
          196 hlineto
          2 12 2 12 13 vvcurveto
          -29 1 -25 2 -22 12 50 159 rcurveline
          208 hlineto
          48 -151 -20 -12 -26 -6 -26 -5 rlinecurve
          -3 -12 -1 -12 -13 vvcurveto
          171 hlineto
          -60 -31 -27 -43 -46 50 callgsubr
          endchar
        </CharString>
        <CharString name="Aring">
          14 298 782 1 callsubr
          -112 -409 -102 callsubr
        </CharString>
        <CharString name="Atilde">
          14 410 804 7 callgsubr
          -255 -547 -102 callsubr
        </CharString>
        <CharString name="B">
          4 200 43 rmoveto
          253 89 vlineto
          96 43 -52 -75 -74 -43 -52 -96 hvcurveto
          -89 297 rmoveto
          241 70 vlineto
          91 40 -51 -71 -60 -34 -41 -53 -19 hvcurveto
          -276 284 rmoveto
          -28 callgsubr
          rrcurveto
          21 26 -4 -10 21 hvcurveto
          -484 vlineto
          -36 -21 -9 -42 -6 vhcurveto
          -3 -50 callgsubr
          255 hlineto
          165 75 76 93 72 -41 64 -80 20 hvcurveto
          57 25 36 45 64 vvcurveto
          86 -60 78 -174 vhcurveto
          endchar
        </CharString>
        <CharString name="C">
          -40 callsubr
          -204 140 -114 154 87 73 36 54 52 hvcurveto
          endchar
        </CharString>
        <CharString name="CR">
          -333 endchar
        </CharString>
        <CharString name="Cacute">
          -40 callsubr
          -204 140 -114 154 87 73 36 54 52 hvcurveto
          -196 599 -39 callgsubr
        </CharString>
        <CharString name="Ccaron">
          -40 callsubr
          -204 140 -114 154 87 73 36 54 52 hvcurveto
          -31 720 rmoveto
          -47 callgsubr
          73 hlineto
          endchar
        </CharString>
        <CharString name="Ccedilla">
          -40 callsubr
          -168 95 -107 119 -32 hvcurveto
          -21 -103 103 callgsubr
          -1 hlineto
          12 55 rlineto
          5 5 0 5 hhcurveto
          87 73 36 54 52 hvcurveto
          endchar
        </CharString>
        <CharString name="D">
          43 201 43 rmoveto
          538 69 vlineto
          21 callsubr
          -485 vlineto
          117 callsubr
        </CharString>
        <CharString name="Dcaron">
          43 347 668 rmoveto
          111 130 -47 callgsubr
          -73 -625 rmoveto
          538 69 vlineto
          21 callsubr
          -485 vlineto
          117 callsubr
        </CharString>
        <CharString name="Dcroat">
          4 callsubr
        </CharString>
        <CharString name="E">
          -42 202 43 -100 callgsubr
        </CharString>
        <CharString name="Eacute">
          -42 455 798 -48 callsubr
          -98 -618 -100 callgsubr
        </CharString>
        <CharString name="Ecaron">
          -42 327 669 rmoveto
          111 130 -47 callgsubr
          -52 -626 -100 callgsubr
        </CharString>
        <CharString name="Ecircumflex">
          -42 289 742 20 callsubr
          38 -623 -100 callgsubr
        </CharString>
        <CharString name="Edieresis">
          -42 359 682 -77 callsubr
          -11 -639 -100 callgsubr
        </CharString>
        <CharString name="Edotaccent">
          -42 290 673 30 callgsubr
          -88 -630 -100 callgsubr
        </CharString>
        <CharString name="Egrave">
          -42 324 684 -2 callgsubr
          -95 -625 -100 callgsubr
        </CharString>
        <CharString name="Emacron">
          -42 407 729 152 callsubr
          -205 -645 -100 callgsubr
        </CharString>
        <CharString name="Eogonek">
          -42 524 -130 rmoveto
          47 callgsubr
          2 52 -1 49 -4 52 -9 2 -21 1 -12 -1 rrcurveto
          -72 -7 -10 -40 -70 hhcurveto
          -162 249 hlineto
          155 -6 rlineto
          34 60 -34 hlineto
          -155 -9 rlineto
          244 152 vlineto
          70 9 -40 -69 6 hvcurveto
          11 21 1 1 7 hvcurveto
          6 49 1 50 -2 50 rrcurveto
          -444 25 callsubr
          26 -4 -10 21 hvcurveto
          -484 vlineto
          -36 -21 -9 -42 -73 callgsubr
          386 hlineto
          -60 -31 -27 -43 -46 50 callgsubr
          endchar
        </CharString>
        <CharString name="Eth">
          4 callsubr
        </CharString>
        <CharString name="Euro">
          11 536 103 rmoveto
          -33 -49 -54 -15 -58 hhcurveto
          -101 -83 63 123 -24 hvcurveto
          217 hlineto
          8 42 rlineto
          -230 hlineto
          -1 10 0 10 10 vvcurveto
          10 0 10 1 10 vhcurveto
          222 hlineto
          8 41 rlineto
          -225 hlineto
          124 22 80 71 106 hhcurveto
          72 47 -46 -73 2 hvcurveto
          -1 3 25 0 2 hhcurveto
          11 49 6 52 1 44 rrcurveto
          19 -39 -67 13 -60 hhcurveto
          -154 -130 -97 -155 -33 hvcurveto
          -52 hlineto
          -7 -41 rlineto
          53 hlineto
          -1 -12 -1 -12 -13 vvcurveto
          -8 0 -7 1 -8 vhcurveto
          -45 hlineto
          -7 -42 rlineto
          56 hlineto
          -163 26 126 -90 137 hhcurveto
          87 73 36 54 52 hvcurveto
          endchar
        </CharString>
        <CharString name="F">
          -71 39 623 rmoveto
          106 callgsubr
          26 -4 -10 21 hvcurveto
          -482 vlineto
          234 callsubr
          266 hlineto
          2 241 callgsubr
          -33 4 -38 5 -32 12 rrcurveto
          213 vlineto
          147 -6 rlineto
          36 60 -36 hlineto
          -147 -9 rlineto
          264 153 vlineto
          69 9 -40 -69 6 hvcurveto
          11 21 1 1 7 hvcurveto
          6 49 1 50 -2 50 rrcurveto
          endchar
        </CharString>
        <CharString name="G">
          66 402 311 -56 callsubr
        </CharString>
        <CharString name="Gbreve">
          66 443 827 -9 callsubr
          -71 -516 -56 callsubr
        </CharString>
        <CharString name="H">
          96 576 536 rmoveto
          35 20 10 43 67 callsubr
          -230 169 callsubr
          21 -1 23 -3 24 -9 rrcurveto
          -237 -276 200 vlineto
          -97 callsubr
          235 276 -198 vlineto
          -36 -21 -9 -42 -6 vhcurveto
          -3 -10 0 -15 -12 vvcurveto
          230 hlineto
          2 240 callsubr
          -22 1 -24 3 -23 10 rrcurveto
          endchar
        </CharString>
        <CharString name="I">
          48 callsubr
          endchar
        </CharString>
        <CharString name="Iacute">
          48 callsubr
          -65 627 -39 callgsubr
        </CharString>
        <CharString name="Icircumflex">
          48 callsubr
          -27 762 188 callsubr
        </CharString>
        <CharString name="Idieresis">
          -277 226 682 -77 callsubr
          122 -146 rmoveto
          -97 callsubr
          endchar
        </CharString>
        <CharString name="Idotaccent">
          -277 153 673 30 callgsubr
          49 -137 rmoveto
          -97 callsubr
          endchar
        </CharString>
        <CharString name="Igrave">
          -277 187 684 -2 callgsubr
          42 -132 rmoveto
          -97 callsubr
          endchar
        </CharString>
        <CharString name="Imacron">
          -277 270 729 152 callsubr
          -68 -152 rmoveto
          -97 callsubr
          endchar
        </CharString>
        <CharString name="Iogonek">
          -277 295 -130 rmoveto
          47 callgsubr
          2 11 2 14 -1 12 -21 1 -23 3 -24 10 rrcurveto
          485 vlineto
          -8 callgsubr
          -229 25 callsubr
          99 callgsubr
          -484 vlineto
          -36 -21 -9 -42 -73 callgsubr
          157 hlineto
          -60 -31 -27 -43 -46 50 callgsubr
          endchar
        </CharString>
        <CharString name="J">
          -286 39 623 rmoveto
          106 callgsubr
          99 callgsubr
          -549 vlineto
          -95 -16 -62 -99 -55 vhcurveto
          5 -9 10 -11 7 -7 rrcurveto
          116 35 74 70 135 vvcurveto
          512 vlineto
          -8 callgsubr
          endchar
        </CharString>
        <CharString name="K">
          58 354 305 -27 callgsubr
        </CharString>
        <CharString name="L">
          -60 201 43 -60 callsubr
        </CharString>
        <CharString name="Lacute">
          -60 323 798 -48 callsubr
          33 -618 -60 callsubr
        </CharString>
        <CharString name="Lcaron">
          -60 323 511 7 callsubr
          -97 -485 -60 callsubr
        </CharString>
        <CharString name="Lslash">
          -63 201 43 rmoveto
          265 vlineto
          111 38 -3 16 -4 16 -10 13 rlinecurve
          -94 -32 rlineto
          177 vlineto
          35 21 10 41 5 vhcurveto
          4 -21 callsubr
          24 -3 23 -10 rrcurveto
          -246 vlineto
          -92 -32 3 -18 4 -14 10 -12 rlinecurve
          75 25 rlineto
          -187 vlineto
          -36 -21 -9 -42 -73 callgsubr
          460 hlineto
          3 49 -2 50 -5 50 rrcurveto
          1 -8 -16 0 -11 hhcurveto
          -68 -6 -10 -39 -68 hhcurveto
          endchar
        </CharString>
        <CharString name="M">
          259 712 533 rmoveto
          -2 38 21 11 33 4 1 13 -1 12 -3 12 rrcurveto
          -167 hlineto
          -180 -457 -162 457 rlineto
          -173 hlineto
          -4 -11 -1 -13 1 -14 22 -1 13 -3 18 -7 -32 -482 rcurveline
          -2 -36 -29 -13 -41 -6 194 callsubr
          -1 -13 rrcurveto
          203 hlineto
          2 12 2 14 1 11 -24 1 -27 2 -23 9 35 495 rcurveline
          32 -92 163 -452 rlineto
          29 hlineto
          180 452 32 86 22 -450 1 -37 -31 -8 -41 -6 rlinecurve
          -1 -11 0 -13 1 -13 rrcurveto
          243 hlineto
          1 12 0 14 -1 11 -25 1 -23 3 -26 9 rrcurveto
          endchar
        </CharString>
        <CharString name="N">
          107 459 623 -84 callgsubr
        </CharString>
        <CharString name="NULL">
          -583 endchar
        </CharString>
        <CharString name="Nacute">
          107 525 799 -48 callsubr
          89 -39 -84 callgsubr
        </CharString>
        <CharString name="Ncaron">
          107 397 669 rmoveto
          111 130 -47 callgsubr
          135 -46 -84 callgsubr
        </CharString>
        <CharString name="Ntilde">
          107 473 804 7 callgsubr
          -45 -181 -84 callgsubr
        </CharString>
        <CharString name="O">
          92 507 311 42 callgsubr
        </CharString>
        <CharString name="OE">
          320 458 73 rmoveto
          -26 -33 -29 -10 -47 hhcurveto
          -115 -58 97 176 -8 hvcurveto
          156 -8 57 119 121 hhcurveto
          47 37 -12 -22 36 hvcurveto
          97 -508 rmoveto
          249 vlineto
          138 -6 rlineto
          34 60 -34 hlineto
          -138 -9 rlineto
          244 152 vlineto
          70 9 -40 -69 6 hvcurveto
          11 21 1 1 7 hvcurveto
          6 49 1 50 -2 50 rrcurveto
          -363 hlineto
          8 -43 -39 5 -46 hhcurveto
          -172 -119 -136 -190 -191 111 -132 172 53 42 6 7 42 hvcurveto
          375 hlineto
          2 52 -1 49 -4 52 -9 2 -21 1 -12 -1 rrcurveto
          -72 -7 -10 -40 -70 hhcurveto
          endchar
        </CharString>
        <CharString name="Oacute">
          91 507 311 -88 callgsubr
          -16 690 -39 callgsubr
        </CharString>
        <CharString name="Ocircumflex">
          91 507 311 -88 callgsubr
          148 700 98 callgsubr
        </CharString>
        <CharString name="Odieresis">
          91 507 311 -88 callgsubr
          117 745 rmoveto
          37 callgsubr
          -146 hmoveto
          37 callgsubr
          endchar
        </CharString>
        <CharString name="Ograve">
          92 265 856 132 callgsubr
          136 -373 42 callgsubr
        </CharString>
        <CharString name="Ohungarumlaut">
          92 507 311 -88 callgsubr
          -100 698 34 callsubr
        </CharString>
        <CharString name="Omacron">
          92 507 311 -88 callgsubr
          -117 701 192 callgsubr
        </CharString>
        <CharString name="Oslash">
          91 484 451 rmoveto
          13 -39 7 -47 3 -54 rrcurveto
          -163 7 -51 -111 -114 hhcurveto
          -59 -44 26 49 -30 hvcurveto
          -24 51 rmoveto
          -13 40 -8 49 -3 58 rrcurveto
          156 -8 50 119 114 hhcurveto
          61 46 -29 -53 30 hvcurveto
          169 132 rmoveto
          -64 hlineto
          -50 -63 rlineto
          41 -47 -61 23 -71 hhcurveto
          -173 -110 -136 -190 -95 24 -81 47 -57 hvcurveto
          -72 -90 rlineto
          64 hlineto
          44 55 rlineto
          -35 44 59 -20 73 hhcurveto
          171 114 132 191 90 -26 78 -45 57 hvcurveto
          endchar
        </CharString>
        <CharString name="Otilde">
          92 237 695 49 callgsubr
          302 -384 42 callgsubr
        </CharString>
        <CharString name="P">
          -37 201 304 rmoveto
          276 75 vlineto
          97 46 -57 -82 -78 -47 -59 -96 hvcurveto
          -238 319 rmoveto
          -28 callgsubr
          rrcurveto
          22 23 -5 -9 24 hvcurveto
          -484 vlineto
          -36 -21 -9 -42 -73 callgsubr
          255 hlineto
          3 240 callsubr
          -32 2 -34 6 -29 12 rrcurveto
          205 95 vlineto
          140 91 80 99 101 -92 81 -140 hvcurveto
          endchar
        </CharString>
        <CharString name="Q">
          92 168 310 rmoveto
          178 -4 62 101 104 hhcurveto
          103 71 -83 -195 3 hvcurveto
          -187 4 -63 -90 -105 hhcurveto
          -104 -68 75 201 -3 hvcurveto
          393 -385 rmoveto
          -12 -30 -39 -8 -26 hhcurveto
          -36 -24 39 48 -12 hvcurveto
          139 26 89 123 169 vvcurveto
          190 -114 136 -171 -173 -110 -136 -190 -175 93 -126 148 -19 vhcurveto
          -76 19 56 -68 65 hhcurveto
          54 48 22 28 39 hvcurveto
          endchar
        </CharString>
        <CharString name="R">
          23 202 331 -78 callsubr
        </CharString>
        <CharString name="Racute">
          23 474 798 -48 callsubr
          -117 -330 -78 callsubr
        </CharString>
        <CharString name="Rcaron">
          23 346 668 rmoveto
          111 130 -47 callgsubr
          -71 -337 -78 callsubr
        </CharString>
        <CharString name="S">
          -93 -71 callsubr
          endchar
        </CharString>
        <CharString name="Sacute">
          -93 -71 callsubr
          -175 74 -39 callgsubr
        </CharString>
        <CharString name="Scaron">
          -60 -71 callsubr
          6 195 rmoveto
          -47 callgsubr
          73 hlineto
          endchar
        </CharString>
        <CharString name="T">
          -47 19 623 -35 callsubr
        </CharString>
        <CharString name="Tcaron">
          -47 305 669 rmoveto
          111 130 -47 callgsubr
          -213 -46 -35 callsubr
        </CharString>
        <CharString name="Thorn">
          -24 202 200 rmoveto
          235 90 vlineto
          85 44 -42 -76 -75 -49 -42 -80 hvcurveto
          -90 279 rmoveto
          57 vlineto
          -97 callsubr
          107 111 vlineto
          134 82 62 97 99 -82 63 -134 hvcurveto
          endchar
        </CharString>
        <CharString name="U">
          92 414 623 -100 callsubr
        </CharString>
        <CharString name="Uacute">
          101 495 798 -48 callsubr
          74 -38 -100 callsubr
        </CharString>
        <CharString name="Ucircumflex">
          101 329 742 20 callsubr
          210 -43 -100 callsubr
        </CharString>
        <CharString name="Udieresis">
          101 397 682 -77 callsubr
          163 -59 -100 callsubr
        </CharString>
        <CharString name="Ugrave">
          92 373 684 -2 callgsubr
          68 -45 -100 callsubr
        </CharString>
        <CharString name="Uhungarumlaut">
          92 394 675 113 callsubr
          141 -52 -100 callsubr
        </CharString>
        <CharString name="Umacron">
          92 457 729 152 callsubr
          -43 -65 -100 callsubr
        </CharString>
        <CharString name="Uogonek">
          92 414 623 rmoveto
          63 callgsubr
          23 -9 rrcurveto
          -372 vlineto
          -115 -57 -46 -82 -83 -58 45 116 vhcurveto
          335 vlineto
          35 21 10 42 5 vhcurveto
          3 -21 callsubr
          23 -3 24 -10 rrcurveto
          -367 vlineto
          -156 102 -61 136 vhcurveto
          2 hlineto
          -45 -29 -21 -39 -40 88 callsubr
          36 19 33 52 26 hvcurveto
          0 vlineto
          85 25 57 63 117 vvcurveto
          331 vlineto
          35 20 10 43 67 callsubr
          endchar
        </CharString>
        <CharString name="Uring">
          92 340 782 1 callsubr
          74 -43 -100 callsubr
        </CharString>
        <CharString name="V">
          31 436 623 rmoveto
          -3 -12 0 -12 -13 vvcurveto
          28 -2 20 -4 22 -9 -168 -448 rcurveline
          -4 hlineto
          -4 23 -7 20 -8 20 -134 345 rcurveline
          -15 38 13 12 57 5 rrcurveto
          13 0 13 -3 11 vhcurveto
          -228 hlineto
          -2 -13 2 -10 2 -14 18 -2 18 -3 18 -6 232 -581 rcurveline
          37 hlineto
          211 539 14 36 22 11 33 6 rlinecurve
          4 13 1 11 1 13 rrcurveto
          endchar
        </CharString>
        <CharString name="W">
          323 748 623 rmoveto
          -3 -12 -2 -12 -1 -13 22 -2 17 -6 18 -7 -131 -431 rcurveline
          -2 hlineto
          -2 23 -5 20 -7 19 -139 389 rcurveline
          -36 hlineto
          -178 -448 rlineto
          -3 hlineto
          -2 23 -5 21 -6 20 -100 324 rcurveline
          -12 37 12 13 61 5 rrcurveto
          13 -1 10 -4 14 vhcurveto
          -234 hlineto
          -1 -13 1 -10 2 -14 18 -1 18 -4 19 -6 183 -581 rcurveline
          37 hlineto
          181 447 162 -447 rlineto
          36 hlineto
          173 536 12 39 17 10 36 7 rlinecurve
          2 13 1 11 -1 13 rrcurveto
          endchar
        </CharString>
        <CharString name="X">
          29 352 326 rmoveto
          156 213 24 33 19 11 32 3 rlinecurve
          5 11 2 12 -1 14 rrcurveto
          -172 hlineto
          -2 -11 0 -14 2 -12 22 -1 19 -4 19 -7 -153 -208 rcurveline
          -126 181 -15 21 5 13 51 6 rlinecurve
          11 0 14 -4 11 vhcurveto
          -213 hlineto
          -3 -11 2 -14 3 -12 12 -1 13 -3 14 -4 195 -279 rcurveline
          -151 -215 -26 -32 -18 -12 -33 -3 rlinecurve
          -4 -11 -2 -13 1 -13 rrcurveto
          172 hlineto
          2 12 -1 13 -1 12 -21 1 -20 4 -20 7 150 210 rcurveline
          128 -183 15 -22 -6 -11 -50 -6 rlinecurve
          -11 -1 -15 5 -11 vhcurveto
          213 hlineto
          1 12 -2 16 -2 9 -12 2 -14 3 -13 4 rrcurveto
          endchar
        </CharString>
        <CharString name="Y">
          14 428 623 -64 callsubr
        </CharString>
        <CharString name="Yacute">
          14 478 799 -48 callsubr
          105 -39 -64 callsubr
        </CharString>
        <CharString name="Ydieresis">
          14 385 682 -77 callsubr
          189 -59 -64 callsubr
        </CharString>
        <CharString name="Z">
          -36 163 51 -55 callgsubr
        </CharString>
        <CharString name="Zacute">
          -36 469 799 -48 callsubr
          -151 -611 -55 callgsubr
        </CharString>
        <CharString name="Zcaron">
          -36 342 669 rmoveto
          111 130 -47 callgsubr
          -106 -618 -55 callgsubr
        </CharString>
        <CharString name="Zdotaccent">
          -36 304 673 30 callgsubr
          -141 -622 -55 callgsubr
        </CharString>
        <CharString name="a">
          -105 289 236 -102 callgsubr
        </CharString>
        <CharString name="aacute">
          -105 403 632 -48 callsubr
          41 -259 -102 callgsubr
        </CharString>
        <CharString name="abreve">
          -105 331 661 -9 callsubr
          -72 -425 -102 callgsubr
        </CharString>
        <CharString name="acircumflex">
          -105 238 576 20 callsubr
          176 -264 -102 callgsubr
        </CharString>
        <CharString name="acute">
          -382 10 513 -39 callgsubr
        </CharString>
        <CharString name="adieresis">
          -105 311 516 -77 callsubr
          124 -280 -102 callgsubr
        </CharString>
        <CharString name="ae">
          148 501 298 rmoveto
          -106 -7 rlineto
          93 15 54 35 45 hhcurveto
          45 40 -32 -88 1 hvcurveto
          -306 -63 rmoveto
          -17 vlineto
          -41 8 -35 13 -30 vhcurveto
          -38 -26 -32 -22 -43 hhcurveto
          -41 -27 25 44 47 27 34 62 17 hvcurveto
          161 32 rmoveto
          290 hlineto
          5 7 5 9 3 8 rrcurveto
          136 -83 57 -93 -52 -59 -22 -46 -43 vhcurveto
          43 -20 -40 25 -57 hhcurveto
          -68 -61 -23 -44 -51 hvcurveto
          19 -28 rlineto
          15 41 41 9 42 hhcurveto
          56 23 -27 -54 hvcurveto
          -40 vlineto
          -101 -22 rlineto
          -100 -21 -49 -43 -78 vvcurveto
          -70 52 -55 85 66 53 39 51 35 vhcurveto
          -61 43 69 -29 60 hhcurveto
          80 62 35 49 45 hvcurveto
          -13 23 rlineto
          -28 -48 -49 -14 -49 hhcurveto
          -85 -54 58 124 hvcurveto
          endchar
        </CharString>
        <CharString name="agrave">
          -105 271 518 -2 callgsubr
          45 -266 -102 callgsubr
        </CharString>
        <CharString name="amacron">
          -105 355 563 152 callsubr
          -66 -286 -102 callgsubr
        </CharString>
        <CharString name="ampersand">
          98 394 130 rmoveto
          -49 -50 -39 -18 -54 hhcurveto
          -66 -39 42 59 52 27 49 81 40 hvcurveto
          39 103 rmoveto
          -31 38 -9 21 35 vvcurveto
          49 35 35 44 44 36 -35 -53 -52 -31 -39 -64 -29 vhcurveto
          171 -212 rmoveto
          68 74 31 31 28 15 41 5 rlinecurve
          3 10 1 16 -1 12 rrcurveto
          -179 hlineto
          -2 -11 -1 -16 -11 vvcurveto
          22 -2 19 -2 20 -8 -76 -81 rcurveline
          -122 151 rlineto
          104 36 67 38 80 vvcurveto
          74 -71 58 -107 -104 -79 -63 -85 -48 21 -33 38 -46 vhcurveto
          20 -26 rlineto
          -113 -36 -72 -62 -93 vvcurveto
          -96 74 -60 97 83 54 34 75 69 vhcurveto
          77 -96 rlineto
          154 hlineto
          4 13 1 13 11 vvcurveto
          -46 3 -32 13 -37 45 rrcurveto
          endchar
        </CharString>
        <CharString name="aogonek">
          -105 289 236 rmoveto
          -149 vlineto
          -25 -24 -26 -9 -30 hhcurveto
          -41 -27 25 44 47 27 34 62 17 hvcurveto
          224 -163 rmoveto
          -3 -15 -11 -2 -11 hhcurveto
          -20 -12 13 39 hvcurveto
          219 vlineto
          91 -48 55 -90 -68 -61 -23 -44 -51 vhcurveto
          19 -28 rlineto
          15 41 41 9 42 hhcurveto
          56 23 -27 -54 hvcurveto
          -40 vlineto
          -101 -22 rlineto
          -100 -21 -49 -43 -78 vvcurveto
          -70 52 -55 83 50 40 23 33 28 vhcurveto
          7 -24 17 -17 21 -8 rrcurveto
          -53 -30 -24 -41 -44 88 callsubr
          34 16 30 45 26 hvcurveto
          21 8 18 17 14 18 rrcurveto
          endchar
        </CharString>
        <CharString name="apostrophemod">
          -405 57 559 -44 callsubr
          endchar
        </CharString>
        <CharString name="approxequal">
          60 89 334 rmoveto
          54 10 35 26 51 74 88 -81 203 callgsubr
          81 -84 hhcurveto
          -83 -66 -51 -106 -10 hvcurveto
          39 -197 rmoveto
          55 10 35 25 51 74 88 -80 203 callgsubr
          80 -84 hhcurveto
          -83 -66 -50 -107 -10 hvcurveto
          endchar
        </CharString>
        <CharString name="aring">
          -105 238 616 1 callsubr
          51 -264 -102 callgsubr
        </CharString>
        <CharString name="asciicircum">
          -93 34 220 rmoveto
          74 hlineto
          137 310 138 -310 rlineto
          73 hlineto
          -179 380 rlineto
          -64 hlineto
          endchar
        </CharString>
        <CharString name="asciitilde">
          60 89 242 rmoveto
          50 10 33 30 49 78 79 -85 102 hhcurveto
          82 61 56 106 10 hvcurveto
          -39 hlineto
          -50 -10 -33 -29 -49 -80 -86 84 -93 hhcurveto
          -82 -61 -56 -106 -10 hvcurveto
          endchar
        </CharString>
        <CharString name="asterisk">
          -113 254 674 rmoveto
          -23 7 -44 -2 -16 -8 21 -126 rcurveline
          -112 50 rlineto
          -13 -13 -11 -44 -22 vvcurveto
          124 -16 -88 -91 12 -19 37 -24 19 -4 rlinecurve
          55 110 61 -109 23 7 34 27 9 16 rlinecurve
          -93 88 123 14 rlineto
          21 -11 45 -12 14 vhcurveto
          -110 -51 rlineto
          endchar
        </CharString>
        <CharString name="at">
          375 543 134 rmoveto
          -48 -28 -31 -37 -44 hhcurveto
          -42 -39 37 112 18 hvcurveto
          104 17 53 56 58 hhcurveto
          45 16 -32 -50 -6 hvcurveto
          95 -15 rmoveto
          97 12 -53 59 -98 hhcurveto
          -116 -102 -98 -128 -22 hvcurveto
          -125 -21 63 -79 89 hhcurveto
          53 46 32 43 31 hvcurveto
          -50 4 34 -24 52 hhcurveto
          130 145 121 179 5 hvcurveto
          182 6 -145 126 -204 hhcurveto
          -283 -223 -206 -262 -7 hvcurveto
          -213 -7 155 -101 166 hhcurveto
          85 68 17 30 69 hvcurveto
          1 16 -5 16 -8 11 rrcurveto
          -19 -60 -60 -10 -71 hhcurveto
          -133 -116 79 179 6 hvcurveto
          217 7 160 187 239 hhcurveto
          178 97 -114 -161 -5 hvcurveto
          -144 -5 -90 -78 -61 hhcurveto
          -26 -4 17 33 4 hvcurveto
          endchar
        </CharString>
        <CharString name="atilde">
          -105 351 638 7 callgsubr
          -93 -402 -102 callgsubr
        </CharString>
        <CharString name="b">
          -55 168 291 rmoveto
          83 10 50 36 48 hhcurveto
          52 57 -40 -134 -136 -59 -60 -69 -32 -29 6 16 -28 hvcurveto
          655 vmoveto
          -62 -6 -47 -12 -50 -20 -4 -10 -2 -14 -1 -12 26 1 23 1 21 -2 rrcurveto
          -528 vlineto
          -38 -6 -39 -15 -34 vhcurveto
          15 -15 22 9 19 14 15 17 rlinecurve
          -27 38 44 -14 45 hhcurveto
          128 114 89 159 156 -95 77 -96 -58 -51 -36 -63 -23 hvcurveto
          endchar
        </CharString>
        <CharString name="backslash">
          -127 88 714 rmoveto
          194 -764 rlineto
          78 hlineto
          -192 764 rlineto
          endchar
        </CharString>
        <CharString name="bar">
          -266 119 714 rmoveto
          -764 78 764 vlineto
          endchar
        </CharString>
        <CharString name="braceleft">
          -163 88 298 rmoveto
          65 -6 19 -33 -49 -59 -35 -55 -74 vvcurveto
          -97 78 -69 171 5 vhcurveto
          34 vlineto
          -117 3 -38 55 66 72 33 49 70 vvcurveto
          63 -30 38 -66 15 vhcurveto
          66 16 30 37 64 69 -33 49 72 vvcurveto
          66 38 55 117 4 vhcurveto
          33 vlineto
          -171 6 -78 -70 -97 -74 35 -55 -59 vvcurveto
          -49 -19 -33 -65 -6 vhcurveto
          endchar
        </CharString>
        <CharString name="braceright">
          -163 249 442 rmoveto
          59 34 55 74 vvcurveto
          97 -78 70 -171 -6 vhcurveto
          -33 vlineto
          117 -4 39 -55 -66 -72 -34 -49 -69 vvcurveto
          -64 30 -37 66 -16 vhcurveto
          -66 -15 -30 -38 -63 -70 34 -49 -72 vvcurveto
          -66 -39 -55 -117 -3 vhcurveto
          -34 vlineto
          171 -5 78 69 97 74 -34 55 59 vvcurveto
          49 19 33 64 6 vhcurveto
          56 vlineto
          -64 6 -19 33 49 vvcurveto
          endchar
        </CharString>
        <CharString name="bracketleft">
          -236 196 730 rmoveto
          121 48 -217 -911 217 48 -121 hlineto
          endchar
        </CharString>
        <CharString name="bracketright">
          -236 30 -85 rmoveto
          -48 217 911 -217 -48 121 -815 vlineto
          endchar
        </CharString>
        <CharString name="breve">
          -312 228 661 -9 callsubr
          endchar
        </CharString>
        <CharString name="brokenbar">
          -267 119 255 rmoveto
          -305 78 305 vlineto
          154 vmoveto
          305 -78 -305 vlineto
          endchar
        </CharString>
        <CharString name="bullet">
          -263 159 244 rmoveto
          43 33 32 40 42 -33 34 -43 -40 -32 -34 -42 -40 32 -32 40 hvcurveto
          endchar
        </CharString>
        <CharString name="c">
          -132 408 86 rmoveto
          -22 callgsubr
          -148 102 -83 107 74 56 29 48 49 hvcurveto
          endchar
        </CharString>
        <CharString name="cacute">
          -132 408 86 rmoveto
          -22 callgsubr
          -148 102 -83 107 74 56 29 48 49 hvcurveto
          -174 453 -39 callgsubr
        </CharString>
        <CharString name="caron">
          -266 307 633 rmoveto
          -47 callgsubr
          73 hlineto
          endchar
        </CharString>
        <CharString name="ccaron">
          -132 408 86 rmoveto
          -22 callgsubr
          -148 102 -83 107 74 56 29 48 49 hvcurveto
          -10 574 rmoveto
          -47 callgsubr
          73 hlineto
          endchar
        </CharString>
        <CharString name="ccedilla">
          -132 252 -67 rmoveto
          12 56 65 4 50 28 45 44 rlinecurve
          -16 21 rlineto
          -22 callgsubr
          -126 74 -79 88 -20 hvcurveto
          -20 -98 100 callgsubr
        </CharString>
        <CharString name="cedilla">
          -313 171 -67 rmoveto
          17 82 rlineto
          -67 hlineto
          -24 -119 100 callgsubr
        </CharString>
        <CharString name="cent">
          -149 408 86 rmoveto
          -23 -44 -44 -14 -50 hhcurveto
          -75 -56 62 116 128 55 63 78 56 44 -37 -63 2 hvcurveto
          8 -2 9 -1 8 -1 6 33 5 52 1 34 -35 21 -44 13 -46 2 rrcurveto
          72 -52 -75 vlineto
          -114 -18 -84 -92 -137 vvcurveto
          -142 94 -82 102 -7 vhcurveto
          -72 52 75 vlineto
          55 8 45 27 40 39 rrcurveto
          endchar
        </CharString>
        <CharString name="circumflex">
          -266 307 521 98 callgsubr
        </CharString>
        <CharString name="colon">
          -294 204 461 rmoveto
          34 -26 27 -34 -33 -26 -27 -34 -33 26 -26 33 33 27 26 33 vhcurveto
          -374 vmoveto
          33 -27 27 -33 -33 -26 -27 -33 -33 26 -26 33 33 27 26 33 vhcurveto
          endchar
        </CharString>
        <CharString name="comma">
          -393 70 -114 -44 callsubr
          endchar
        </CharString>
        <CharString name="commaaccent">
          -439 36 -219 138 callgsubr
        </CharString>
        <CharString name="commaaccent.alt">
          -440 35 511 138 callsubr
        </CharString>
        <CharString name="copyright">
          202 512 200 rmoveto
          -22 -33 -28 -10 -37 hhcurveto
          -73 -50 52 102 95 47 66 74 45 21 -25 -49 1 hvcurveto
          9 -1 10 0 9 2 9 30 7 38 2 31 rrcurveto
          12 -27 -41 12 -42 hhcurveto
          -117 -90 -86 -129 -131 87 -76 101 61 46 27 38 33 hvcurveto
          195 143 rmoveto
          209 -147 128 -191 -191 -148 -128 -209 -210 148 -128 191 191 147 128 210 vhcurveto
          -627 hmoveto
          191 130 105 159 159 129 -105 -191 -192 -129 -105 -159 -159 -130 105 192 vhcurveto
          endchar
        </CharString>
        <CharString name="currency">
          -105 238 214 rmoveto
          -39 -36 32 83 83 36 31 39 40 37 -31 -83 -83 -37 -32 -40 hvcurveto
          211 233 rmoveto
          -35 47 -66 -53 rlineto
          28 -29 -39 15 -42 hhcurveto
          -42 -39 -15 -28 -28 hvcurveto
          -66 53 -35 -47 70 -49 rlineto
          -10 -21 -5 -23 -26 vvcurveto
          -26 5 -23 9 -20 vhcurveto
          -69 -49 35 -47 65 52 rlineto
          -27 29 39 -15 42 hhcurveto
          42 40 15 27 29 hvcurveto
          65 -52 35 47 -69 49 rlineto
          10 20 5 23 26 vvcurveto
          26 -5 24 -10 20 vhcurveto
          endchar
        </CharString>
        <CharString name="d">
          -34 81 callsubr
          164 -349 rmoveto
          249 callgsubr
          613 vlineto
          118 callsubr
          -176 40 callsubr
          endchar
        </CharString>
        <CharString name="dagger">
          -67 419 573 rmoveto
          -45 -7 -22 -13 -60 hhcurveto
          -28 hlineto
          3 105 1 36 20 9 42 5 rlinecurve
          3 -1 callsubr
          -228 hlineto
          -11 0 -15 4 -11 vhcurveto
          42 -5 19 -9 1 -36 3 -105 rcurveline
          -33 hlineto
          -60 -17 13 45 -7 hvcurveto
          -34 -2 -7 -43 0 -68 7 -43 rlinecurve
          34 -2 rlineto
          45 7 17 12 60 hhcurveto
          35 hlineto
          23 -699 14 -5 13 0 13 5 rlinecurve
          23 699 rlineto
          30 215 callsubr
          7 43 0 76 -7 35 rlinecurve
          endchar
        </CharString>
        <CharString name="daggerdbl">
          -62 422 63 rmoveto
          -45 -7 -22 -13 -60 hhcurveto
          -46 hlineto
          19 212 rlineto
          31 vlineto
          -19 213 rlineto
          46 215 callsubr
          4 47 0 68 -4 39 rlinecurve
          -34 2 rlineto
          -45 -7 -22 -13 -60 hhcurveto
          -44 hlineto
          17 105 6 36 15 9 41 5 rlinecurve
          4 11 0 15 11 vvcurveto
          -219 hlineto
          -1 -11 1 -15 3 -11 42 -5 14 -9 6 -36 17 -105 rcurveline
          -51 157 callgsubr
          53 hlineto
          -19 -213 rlineto
          -31 vlineto
          19 -212 rlineto
          -53 157 callgsubr
          51 hlineto
          -17 -104 -6 -36 -14 -9 -42 -6 rlinecurve
          243 callgsubr
          1 -10 rrcurveto
          219 hlineto
          10 0 16 -4 10 vhcurveto
          -41 6 -15 8 -6 37 -17 104 rcurveline
          44 215 callsubr
          4 39 0 68 -4 47 rlinecurve
          endchar
        </CharString>
        <CharString name="danda">
          -253 209 556 rmoveto
          -88 59 rlineto
          -598 vlineto
          88 -59 rlineto
          endchar
        </CharString>
        <CharString name="dcaron">
          -34 81 callsubr
          97 311 rmoveto
          118 callsubr
          -176 40 callsubr
          -9 19 rlineto
          249 callgsubr
          54 462 138 callsubr
        </CharString>
        <CharString name="dcroat">
          -32 81 callsubr
          178 175 rmoveto
          1 15 -3 14 -7 12 -72 -17 rcurveline
          112 vlineto
          118 callsubr
          -62 vlineto
          -104 -25 -2 -16 3 -13 8 -12 rlinecurve
          95 23 rlineto
          -71 40 callsubr
          -9 19 rlineto
          249 callgsubr
          457 vlineto
          endchar
        </CharString>
        <CharString name="degree">
          -266 158 400 rmoveto
          71 58 44 84 85 -58 45 -71 -70 -58 -45 -85 -84 58 -44 70 hvcurveto
          216 vmoveto
          32 28 -24 -63 -63 -28 -24 -32 -32 -26 24 63 63 26 24 32 hvcurveto
          endchar
        </CharString>
        <CharString name="dieresis">
          -320 253 566 rmoveto
          37 callgsubr
          -146 hmoveto
          37 callgsubr
          endchar
        </CharString>
        <CharString name="divide">
          37 370 510 rmoveto
          33 -27 27 -34 -32 -26 -27 -33 -32 26 -27 32 34 27 27 32 vhcurveto
          -364 vmoveto
          34 -27 26 -34 -32 -26 -26 -34 -33 26 -26 32 34 27 26 33 vhcurveto
          -326 216 rmoveto
          -66 531 66 vlineto
          endchar
        </CharString>
        <CharString name="dollar">
          -87 278 255 rmoveto
          48 -27 37 -33 -56 vvcurveto
          -50 -34 -36 -51 -11 vhcurveto
          -44 345 rmoveto
          -47 26 -35 30 52 vvcurveto
          49 32 32 50 8 vhcurveto
          44 1 rmoveto
          55 -5 39 -32 13 -77 rrcurveto
          -2 9 12 0 10 hhcurveto
          7 40 4 49 1 46 -44 15 -48 13 -58 2 rrcurveto
          75 -44 -76 vlineto
          -97 -10 -70 -57 -93 vvcurveto
          -111 87 -42 80 -41 vhcurveto
          -240 vlineto
          -76 3 -54 36 2 110 rrcurveto
          3 -14 -11 1 -13 hhcurveto
          -5 -42 -5 -66 2 -56 60 -23 55 -14 59 -1 rrcurveto
          -75 44 78 vlineto
          100 13 74 65 97 vvcurveto
          114 -92 42 -82 40 vhcurveto
          endchar
        </CharString>
        <CharString name="dotaccent">
          -445 69 507 30 callgsubr
          endchar
        </CharString>
        <CharString name="dotlessi">
          -288 194 464 71 callgsubr
        </CharString>
        <CharString name="dottedcircle">
          77 139 471 rmoveto
          -26 18 -19 26 26 18 19 26 25 -18 19 -26 -26 -18 -19 -25 vhcurveto
          -82 -110 rmoveto
          -25 20 -19 26 24 20 19 25 25 -20 19 -24 -26 -20 -19 -25 vhcurveto
          -13 -126 rmoveto
          -25 19 -18 25 26 18 18 273 callsubr
          52 -116 rmoveto
          -26 18 -18 26 25 19 18 26 25 -19 19 -25 -26 -18 -19 -25 vhcurveto
          101 -75 rmoveto
          -26 19 -20 26 25 19 20 26 24 -19 20 -25 -26 -19 -20 -24 vhcurveto
          127 -16 rmoveto
          -26 18 -18 26 26 19 18 26 26 -19 18 -26 -26 -18 -18 -26 vhcurveto
          121 53 rmoveto
          -26 19 -18 25 25 20 18 26 25 -20 19 -25 -25 -19 -19 -25 vhcurveto
          73 98 rmoveto
          -25 19 -19 26 24 19 19 25 26 -19 19 -24 -26 -19 -19 -26 vhcurveto
          10 134 rmoveto
          -26 18 -18 26 25 19 18 26 26 -19 18 -25 -26 -18 -18 -26 vhcurveto
          -50 118 rmoveto
          -25 19 -19 25 26 18 19 273 callsubr
          -95 68 rmoveto
          -24 19 -20 26 25 18 20 24 26 -18 19 -25 -26 -19 -19 -26 vhcurveto
          -126 15 rmoveto
          -26 18 -18 26 26 18 18 26 26 -18 18 -26 -26 -18 -18 -26 vhcurveto
          endchar
        </CharString>
        <CharString name="doubledanda">
          -18 209 555 rmoveto
          -88 60 rlineto
          -598 vlineto
          88 -59 rlineto
          251 597 rmoveto
          -89 60 rlineto
          -598 vlineto
          89 -59 rlineto
          endchar
        </CharString>
        <CharString name="dvA">
          189 306 33 rmoveto
          70 callsubr
          23 23 6 14 20 hvcurveto
          -6 -265 89 -53 rlineto
          603 152 275 callsubr
          -324 10 callsubr
          endchar
        </CharString>
        <CharString name="dvAA">
          422 1006 -6 callgsubr
          -573 10 callsubr
          107 58 75 84 37 -10 25 -14 22 hvcurveto
          -12 28 31 -12 30 hhcurveto
          23 23 6 14 20 hvcurveto
          -6 -265 89 -53 rlineto
          603 157 -544 -19 callsubr
          148 vlineto
          endchar
        </CharString>
        <CharString name="dvAI">
          -12 193 770 rmoveto
          177 callsubr
          -476 19 callsubr
          -13 38 -42 31 vhcurveto
          -199 149 rlineto
          -44 35 -9 6 54 vvcurveto
          286 217 -195 vlineto
          -53 -22 -26 -47 139 callgsubr
          -45 72 rlineto
          -118 203 callsubr
        </CharString>
        <CharString name="dvAU">
          466 689 846 rmoveto
          221 callsubr
          48 -142 -68 27 hvcurveto
          75 -51 -87 70 -86 hhcurveto
          -27 -29 -6 -17 -27 89 callsubr
          58 54 -36 -47 37 hvcurveto
          -380 -67 callgsubr
          170 191 callgsubr
          -42 72 rlineto
          -135 hlineto
          97 -25 -69 204 -129 hhcurveto
          -18 -26 -4 -9 -20 hvcurveto
          endchar
        </CharString>
        <CharString name="dvAbbreviationsign">
          -74 255 387 rmoveto
          -90 -2 -59 -67 -75 vvcurveto
          -85 67 -57 82 vhcurveto
          92 4 57 68 75 vvcurveto
          78 -57 61 -92 vhcurveto
          -30 -236 rmoveto
          -40 -22 29 37 77 70 43 53 38 23 -25 -36 -64 -54 -61 -68 hvcurveto
          endchar
        </CharString>
        <CharString name="dvAnusvara">
          -583 -197 798 -8 callsubr
          endchar
        </CharString>
        <CharString name="dvAnusvara.amI">
          -583 -28 799 -8 callsubr
          endchar
        </CharString>
        <CharString name="dvAvagraha">
          25 280 411 rmoveto
          -46 42 -16 28 24 vvcurveto
          31 22 19 33 vhcurveto
          236 2 -52 72 rlineto
          -223 hlineto
          -73 -40 -37 -49 -37 19 -48 53 -50 hvcurveto
          149 -142 rlineto
          43 -40 24 -43 -38 vvcurveto
          -49 -27 -55 -97 -87 -75 77 51 -34 vhcurveto
          -41 -38 rlineto
          -59 37 104 -109 129 hhcurveto
          115 60 85 82 60 -45 68 -55 50 hvcurveto
          endchar
        </CharString>
        <CharString name="dvB">
          -237 415 71 callsubr
          -436 -95 callsubr
          418 -278 rmoveto
          -18 -25 -21 -26 -19 -16 -162 175 rcurveline
          -89 callsubr
          72 67 56 69 49 hvcurveto
          -218 -59 162 callgsubr
        </CharString>
        <CharString name="dvBA">
          -1 496 557 rmoveto
          156 78 callsubr
          -672 -95 callsubr
          426 hlineto
          64 callgsubr
          -265 206 rmoveto
          -66 -51 111 callsubr
          161 -173 rlineto
          -16 -25 -24 -9 -23 hhcurveto
          endchar
        </CharString>
        <CharString name="dvBH">
          -254 349 -6 callgsubr
          -116 -37 callsubr
          116 hlineto
          -301 -236 rmoveto
          87 callgsubr
          254 vlineto
          -54 83 rlineto
          -201 -39 callsubr
          -90 -37 callsubr
          75 143 callgsubr
          vlineto
          endchar
        </CharString>
        <CharString name="dvBHA">
          -13 590 15 callsubr
          -89 -37 callsubr
          73 hlineto
          114 callgsubr
        </CharString>
        <CharString name="dvBH_LA">
          473 1076 -6 callgsubr
          -843 -37 callsubr
          599 32 callgsubr
          -75 -60 -46 -68 -21 hvcurveto
          -180 -39 callsubr
          -90 -37 callsubr
          75 143 callgsubr
          -20 vlineto
          87 callgsubr
          174 vlineto
          17 -112 102 -103 82 -70 45 32 rcurveline
          -99 callsubr
        </CharString>
        <CharString name="dvBH_NA">
          -2 602 -6 callgsubr
          -368 166 callsubr
          43 -12 29 -29 28 vhcurveto
          -5 5 -33 29 -6 5 rrcurveto
          29 -33 -29 7 -35 hhcurveto
          -85 -37 callsubr
          69 126 callsubr
          -18 vlineto
          -35 -1 -17 -11 -25 vvcurveto
          -51 88 -90 200 callgsubr
          18 vhcurveto
          67 207 -13 vlineto
          -232 -198 rlineto
          -18 -15 -10 -13 -14 vvcurveto
          -48 79 -23 47 27 20 9 17 136 callgsubr
          137 133 rcurveline
          -140 vlineto
          274 callgsubr
        </CharString>
        <CharString name="dvBH_R">
          -254 349 -6 callgsubr
          -115 -37 callsubr
          116 hlineto
          16 -319 rmoveto
          -278 -241 65 -46 280 276 -96 101 rlineto
          -188 126 hlineto
          53 callgsubr
          -18 vlineto
          -35 -1 -17 -11 -25 vvcurveto
          -51 88 -90 200 callgsubr
          18 vhcurveto
          67 216 vlineto
          endchar
        </CharString>
        <CharString name="dvBH_RA">
          -2 137 -3 rmoveto
          65 -46 204 198 rlineto
          -138 vlineto
          238 callsubr
          -49 72 rlineto
          -362 hlineto
          49 -72 rlineto
          123 -229 -208 126 hlineto
          53 callgsubr
          -16 vlineto
          -36 -18 -12 -25 23 callgsubr
          17 hvcurveto
          66 207 -16 vlineto
          endchar
        </CharString>
        <CharString name="dvBH_R_YA">
          336 743 306 43 callsubr
          -704 -37 callsubr
          182 -45 callgsubr
          -2 -167 126 vlineto
          53 callgsubr
          -18 vlineto
          -35 -1 -17 -11 -25 vvcurveto
          -51 88 -90 200 callgsubr
          18 vhcurveto
          67 199 vlineto
          3 -5 3 -4 3 -5 -270 -234 rcurveline
          65 -46 243 239 rlineto
          -45 47 61 -35 53 -103 callgsubr
        </CharString>
        <CharString name="dvBH_VA">
          327 930 -6 callgsubr
          -697 -37 callsubr
          452 -92 callgsubr
          -79 -79 -59 -101 -6 hvcurveto
          -175 -39 callsubr
          -90 -37 callsubr
          75 143 callgsubr
          -20 vlineto
          87 callgsubr
          188 vlineto
          -84 34 89 -64 78 hhcurveto
          -74 callsubr
        </CharString>
        <CharString name="dvBH_YA">
          322 730 306 43 callsubr
          -694 -95 callsubr
          171 hlineto
          -46 callsubr
          -2 -3 vvcurveto
          -149 -39 callsubr
          -90 -37 callsubr
          75 143 callgsubr
          -20 vlineto
          87 callgsubr
          185 vlineto
          -66 48 85 -63 71 -103 callgsubr
        </CharString>
        <CharString name="dvB_BA">
          348 651 185 rmoveto
          -16 -25 -24 -9 -23 hhcurveto
          -66 -51 111 callsubr
          -186 -173 -65 callgsubr
          807 271 rmoveto
          -1020 -95 callsubr
          774 40 callgsubr
          -79 -90 -67 -106 -11 1 -10 2 -10 hvcurveto
          -17 -24 -19 -23 -18 -15 -162 175 rcurveline
          -89 callsubr
          63 59 43 57 47 hvcurveto
          -59 42 70 -41 66 115 callsubr
        </CharString>
        <CharString name="dvB_BHA">
          325 -3 callsubr
          784 271 rmoveto
          -358 -37 callsubr
          114 -235 -193 132 hlineto
          45 -13 28 -32 30 vhcurveto
          -40 36 -31 26 -26 9 -31 1 rlinecurve
          0 -436 vlineto
          -70 callsubr
          410 hlineto
          41 258 callgsubr
          -56 -14 -11 -26 -6 1 -7 3 -7 hvcurveto
          -15 -20 -17 -19 -15 -13 -162 175 rcurveline
          -89 callsubr
          64 60 44 58 47 hvcurveto
          -28 27 33 -22 21 hhcurveto
          19 8 11 18 hvcurveto
          65 192 -227 vlineto
          88 -59 -96 callsubr
        </CharString>
        <CharString name="dvB_BH_RA">
          338 -3 callsubr
          793 271 141 callgsubr
          -30 26 -26 8 -31 2 rrcurveto
          0 -436 vlineto
          -70 callsubr
          409 271 callsubr
          -36 -18 -12 -25 -8 2 -8 4 -9 hvcurveto
          -16 -20 -17 -20 -15 -13 -162 175 rcurveline
          -89 callsubr
          65 61 46 59 47 hvcurveto
          -27 27 31 -20 20 118 callgsubr
        </CharString>
        <CharString name="dvB_DA">
          297 -3 callsubr
          619 6 22 callsubr
          -969 -95 callsubr
          693 228 callsubr
          -123 -60 -74 -91 hvcurveto
          -8 vlineto
          -17 -23 -19 -22 -17 -15 -162 175 rcurveline
          -89 callsubr
          58 54 36 50 45 hvcurveto
          16 -31 22 -29 25 -23 rrcurveto
          -44 46 58 -28 58 hhcurveto
          33 32 10 15 28 hvcurveto
          -96 callgsubr
          endchar
        </CharString>
        <CharString name="dvB_DHA">
          -583 endchar
        </CharString>
        <CharString name="dvB_DH_VA">
          692 -3 callsubr
          1152 271 rmoveto
          224 callsubr
          422 -92 callgsubr
          -82 -82 -64 -108 -19 3 -19 6 -19 hvcurveto
          -54 -41 -58 -49 -74 -49 callsubr
          -641 -95 callsubr
          435 hlineto
          -1 1 rlineto
          9 hlineto
          -15 callsubr
          -9 vlineto
          -17 -23 -19 -23 -17 -15 -162 175 rcurveline
          -89 callsubr
          60 56 39 52 46 hvcurveto
          -64 41 78 -45 74 hhcurveto
          48 71 31 68 62 hvcurveto
          -50 42 62 -34 57 hhcurveto
          -74 callsubr
        </CharString>
        <CharString name="dvB_JA">
          509 304 185 -25 callgsubr
        </CharString>
        <CharString name="dvB_JHA">
          536 944 334 rmoveto
          -42 -31 -36 -14 -38 -67 -36 19 -43 30 callsubr
          155 hlineto
          -640 -372 -65 callgsubr
          996 271 rmoveto
          -1209 -95 callsubr
          722 -86 -144 hlineto
          -76 -52 -40 -67 -11 2 -11 2 -11 hvcurveto
          -17 -28 -31 -53 -46 -38 -162 175 rcurveline
          -89 callsubr
          82 67 73 87 64 hvcurveto
          -41 32 45 -29 36 28 callsubr
        </CharString>
        <CharString name="dvB_J_YA">
          867 1275 306 58 callsubr
          -971 -372 -65 callgsubr
          1327 271 rmoveto
          -1540 -95 callsubr
          1016 hlineto
          39 -21 23 -38 -26 vvcurveto
          -26 -21 -25 -107 -55 vhcurveto
          24 -32 -46 22 -65 hhcurveto
          -180 hlineto
          -9 -13 rlineto
          58 -57 56 207 callsubr
          -31 -29 -49 -86 -53 118 111 -36 vhcurveto
          -23 -35 rlineto
          1 vlineto
          -16 -22 -55 -82 -24 -19 -161 174 rcurveline
          -89 callsubr
          82 62 69 74 49 hvcurveto
          -97 47 66 -79 93 120 callsubr
          112 hlineto
          29 24 -7 -10 19 hvcurveto
          -84 12 128 -123 99 -103 callgsubr
        </CharString>
        <CharString name="dvB_JxA">
          512 473 -45 -51 callsubr
          -235 164 -25 callgsubr
        </CharString>
        <CharString name="dvB_LA">
          490 -3 callsubr
          950 271 rmoveto
          -1163 -95 callsubr
          918 32 callgsubr
          -93 -69 -70 -94 -1 hvcurveto
          -17 -23 -19 -22 -17 -15 -162 175 rcurveline
          -89 callsubr
          56 53 34 48 44 hvcurveto
          37 -87 79 -78 66 -57 45 32 rcurveline
          -99 callsubr
        </CharString>
        <CharString name="dvB_L_YA">
          844 1251 306 -106 callgsubr
          -947 -372 -65 callgsubr
          1303 271 rmoveto
          -1516 -95 callsubr
          993 143 callsubr
          -19 -23 -93 -50 vhcurveto
          30 -29 -48 29 -50 hhcurveto
          -48 -40 -23 -32 -25 -62 callsubr
          -93 -70 -71 -94 hvcurveto
          -2 vlineto
          -16 -21 -18 -22 -17 -14 -162 175 rcurveline
          -89 callsubr
          55 53 33 47 44 hvcurveto
          37 -86 78 -78 66 -56 45 32 rcurveline
          -71 callgsubr
          65 26 61 76 17 14 -4 -6 13 vhcurveto
          -4 -4 -1 -6 -7 -59 callsubr
        </CharString>
        <CharString name="dvB_NA">
          -1 406 21 rmoveto
          90 -67 218 callgsubr
          -672 -95 callsubr
          426 hlineto
          2 -273 -20 -24 -30 -33 -18 -15 rlinecurve
          -162 175 rlineto
          56 callgsubr
          43 29 -22 -22 20 hvcurveto
          30 41 rlineto
          30 -28 -50 44 -74 hhcurveto
          -79 -91 -67 -106 -98 92 -94 94 -11 hvcurveto
          -86 -74 rlineto
          -18 -14 160 callsubr
          171 166 rcurveline
          -178 -19 162 callgsubr
        </CharString>
        <CharString name="dvB_R">
          -242 121 -2 rmoveto
          65 -46 78 72 182 189 5 6 rlinecurve
          -54 55 -8 -11 -41 -42 -9 -8 rlinecurve
          -162 174 rlineto
          12 20 22 8 23 hhcurveto
          44 28 -22 -22 21 hvcurveto
          29 41 rlineto
          30 -28 -49 44 -74 hhcurveto
          -80 -90 -67 -106 -103 104 -105 100 3 hvcurveto
          164 457 rmoveto
          -50 72 rlineto
          -431 -95 callsubr
          251 -397 rmoveto
          -65 -52 111 callsubr
          161 -172 rlineto
          -17 -24 -25 -9 -23 hhcurveto
          endchar
        </CharString>
        <CharString name="dvB_RA">
          10 662 127 callgsubr
          224 callsubr
          424 -274 hlineto
          128 callsubr
          -79 -91 -66 -107 -102 104 -106 100 3 hvcurveto
          -125 -102 65 -46 57 53 132 135 31 31 rlinecurve
          -4 -155 90 -64 rlineto
          603 vlineto
          -262 -395 rmoveto
          -65 -52 54 62 32 11 29 18 21 hvcurveto
          251 callgsubr
          endchar
        </CharString>
        <CharString name="dvB_SA">
          421 831 344 rmoveto
          -30 -27 -43 -17 -49 245 callsubr
          -527 -372 -65 callgsubr
          881 271 rmoveto
          -1094 -95 callsubr
          534 -215 hlineto
          -30 -12 -10 -22 -16 -16 11 13 -16 vhcurveto
          -39 -54 -18 -23 -21 -26 -14 -11 rlinecurve
          -162 175 rlineto
          -89 callsubr
          67 61 51 63 47 hvcurveto
          59 -81 63 -77 79 -96 62 36 rcurveline
          -78 46 callgsubr
          54 -20 48 hhcurveto
          26 32 9 18 23 hvcurveto
          -3 -233 86 -58 -96 callsubr
        </CharString>
        <CharString name="dvB_SHA">
          440 335 -6 callgsubr
          -405 -95 callsubr
          405 hlineto
          -81 -372 -65 callgsubr
          437 35 206 callgsubr
          42 55 34 -52 -64 -100 -64 -62 -94 -35 -29 19 18 -22 vhcurveto
          -31 -41 -18 -24 -24 -28 -15 -13 rlinecurve
          -162 175 rlineto
          -89 callsubr
          66 67 54 62 48 hvcurveto
          54 -69 75 -91 83 -96 59 39 rcurveline
          -61 62 -96 102 -34 44 rrcurveto
          129 -6 93 88 125 vvcurveto
          101 -86 128 -108 -74 -52 -60 -70 -76 73 -57 57 -21 vhcurveto
          489 276 rmoveto
          -314 hlineto
          43 -72 rlineto
          76 -546 hlineto
          238 callsubr
          endchar
        </CharString>
        <CharString name="dvB_TA">
          318 -3 callsubr
          777 271 rmoveto
          -990 -95 callsubr
          747 242 callsubr
          -102 -56 -49 -81 -6 hvcurveto
          -18 -24 -21 -26 -19 -16 -162 175 rcurveline
          -89 callsubr
          55 53 33 47 43 hvcurveto
          23 -74 47 -78 54 -68 -18 callgsubr
        </CharString>
        <CharString name="dvB_VA">
          341 -3 callsubr
          801 271 rmoveto
          -1014 -95 callsubr
          768 -92 callgsubr
          -82 -82 -64 -108 -12 1 -11 2 -12 hvcurveto
          -17 -23 -20 -25 -18 -15 -162 175 rcurveline
          -89 callsubr
          63 60 43 58 46 hvcurveto
          -62 43 70 -42 64 hhcurveto
          -74 callsubr
        </CharString>
        <CharString name="dvB_YA">
          352 759 306 -106 callgsubr
          -455 -372 -65 callgsubr
          811 271 rmoveto
          -1024 -95 callsubr
          501 175 callsubr
          5 -18 10 -19 vhcurveto
          -18 -24 -20 -25 -18 -15 -162 175 rcurveline
          -89 callsubr
          69 64 51 64 48 hvcurveto
          -54 49 71 -45 60 -103 callgsubr
        </CharString>
        <CharString name="dvC">
          211 callsubr
          517 -279 rmoveto
          -78 -48 -65 -48 -72 -32 callsubr
          -103 121 -99 91 77 56 38 96 72 vhcurveto
          endchar
        </CharString>
        <CharString name="dvCA">
          160 callgsubr
          -270 hlineto
          -80 -48 -67 -55 -77 -32 callsubr
          -103 121 -99 91 72 50 37 48 41 vhcurveto
          endchar
        </CharString>
        <CharString name="dvCH">
          122 658 -4 rmoveto
          42 49 -22 13 -76 51 -24 18 rlinecurve
          35 226 callsubr
          89 -59 103 -94 217 callgsubr
          vhcurveto
          -33 callgsubr
          -113 119 -87 127 80 77 35 57 59 vhcurveto
          22 -18 74 -56 20 -13 rrcurveto
          117 561 rmoveto
          -50 72 rlineto
          -795 -95 callsubr
          589 -219 rmoveto
          -64 -30 -63 -29 -32 vhcurveto
          158 callsubr
          vhcurveto
          endchar
        </CharString>
        <CharString name="dvCHA">
          119 300 291 rmoveto
          14 callgsubr
          87 231 263 callsubr
          -792 -95 callsubr
          474 -76 hlineto
          -59 -14 -36 -58 -65 vvcurveto
          -85 57 -69 58 -51 vhcurveto
          -47 -50 -66 -30 -73 hhcurveto
          -74 -51 34 52 57 56 14 43 28 28 -5 -4 16 hvcurveto
          104 95 rmoveto
          56 30 56 51 41 12 -42 -37 -64 -29 -63 -29 -32 vhcurveto
          -40 226 callgsubr
          endchar
        </CharString>
        <CharString name="dvCH_RA">
          119 511 179 -4 callsubr
          -792 -95 callsubr
          474 -41 callgsubr
          248 callgsubr
          -94 82 -76 101 -23 vhcurveto
          -120 -122 68 -55 272 callgsubr
          -136 152 50 15 46 28 38 37 rlinecurve
          26 callgsubr
        </CharString>
        <CharString name="dvCH_R_YA">
          638 509 179 rmoveto
          158 callsubr
          -64 -30 -63 -29 -32 vhcurveto
          727 450 rmoveto
          -1307 -95 callsubr
          1063 -307 hlineto
          -41 -22 -78 -81 -76 171 callgsubr
          -170 hlineto
          16 -21 -26 9 -28 hhcurveto
          217 callgsubr
          hvcurveto
          -33 callgsubr
          -92 78 -74 98 -25 vhcurveto
          -123 -125 68 -55 197 callgsubr
          45 31 -134 150 53 14 49 29 41 39 rlinecurve
          195 callsubr
          22 57 62 vvcurveto
          29 -6 29 -11 28 vhcurveto
          142 hlineto
          42 32 -7 -23 -24 -55 -30 -58 65 callsubr
          endchar
        </CharString>
        <CharString name="dvCH_YA">
          628 510 179 rmoveto
          158 callsubr
          -64 -30 -63 -29 -32 vhcurveto
          720 450 rmoveto
          -1300 -95 callsubr
          1056 178 callgsubr
          -44 -31 25 34 17 13 12 16 252 callsubr
          -95 vhcurveto
          -164 hlineto
          16 -21 -26 9 -28 hhcurveto
          217 callgsubr
          hvcurveto
          -33 callgsubr
          -113 119 -87 127 80 77 35 57 59 vhcurveto
          195 callsubr
          22 57 62 vvcurveto
          29 -6 29 -11 28 vhcurveto
          136 hlineto
          41 32 -7 -23 -24 -55 116 callsubr
          90 51 55 39 36 31 vhcurveto
          -2 -120 183 callsubr
          154 vlineto
          endchar
        </CharString>
        <CharString name="dvC_CA">
          443 396 361 rmoveto
          1 -1 34 1 rlineto
          5 0 hlineto
          98 237 callgsubr
          -7 1 -7 1 -8 vhcurveto
          -65 -47 -59 -39 -65 hhcurveto
          -53 -48 37 55 64 55 42 72 11 hvcurveto
          709 268 rmoveto
          -1113 213 callsubr
          872 161 callsubr
          -735 235 callsubr
          -103 121 -99 91 66 51 28 69 59 vhcurveto
          -56 43 71 -41 58 hhcurveto
          72 50 37 48 41 hvcurveto
          -5 -150 237 callsubr
          endchar
        </CharString>
        <CharString name="dvC_CHA">
          530 922 179 -4 callsubr
          -1199 213 callsubr
          885 -41 callgsubr
          -19 -13 -14 -17 -6 -22 rrcurveto
          -58 -51 -78 -40 -67 102 callsubr
          51 61 vhcurveto
          -75 38 92 -51 97 hhcurveto
          80 78 35 57 58 hvcurveto
          26 callgsubr
        </CharString>
        <CharString name="dvC_CH_VA">
          534 921 179 rmoveto
          -39 226 callgsubr
          56 30 56 51 40 13 -42 -37 -64 -30 -63 -29 -32 vhcurveto
          -184 -188 rmoveto
          39 40 9 17 37 hvcurveto
          1 -113 rlineto
          -78 -44 -60 -38 -53 hhcurveto
          -65 -35 43 48 69 50 40 74 3 hvcurveto
          230 566 rmoveto
          261 78 callsubr
          -1228 213 callsubr
          884 -76 hlineto
          -58 -14 -36 -58 -65 vvcurveto
          -85 56 -68 59 -52 vhcurveto
          -46 -50 -65 -31 -74 hhcurveto
          -74 -51 34 52 57 56 239 callsubr
          -31 81 rlineto
          4 -20 -24 2 -21 hhcurveto
          -21 -20 -2 -5 -20 hvcurveto
          -21 17 -20 21 25 vvcurveto
          49 44 16 58 23 27 -2 -5 27 vhcurveto
          -28 248 callsubr
          -27 4 -25 225 callsubr
          -47 37 -41 34 -28 hvcurveto
          -19 -13 -14 -18 -6 -23 rrcurveto
          -56 -51 -78 -40 -66 102 callsubr
          50 61 vhcurveto
          18 -35 31 -29 38 -21 rrcurveto
          -39 -20 -37 -35 -60 vvcurveto
          -105 108 -93 98 55 48 31 36 28 vhcurveto
          -5 -134 85 -56 rlineto
          475 vlineto
          5 3 6 6 4 4 195 callsubr
          23 57 62 vvcurveto
          68 -35 77 -61 31 vhcurveto
          endchar
        </CharString>
        <CharString name="dvC_MA">
          433 840 29 callgsubr
          78 callgsubr
          -1101 213 callsubr
          563 196 callsubr
          -9 3 -10 4 -10 hvcurveto
          -63 -45 -58 -37 -64 -32 callsubr
          -103 121 -99 91 70 53 31 78 63 vhcurveto
          -23 25 28 -17 19 hhcurveto
          18 8 11 18 hvcurveto
          -65 callsubr
        </CharString>
        <CharString name="dvC_NA">
          160 callgsubr
          -282 hlineto
          -64 -53 -62 -59 -77 -32 callsubr
          -94 107 -99 85 vhcurveto
          -88 -75 rlineto
          -17 225 callgsubr
          -47 78 -24 48 268 callsubr
          -3 5 -28 32 -11 15 174 169 rcurveline
          endchar
        </CharString>
        <CharString name="dvC_R">
          211 callsubr
          217 -586 rmoveto
          66 -46 289 286 -56 56 rlineto
          -64 -52 -60 -51 -72 -32 callsubr
          -94 113 -108 90 9 vhcurveto
          endchar
        </CharString>
        <CharString name="dvC_RA">
          107 755 557 rmoveto
          -45 72 rlineto
          -747 213 callsubr
          506 -292 hlineto
          -64 -52 -60 -49 -70 hhcurveto
          -54 -47 37 55 214 callsubr
          -75 137 4 rlineto
          -30 -16 -23 -36 -34 vvcurveto
          -94 113 -108 89 9 vhcurveto
          -138 -114 66 -46 234 230 -4 -146 227 callsubr
          vlineto
          endchar
        </CharString>
        <CharString name="dvC_YA">
          433 840 306 43 callsubr
          -1101 213 callsubr
          582 -45 callgsubr
          -21 9 -24 14 -25 vhcurveto
          -67 -46 -61 -41 -66 -32 callsubr
          -103 121 -99 91 73 53 34 84 67 vhcurveto
          -47 48 63 -37 54 -103 callgsubr
        </CharString>
        <CharString name="dvCandrabindu">
          -583 -219 920 -8 callsubr
          -191 -135 rmoveto
          -79 53 71 -72 94 hhcurveto
          87 53 250 callgsubr
          -69 hhcurveto
          -63 -49 60 52 -35 hvcurveto
          endchar
        </CharString>
        <CharString name="dvD">
          -43 263 -148 -75 callgsubr
          209 444 22 callsubr
          -625 213 callgsubr
          354 228 callsubr
          95 callgsubr
          -44 46 58 -28 58 hhcurveto
          33 32 10 15 28 hvcurveto
          -96 callgsubr
          endchar
        </CharString>
        <CharString name="dvDA">
          -43 43 callgsubr
          -44 46 58 -28 58 hhcurveto
          33 32 10 15 28 hvcurveto
          -96 callgsubr
          endchar
        </CharString>
        <CharString name="dvDA_mvR">
          -96 418 119 rmoveto
          -50 -48 -74 -36 -63 hhcurveto
          -60 -39 38 48 63 69 16 59 30 27 -4 -4 14 hvcurveto
          -26 74 rlineto
          5 -22 -30 3 -26 hhcurveto
          -20 -19 -2 -3 -17 hvcurveto
          -21 16 -25 37 29 vvcurveto
          47 47 9 28 vhcurveto
          173 152 163 99 callsubr
          -559 -95 callsubr
          306 -83 -130 hlineto
          -50 -61 -28 -62 -55 44 -55 31 -22 hvcurveto
          -36 -13 -29 -31 -45 vvcurveto
          -90 99 -107 115 81 76 49 52 44 vhcurveto
          endchar
        </CharString>
        <CharString name="dvDD">
          -58 213 -191 -75 callgsubr
          -123 255 -38 callsubr
          endchar
        </CharString>
        <CharString name="dvDDA">
          -58 41 132 -38 callsubr
          endchar
        </CharString>
        <CharString name="dvDDH">
          -53 255 -162 -75 callgsubr
          344 723 -43 callsubr
          endchar
        </CharString>
        <CharString name="dvDDHA">
          -53 550 629 -43 callsubr
          endchar
        </CharString>
        <CharString name="dvDDH_DDHA">
          -52 549 -6 callgsubr
          -597 -95 callsubr
          329 -77 -102 hlineto
          -106 -74 -61 -96 -81 42 -77 68 -41 hvcurveto
          -70 -21 -40 -50 -69 vvcurveto
          -155 144 -107 129 89 83 62 78 83 -75 62 -65 -66 -44 -50 -61 -45 22 -39 17 -19 vhcurveto
          -86 3 -73 61 82 vvcurveto
          104 84 19 68 vhcurveto
          46 hlineto
          230 callsubr
          -39 17 -19 hvcurveto
          -86 4 -73 60 82 vvcurveto
          104 84 19 68 vhcurveto
          144 156 179 hlineto
          -168 -321 rmoveto
          -52 -46 -36 -52 -10 vhcurveto
          -14 193 callgsubr
          42 257 callsubr
          vhcurveto
          -120 -377 rmoveto
          42 257 callsubr
          -52 -46 -36 -52 -10 vhcurveto
          -14 193 callgsubr
          endchar
        </CharString>
        <CharString name="dvDDH_R">
          145 callgsubr
          67 -388 rmoveto
          46 30 -132 147 rlineto
          70 17 57 53 65 vvcurveto
          156 callsubr
          144 192 174 99 callsubr
          202 callsubr
          -123 85 -96 97 -37 hvcurveto
          -132 -136 199 callgsubr
          rlineto
          -42 -254 -75 callgsubr
          endchar
        </CharString>
        <CharString name="dvDDH_RA">
          145 callgsubr
          33 145 rmoveto
          192 174 275 callsubr
          202 callsubr
          -124 86 -95 98 -38 hvcurveto
          -131 -134 69 -54 272 callgsubr
          -132 147 rlineto
          69 18 55 52 64 vvcurveto
          156 callsubr
          endchar
        </CharString>
        <CharString name="dvDDH_YA">
          467 354 303 rmoveto
          -66 -45 -53 -61 hvcurveto
          1 -43 20 -33 19 -24 rrcurveto
          -86 4 -73 67 82 vvcurveto
          103 70 35 82 vhcurveto
          317 hlineto
          41 32 -7 93 callgsubr
          329 -96 -105 hlineto
          -118 -59 -78 -90 -72 31 -68 49 -50 hvcurveto
          -57 56 71 -27 66 hhcurveto
          89 83 61 79 82 -75 62 -65 hvcurveto
          205 158 rmoveto
          -139 96 455 146 callgsubr
          84 -96 vhcurveto
          -248 -308 rmoveto
          43 257 callsubr
          -52 -48 -35 -50 -11 vhcurveto
          -14 16 -8 21 21 vvcurveto
          endchar
        </CharString>
        <CharString name="dvDDHxA">
          -53 550 629 -43 callsubr
          -55 -276 -51 callsubr
          endchar
        </CharString>
        <CharString name="dvDD_DDA">
          -48 288 30 rmoveto
          109 85 71 75 63 -67 82 -71 hvcurveto
          -16 callsubr
          18 -29 42 -49 45 -27 rlinecurve
          -48 -11 -21 -32 -41 vvcurveto
          -90 89 -80 68 vhcurveto
          49 53 40 41 hhcurveto
          29 16 -18 -18 -59 -69 -46 -90 -73 -62 52 67 -44 hvcurveto
          -43 -32 rlineto
          -90 54 95 -70 104 hhcurveto
          109 85 71 75 63 -67 82 -71 hvcurveto
          -45 -57 -39 -45 hhcurveto
          -33 -26 18 39 45 29 19 53 hvcurveto
          endchar
        </CharString>
        <CharString name="dvDD_DDHA">
          -48 288 30 rmoveto
          109 85 71 75 63 -67 82 -71 hvcurveto
          -16 callsubr
          23 -38 41 -45 43 -24 rlinecurve
          -59 -24 -30 -46 -60 vvcurveto
          -155 144 -107 129 230 callsubr
          -38 17 -19 vhcurveto
          -86 3 -73 60 83 vvcurveto
          99 85 23 75 vhcurveto
          27 -202 rmoveto
          43 30 38 45 29 16 -17 -25 -51 -46 -37 -52 -10 vhcurveto
          -14 16 -8 22 21 vvcurveto
          endchar
        </CharString>
        <CharString name="dvDD_R">
          -58 435 -205 rmoveto
          46 30 -132 147 rlineto
          85 20 51 66 173 callgsubr
          206 180 161 hlineto
          -41 callsubr
          -43 -31 41 -69 61 -55 67 -26 rlinecurve
          -130 -133 199 callgsubr
          rlineto
          -30 -262 -75 callgsubr
          endchar
        </CharString>
        <CharString name="dvDD_RA">
          -58 433 377 rmoveto
          180 161 vlineto
          -41 callsubr
          -43 -31 41 -69 62 -55 67 -26 rlinecurve
          -129 -132 68 -55 197 callgsubr
          46 31 -132 147 rlineto
          83 20 51 65 173 callgsubr
          endchar
        </CharString>
        <CharString name="dvDD_VA">
          -48 482 176 rmoveto
          63 -67 82 -71 vhcurveto
          -16 callsubr
          23 -37 42 -46 45 -26 rlinecurve
          -55 -21 -35 -42 -54 vvcurveto
          -102 101 -90 92 51 39 26 32 26 vhcurveto
          -5 -130 86 -54 rlineto
          446 vlineto
          23 25 14 29 30 vvcurveto
          -194 -146 rmoveto
          25 25 5 7 22 hvcurveto
          1 -93 rlineto
          -75 -39 -50 -31 -52 hhcurveto
          -56 -35 38 47 66 54 41 64 -2 hvcurveto
          -2 14 13 -1 14 hhcurveto
          endchar
        </CharString>
        <CharString name="dvDD_YA">
          453 35 135 rmoveto
          -97 58 96 -69 98 hhcurveto
          118 74 80 75 61 -60 94 -74 hvcurveto
          -45 -57 -40 -45 hhcurveto
          -35 -25 34 37 47 29 24 53 hvcurveto
          359 hlineto
          41 32 -8 93 callgsubr
          354 -97 275 callgsubr
          -46 -45 -68 -92 89 -91 204 callsubr
          -23 -59 -64 -56 -90 -73 -66 59 67 -44 hvcurveto
          467 293 rmoveto
          -118 97 434 146 callgsubr
          83 -96 vhcurveto
          endchar
        </CharString>
        <CharString name="dvDDxA">
          -62 39 132 -38 callsubr
          153 -334 -51 callsubr
          endchar
        </CharString>
        <CharString name="dvDH">
          -221 384 557 rmoveto
          74 99 callsubr
          -74 hlineto
          -40 -72 rmoveto
          -50 72 rlineto
          -315 -95 callsubr
          34 hlineto
          83 1 rlineto
          -15 callsubr
          -111 115 -95 108 54 82 38 86 65 vhcurveto
          -55 67 rlineto
          -59 -41 -62 -58 -80 -85 callgsubr
          endchar
        </CharString>
        <CharString name="dvDHA">
          22 384 557 rmoveto
          45 -300 hlineto
          -45 -33 -61 -62 -82 hhcurveto
          -65 260 callgsubr
          27 26 208 callgsubr
          -27 85 rlineto
          4 -26 201 callsubr
          30 40 41 233 callsubr
          33 hlineto
          84 158 callgsubr
          -41 -16 -30 -35 -45 vvcurveto
          -111 116 -95 107 49 55 28 37 40 vhcurveto
          -3 -130 249 callsubr
          -291 hlineto
          endchar
        </CharString>
        <CharString name="dvDH_MA">
          340 747 321 rmoveto
          -210 236 210 hlineto
          196 72 rmoveto
          -616 185 callsubr
          76 196 callsubr
          -16 9 -20 14 -20 hvcurveto
          -42 -39 -50 -33 -61 -85 callgsubr
          74 78 callsubr
          -311 -95 callsubr
          34 hlineto
          83 1 rlineto
          -15 callsubr
          -111 115 -95 108 46 67 28 62 59 vhcurveto
          -13 18 17 -8 13 hhcurveto
          19 8 11 18 hvcurveto
          65 210 -226 vlineto
          260 callsubr
          155 vlineto
          endchar
        </CharString>
        <CharString name="dvDH_NA">
          22 295 557 rmoveto
          48 callgsubr
          141 136 rcurveline
          -2 -136 249 callsubr
          -290 -95 callsubr
          44 -306 hlineto
          -49 -41 -63 -52 -72 -85 callgsubr
          endchar
        </CharString>
        <CharString name="dvDH_N_YA">
          367 775 306 rmoveto
          -55 -31 -55 -61 -87 hhcurveto
          -47 29 callsubr
          -635 -37 callsubr
          112 hlineto
          39 -79 callgsubr
          -24 11 -28 19 -29 vhcurveto
          -49 -43 -61 -50 -70 hhcurveto
          -65 -43 37 53 58 58 16 49 26 26 -5 -6 27 hvcurveto
          -27 85 rlineto
          4 -25 -30 4 -26 hhcurveto
          -10 -12 -1 -1 -9 hvcurveto
          -24 18 -21 23 -1 33 rrcurveto
          38 30 40 41 11 vhcurveto
          78 hlineto
          48 callgsubr
          184 181 rcurveline
          -46 48 61 -36 110 callgsubr
        </CharString>
        <CharString name="dvDH_R">
          -221 384 557 rmoveto
          73 99 callsubr
          -74 hlineto
          166 -413 rmoveto
          -56 55 rlineto
          -57 -43 -67 -64 -82 hhcurveto
          -64 260 callgsubr
          26 27 208 callgsubr
          -28 85 rlineto
          4 -25 201 callsubr
          29 40 42 233 callsubr
          33 hlineto
          84 1 rlineto
          -15 -11 -21 175 callgsubr
          -125 -102 67 -47 rlineto
          endchar
        </CharString>
        <CharString name="dvDH_RA">
          -108 156 -20 rmoveto
          67 -47 214 213 -4 -137 184 callgsubr
          151 263 callsubr
          56 callsubr
          -321 -95 callsubr
          33 hlineto
          90 1 rlineto
          -16 -11 -20 175 callgsubr
          endchar
        </CharString>
        <CharString name="dvDH_VA">
          350 949 -6 callgsubr
          -615 -95 callsubr
          373 45 callsubr
          26 41 rlineto
          33 -30 -50 48 -76 hhcurveto
          -82 -82 -64 -108 -24 5 -24 9 -23 hvcurveto
          -48 -40 -55 -41 -67 -85 callgsubr
          74 78 callsubr
          -311 -95 callsubr
          34 hlineto
          83 1 rlineto
          -15 callsubr
          -111 115 -95 108 46 67 28 62 59 vhcurveto
          -45 43 58 -30 53 hhcurveto
          54 58 135 callsubr
        </CharString>
        <CharString name="dvDH_YA">
          352 760 306 rmoveto
          -55 -31 -54 -61 -87 hhcurveto
          -48 29 callsubr
          -627 184 callsubr
          hlineto
          174 callsubr
          -32 22 -30 vhcurveto
          -50 -40 -56 -42 -68 -85 callgsubr
          74 78 callsubr
          -311 -95 callsubr
          34 hlineto
          83 1 rlineto
          -15 callsubr
          -111 115 -95 108 49 73 32 71 62 vhcurveto
          -40 45 55 -29 48 hhcurveto
          54 46 26 44 40 hvcurveto
          -2 -167 3 callsubr
        </CharString>
        <CharString name="dvD_BA">
          -21 426 392 179 callsubr
          -632 213 callgsubr
          363 197 callsubr
          -56 23 -51 38 -42 hvcurveto
          -15 callgsubr
          -72 -475 rmoveto
          -50 -33 30 45 14 4 14 8 12 hvcurveto
          146 -78 rlineto
          -24 -23 -26 -13 -26 hhcurveto
          73 149 rmoveto
          247 callsubr
          -9 -37 -14 -31 -18 -26 -141 75 rcurveline
          21 10 23 5 16 2 16 -5 17 -4 17 -2 rrcurveto
          endchar
        </CharString>
        <CharString name="dvD_BHA">
          39 504 364 rmoveto
          193 183 194 callgsubr
          -707 213 callgsubr
          436 -112 -98 hlineto
          -123 -59 -74 -91 -68 36 -68 52 -47 hvcurveto
          30 -29 40 -25 41 -2 -112 -79 rcurveline
          -65 91 -25 34 -26 15 -40 5 rlinecurve
          -49 5 -41 4 -26 -10 -26 -20 rlinecurve
          -65 -47 74 -28 55 40 32 23 33 -11 22 -31 rlinecurve
          84 -116 rlineto
          -29 -21 -11 -13 -14 vvcurveto
          -40 76 -20 54 21 28 2 17 5 vhcurveto
          3 5 1 5 -3 6 rrcurveto
          10 -34 43 -5 6 vhcurveto
          212 147 92 -131 53 37 -104 123 rlineto
          27 24 17 28 23 vvcurveto
          35 -45 67 -40 -39 -36 -30 -34 -23 251 callsubr
          62 78 89 52 36 96 vhcurveto
          endchar
        </CharString>
        <CharString name="dvD_B_RA">
          -21 426 392 179 callsubr
          -632 213 callgsubr
          363 197 callsubr
          -56 23 -51 38 -42 hvcurveto
          9 -11 11 -9 10 -9 rrcurveto
          -51 -15 -49 -36 -62 vvcurveto
          -87 105 -73 76 -1 vhcurveto
          -87 -79 66 -51 145 162 43 44 24 67 10 56 rlinecurve
          65 -101 57 116 callgsubr
          -40 -39 -36 -30 -34 -23 10 -22 15 -22 vhcurveto
          0 -26 -25 -50 -74 -65 53 81 89 55 31 95 vhcurveto
          -72 -475 rmoveto
          -50 -33 30 45 14 4 14 8 12 hvcurveto
          146 -78 rlineto
          -24 -23 -26 -13 -26 hhcurveto
          73 149 rmoveto
          247 callsubr
          -9 -37 -14 -31 -18 -26 -141 75 rcurveline
          21 10 23 5 16 2 16 -5 17 -4 17 -2 rrcurveto
          endchar
        </CharString>
        <CharString name="dvD_DA">
          -46 469 67 rmoveto
          36 -32 57 -40 -36 -37 -21 -36 -18 9 -22 11 -18 vhcurveto
          -15 -29 -34 -7 -36 hhcurveto
          -64 -41 33 47 90 170 20 59 6 hvcurveto
          -39 72 -35 -2 -72 -12 -45 -17 rlinecurve
          -18 15 -29 40 31 vvcurveto
          46 41 16 35 vhcurveto
          177 149 162 99 callsubr
          -562 -37 callsubr
          311 -80 -131 hlineto
          -58 -56 -28 -63 -54 47 -66 33 -26 hvcurveto
          -34 -18 -34 -32 -48 vvcurveto
          -99 108 -89 109 33 40 7 15 34 vhcurveto
          100 -150 59 42 -113 133 rlineto
          23 19 14 22 25 vvcurveto
          endchar
        </CharString>
        <CharString name="dvD_DHA">
          74 669 -6 callgsubr
          -734 213 callgsubr
          478 197 callsubr
          -45 14 -43 26 -38 hvcurveto
          -20 -11 -11 -10 -11 -8 rrcurveto
          -48 7 -42 26 42 vvcurveto
          37 28 26 22 12 vhcurveto
          -60 42 rlineto
          -29 -17 -44 -39 -52 vvcurveto
          -68 64 -49 73 -6 vhcurveto
          -16 -20 -9 -24 -24 vvcurveto
          -98 122 -44 79 113 83 66 110 18 93 callsubr
          141 165 167 hlineto
          -442 -431 rmoveto
          33 -29 45 -20 41 -5 16 -2 16 0 15 3 rrcurveto
          -60 -25 -45 -48 -69 hhcurveto
          -51 -42 29 48 36 32 29 34 19 hvcurveto
          endchar
        </CharString>
        <CharString name="dvD_GA">
          -57 484 -32 rmoveto
          103 callsubr
          140 156 168 hlineto
          68 callsubr
          rrcurveto
          -8 -68 0 -262 0 vvcurveto
          81 -51 rlineto
          405 vlineto
          endchar
        </CharString>
        <CharString name="dvD_GHA">
          74 547 392 rmoveto
          165 167 194 callgsubr
          -734 213 callgsubr
          478 -84 -95 hlineto
          -91 -58 -38 -57 -23 hvcurveto
          -95 -2 -81 -37 -85 vvcurveto
          -75 71 -45 62 -8 vhcurveto
          -9 -13 -9 -19 -24 vvcurveto
          -98 123 -44 79 112 71 65 92 15 93 callsubr
          32 -319 rmoveto
          -41 -15 -39 -48 -69 hhcurveto
          -50 -44 27 47 33 31 24 20 11 hvcurveto
          49 -40 61 -23 56 10 rrcurveto
          -220 114 rmoveto
          -15 -8 -6 -5 -12 -10 rrcurveto
          -47 8 -45 27 42 vvcurveto
          51 48 16 38 2 vhcurveto
          1 -48 14 -40 24 -35 rrcurveto
          endchar
        </CharString>
        <CharString name="dvD_G_RA">
          -57 415 401 rmoveto
          156 168 vlineto
          68 callsubr
          -3 -27 -2 -58 -1 -61 -227 -205 rcurveline
          63 -44 163 169 rlineto
          -1 -58 0 -46 0 vvcurveto
          81 -51 rlineto
          405 vlineto
          86 -134 103 callsubr
          endchar
        </CharString>
        <CharString name="dvD_MA">
          201 328 -8 rmoveto
          134 callgsubr
          -49 78 -71 42 20 7 11 18 hvcurveto
          51 199 -152 vlineto
          81 -59 rlineto
          856 152 194 callgsubr
          -875 213 callgsubr
          353 -84 -95 hlineto
          -124 -61 -61 -93 -65 29 -60 49 -46 hvcurveto
          -46 46 64 -30 61 hhcurveto
          13 16 2 4 12 hvcurveto
          -86 vlineto
          78 400 rmoveto
          165 201 -565 -199 121 vlineto
          33 26 22 31 26 vvcurveto
          39 -46 51 -39 -34 -16 -35 -40 vhcurveto
          -44 vlineto
          0 -23 -23 -50 -74 -65 52 82 89 60 25 90 vhcurveto
          endchar
        </CharString>
        <CharString name="dvD_NA">
          -43 43 callgsubr
          29 -28 35 -23 42 -6 -88 -46 rcurveline
          -19 -10 -17 -13 -21 vvcurveto
          -50 87 -40 41 16 17 8 16 5 -2 7 -5 11 vhcurveto
          -6 15 -10 18 -11 20 146 90 rcurveline
          -96 callgsubr
          endchar
        </CharString>
        <CharString name="dvD_R">
          -46 43 callgsubr
          33 -32 43 -25 43 -8 -148 -87 rcurveline
          66 -46 218 151 -96 callgsubr
          21 -546 rmoveto
          8 16 18 3 16 hhcurveto
          82 59 -100 -47 36 hvcurveto
          41 29 rlineto
          75 -56 -78 122 -109 hhcurveto
          -26 -26 -8 -13 -22 hvcurveto
          endchar
        </CharString>
        <CharString name="dvD_RA">
          -43 43 callgsubr
          33 -32 45 -27 44 -5 -155 -93 rcurveline
          66 -46 222 156 -96 callgsubr
          endchar
        </CharString>
        <CharString name="dvD_VA">
          -21 426 392 179 callsubr
          -632 213 callgsubr
          363 197 callsubr
          -56 23 -51 38 -42 hvcurveto
          -15 callgsubr
          1 -326 rmoveto
          247 callsubr
          rrcurveto
          -93 -25 -58 -69 -62 hhcurveto
          209 callsubr
          rrcurveto
          endchar
        </CharString>
        <CharString name="dvD_YA">
          42 449 557 rmoveto
          -348 vlineto
          -47 -40 -92 -63 86 callsubr
          112 -549 rmoveto
          108 callsubr
          -92 104 -87 114 64 63 38 38 40 vhcurveto
          endchar
        </CharString>
        <CharString name="dvD_Y_RA">
          42 449 557 rmoveto
          -348 vlineto
          -55 -57 -75 -55 86 callsubr
          -178 -601 rmoveto
          66 -46 226 201 -2 -103 108 callsubr
          -90 101 -82 100 5 vhcurveto
          endchar
        </CharString>
        <CharString name="dvE">
          -16 587 -6 callgsubr
          -653 19 callsubr
          -12 38 -43 31 vhcurveto
          -199 149 rlineto
          -44 35 -8 6 54 vvcurveto
          286 216 -195 vlineto
          -53 -21 -26 -48 139 callgsubr
          endchar
        </CharString>
        <CharString name="dvEcandra">
          -12 592 -6 callgsubr
          -653 19 callsubr
          -13 38 -42 31 vhcurveto
          -199 149 rlineto
          -44 35 -9 6 54 vvcurveto
          286 217 -195 vlineto
          -53 -22 -26 -47 139 callgsubr
          -555 295 rmoveto
          -80 49 72 -71 96 hhcurveto
          87 55 166 callgsubr
          -69 -47 62 50 -31 hvcurveto
          endchar
        </CharString>
        <CharString name="dvEight">
          -34 435 185 rmoveto
          -83 -26 -55 -77 -88 hhcurveto
          -68 -57 55 58 28 9 30 28 36 hvcurveto
          254 349 -73 47 -263 -345 rlineto
          -35 -47 -7 -35 -33 vvcurveto
          -91 125 -128 117 129 52 109 79 30 vhcurveto
          -68 49 rlineto
          endchar
        </CharString>
        <CharString name="dvEyelash">
          -393 303 71 callsubr
          -324 -95 callsubr
          -22 -238 rmoveto
          -62 66 68 -28 64 hhcurveto
          64 59 23 32 49 hvcurveto
          -46 75 rlineto
          -33 -52 -54 -21 -51 hhcurveto
          -43 -49 15 36 -46 hvcurveto
          endchar
        </CharString>
        <CharString name="dvEyelash_HA">
          112 605 381 150 callgsubr
          -783 -95 callsubr
          538 -98 -157 128 callgsubr
          -8 1 -9 2 -9 hvcurveto
          -24 -43 -44 -14 -42 210 callsubr
          50 47 14 22 42 hvcurveto
          9 -11 10 -10 11 -11 rrcurveto
          181 callgsubr
          -138 202 -115 266 callgsubr
          86 108 -62 callgsubr
          endchar
        </CharString>
        <CharString name="dvEyelash_YA">
          208 615 306 43 callsubr
          -880 -95 callsubr
          357 hlineto
          38 -79 callsubr
          -13 -6 -5 -7 -1 -11 rrcurveto
          -18 -38 -38 -11 -36 210 callsubr
          39 37 8 14 34 hvcurveto
          -71 45 92 -70 75 -103 callgsubr
        </CharString>
        <CharString name="dvFive">
          37 319 -44 rmoveto
          272 -78 451 172 -26 hvcurveto
          -86 39 14 -72 12 -91 7 -74 rlinecurve
          -36 -27 -50 -38 -55 hhcurveto
          -69 -46 62 66 56 20 45 27 46 hvcurveto
          -79 44 rlineto
          -30 -65 -11 -41 -52 vvcurveto
          -127 132 -101 91 44 39 25 22 25 vhcurveto
          -134 2 -21 -127 -125 hhcurveto
          -18 -18 6 7 -10 hvcurveto
          50 -30 -37 66 -35 hhcurveto
          -31 -25 -30 -29 -53 76 -45 53 -22 hvcurveto
          118 -206 49 34 -107 156 rlineto
          -1 5 14 -3 14 hhcurveto
          endchar
        </CharString>
        <CharString name="dvFour">
          38 289 375 rmoveto
          -223 255 -42 -33 230 -262 -74 -84 rlineto
          -32 -36 -17 -26 -40 vvcurveto
          -84 104 -111 96 98 49 71 63 55 -32 61 -49 55 vhcurveto
          -47 57 210 260 -63 50 rlineto
          -276 -476 rmoveto
          14 62 73 6 7 vhcurveto
          29 28 rlineto
          39 -39 46 -51 -61 vvcurveto
          -64 -48 -39 -59 -74 -37 72 60 36 vhcurveto
          endchar
        </CharString>
        <CharString name="dvG">
          -300 303 -6 callgsubr
          -374 -93 callsubr
          157 vlineto
          endchar
        </CharString>
        <CharString name="dvGA">
          -56 440 557 rmoveto
          159 hlineto
          -52 72 rlineto
          -618 -93 callsubr
          154 -543 vlineto
          88 -60 rlineto
          endchar
        </CharString>
        <CharString name="dvGH">
          -206 442 256 rmoveto
          -63 -48 -59 -52 -77 33 callsubr
          -26 82 rlineto
          -20 callsubr
          234 99 callsubr
          -467 -12 callgsubr
          -105 121 -101 117 56 70 33 91 64 vhcurveto
          endchar
        </CharString>
        <CharString name="dvGHA">
          32 310 385 rmoveto
          -20 callsubr
          227 -302 hlineto
          -48 -32 -64 -66 -85 33 callsubr
          192 -349 217 callsubr
          -705 -12 callgsubr
          -105 121 -101 117 50 50 26 45 42 vhcurveto
          -5 -127 rlineto
          endchar
        </CharString>
        <CharString name="dvGH_MA">
          350 759 29 callgsubr
          -449 -172 rmoveto
          -20 callsubr
          250 196 callsubr
          -17 10 -20 14 -20 hvcurveto
          -48 -43 -51 -35 -63 33 callsubr
          618 326 rmoveto
          -1024 -12 callgsubr
          -105 121 -101 117 51 62 27 72 58 vhcurveto
          -13 18 18 -8 13 hhcurveto
          18 8 11 18 hvcurveto
          -65 callsubr
        </CharString>
        <CharString name="dvGH_NA">
          32 310 385 rmoveto
          -20 callsubr
          227 hlineto
          2 -303 rlineto
          -66 -48 -68 -47 -67 33 callsubr
          348 254 rmoveto
          -49 72 rlineto
          -705 -12 callgsubr
          -96 111 -103 101 5 vhcurveto
          -89 -77 157 callsubr
          -10 14 159 155 rcurveline
          -3 -130 46 callsubr
          vlineto
          endchar
        </CharString>
        <CharString name="dvGH_R">
          -206 149 -40 rmoveto
          65 -45 281 279 -56 57 rlineto
          -49 -41 -63 -61 -77 33 callsubr
          -26 82 rlineto
          -20 callsubr
          234 99 callsubr
          -467 -12 callgsubr
          -96 110 -105 113 3 vhcurveto
          endchar
        </CharString>
        <CharString name="dvGH_RA">
          39 327 385 rmoveto
          4 -20 -24 3 -22 hhcurveto
          -20 -20 -2 -4 -20 hvcurveto
          -25 22 -17 26 30 vvcurveto
          43 34 39 36 11 vhcurveto
          217 -318 hlineto
          -46 -40 -59 -52 -72 hhcurveto
          -61 -56 40 55 63 64 13 55 29 28 -4 -5 19 hvcurveto
          -187 -343 rmoveto
          65 -45 218 215 -3 -122 89 -54 178 callsubr
          -702 -95 callsubr
          59 hlineto
          63 2 rlineto
          -23 -17 -12 -31 -26 vvcurveto
          -42 29 -44 43 -27 vhcurveto
          -41 -19 -28 -32 -48 vvcurveto
          -96 110 -105 114 3 vhcurveto
          endchar
        </CharString>
        <CharString name="dvGH_YA">
          347 754 306 -106 callgsubr
          -444 -172 rmoveto
          -20 callsubr
          264 -45 callgsubr
          -30 17 -36 27 -35 vhcurveto
          -50 -44 -52 -38 -66 33 callsubr
          613 326 rmoveto
          -1019 -12 callgsubr
          -105 121 -101 117 52 63 28 76 60 vhcurveto
          -36 44 51 -25 45 -103 callgsubr
        </CharString>
        <CharString name="dvG_BA">
          294 598 185 9 callsubr
          -968 -93 callsubr
          503 vlineto
          64 callgsubr
          603 156 vlineto
          endchar
        </CharString>
        <CharString name="dvG_BHA">
          270 873 15 callsubr
          -374 -93 callsubr
          138 vlineto
          114 callgsubr
        </CharString>
        <CharString name="dvG_BH_YA">
          609 1017 306 43 callsubr
          -695 -37 callsubr
          173 hlineto
          -46 callsubr
          -2 -3 vvcurveto
          -152 -39 callsubr
          -376 -93 callsubr
          141 vlineto
          40 181 callsubr
          -20 vlineto
          87 callgsubr
          188 vlineto
          -66 48 85 -63 71 -103 callgsubr
        </CharString>
        <CharString name="dvG_DA">
          228 695 49 callsubr
          -903 -93 callsubr
          408 -112 -97 vlineto
          95 callgsubr
          -44 46 58 -28 58 hhcurveto
          33 32 10 15 28 hvcurveto
          -96 callgsubr
          endchar
        </CharString>
        <CharString name="dvG_DHA">
          -583 endchar
        </CharString>
        <CharString name="dvG_DH_VA">
          653 1256 73 callsubr
          -22 8 -21 hvcurveto
          -50 -41 -56 -45 -70 -49 callsubr
          -612 -93 callsubr
          157 1 38 vlineto
          -15 callsubr
          -111 115 -95 108 47 69 29 65 60 vhcurveto
          -48 43 59 -31 55 hhcurveto
          -74 callsubr
        </CharString>
        <CharString name="dvG_DH_YA">
          681 1089 306 rmoveto
          -55 -31 -55 -61 -87 hhcurveto
          -47 29 callsubr
          -648 -95 callsubr
          124 hlineto
          39 -79 callgsubr
          -21 9 -25 15 -26 vhcurveto
          -55 -41 -60 -53 -76 -49 callsubr
          -621 -93 callsubr
          157 0 vlineto
          47 1 rlineto
          -15 callsubr
          -111 115 -95 108 52 78 35 80 64 vhcurveto
          -46 48 61 -35 110 callgsubr
        </CharString>
        <CharString name="dvG_GA">
          195 798 -6 callgsubr
          -869 -93 callsubr
          165 -210 vlineto
          -36 -31 -6 -26 -47 78 -82 45 23 7 17 44 hvcurveto
          204 callgsubr
        </CharString>
        <CharString name="dvG_GHA">
          321 728 255 rmoveto
          -48 -32 -64 -66 -85 33 callsubr
          -26 82 rlineto
          -20 callsubr
          227 hlineto
          196 72 rmoveto
          -995 -93 callsubr
          157 vlineto
          -1 1 31 1 rlineto
          -24 -17 -12 -31 -26 vvcurveto
          -42 29 -44 43 -27 vhcurveto
          -41 -19 -27 -32 -48 vvcurveto
          -105 121 -101 117 50 50 26 45 42 vhcurveto
          -5 -127 274 callgsubr
        </CharString>
        <CharString name="dvG_JA">
          417 1020 -6 callgsubr
          -1091 -93 callsubr
          626 -145 -300 vlineto
          83 callsubr
          89 -57 rlineto
          603 157 vlineto
          endchar
        </CharString>
        <CharString name="dvG_LA">
          446 1048 -6 callgsubr
          -1119 -93 callsubr
          655 -155 vlineto
          19 -29 -37 12 -34 -107 callsubr
          66 25 60 79 92 callgsubr
          -334 -19 callsubr
          157 vlineto
          endchar
        </CharString>
        <CharString name="dvG_MA">
          283 690 29 callgsubr
          78 callgsubr
          -956 -93 callsubr
          195 -236 -13 vlineto
          134 callgsubr
          -51 89 -85 274 callsubr
          18 hvcurveto
          -65 callsubr
        </CharString>
        <CharString name="dvG_NA">
          -56 440 557 rmoveto
          159 hlineto
          -52 72 rlineto
          -618 hlineto
          51 -72 rlineto
          132 -192 hlineto
          -36 -31 -6 -27 -47 78 -82 45 23 7 18 43 hvcurveto
          293 154 -299 vlineto
          -239 -201 rlineto
          -18 -14 -10 -13 -14 vvcurveto
          -48 82 -25 47 26 21 10 16 6 -3 6 -6 8 261 callgsubr
          -10 14 141 133 rcurveline
          -159 vlineto
          88 -60 rlineto
          endchar
        </CharString>
        <CharString name="dvG_NNA">
          448 621 321 -37 callgsubr
          429 72 rmoveto
          -1121 -93 callsubr
          164 -194 vlineto
          -52 29 -62 54 -45 vhcurveto
          13 callgsubr
          endchar
        </CharString>
        <CharString name="dvG_N_YA">
          291 699 306 43 callsubr
          -965 -93 callsubr
          223 155 callgsubr
          -232 -200 rlineto
          -17 -14 -10 -13 -14 vvcurveto
          -48 81 -25 48 26 20 10 16 6 -2 6 -7 8 264 callsubr
          32 -11 14 175 169 rcurveline
          -48 48 63 -37 55 -103 callgsubr
        </CharString>
        <CharString name="dvG_R">
          -300 303 -6 callgsubr
          -374 -93 callsubr
          157 vlineto
          17 -300 rmoveto
          -290 -256 66 -46 268 260 rlineto
          endchar
        </CharString>
        <CharString name="dvG_RA">
          61 callgsubr
          endchar
        </CharString>
        <CharString name="dvG_R_YA">
          292 700 306 43 callsubr
          -966 -93 callsubr
          224 155 callgsubr
          -274 -242 66 -46 248 241 rlineto
          -48 48 64 -38 55 -103 callgsubr
        </CharString>
        <CharString name="dvG_SA">
          361 771 -13 callsubr
          276 callsubr
          -1035 -93 callsubr
          257 -215 vlineto
          -68 callgsubr
          -44 -39 18 callsubr
          131 callsubr
          endchar
        </CharString>
        <CharString name="dvG_VA">
          283 886 -6 callgsubr
          -957 -93 callsubr
          492 vlineto
          -90 callsubr
          -82 -82 -64 -108 -116 116 -103 99 -74 callsubr
        </CharString>
        <CharString name="dvG_YA">
          305 712 306 43 callsubr
          -978 -93 callsubr
          236 vlineto
          -11 callgsubr
        </CharString>
        <CharString name="dvGx">
          -300 303 -6 callgsubr
          -374 -93 callsubr
          157 vlineto
          -270 -610 -51 callsubr
          endchar
        </CharString>
        <CharString name="dvGxA">
          -42 447 557 rmoveto
          159 hlineto
          -52 72 rlineto
          -618 -93 callsubr
          154 -543 vlineto
          88 -60 rlineto
          -351 18 -51 callsubr
          endchar
        </CharString>
        <CharString name="dvGx_R">
          -300 303 -6 callgsubr
          -374 -93 callsubr
          157 vlineto
          17 -300 rmoveto
          -290 -256 66 -46 268 260 rlineto
          -157 -265 -51 callsubr
          endchar
        </CharString>
        <CharString name="dvGx_RA">
          61 callgsubr
          -380 -630 -51 callsubr
          endchar
        </CharString>
        <CharString name="dvH">
          -98 309 208 rmoveto
          281 hlineto
          -55 76 rlineto
          -265 hlineto
          -30 -31 -8 -14 -27 hvcurveto
          -15 16 -17 22 28 vvcurveto
          44 34 9 51 vhcurveto
          191 176 128 99 callsubr
          -575 -95 callsubr
          359 -98 -165 128 callgsubr
          -38 19 -46 54 -51 hvcurveto
          -36 -31 -24 -44 -50 vvcurveto
          -137 203 -118 266 callgsubr
          90 108 vvcurveto
          78 75 48 74 vhcurveto
          endchar
        </CharString>
        <CharString name="dvHA">
          39 callsubr
          -138 202 -115 266 callgsubr
          86 108 vvcurveto
          77 76 54 74 51 25 -27 -29 -34 -29 -45 -56 -24 vhcurveto
          endchar
        </CharString>
        <CharString name="dvHA_mU">
          -77 324 -112 rmoveto
          -72 43 -92 67 80 vvcurveto
          77 76 54 74 51 25 -27 -29 -34 -29 -45 -56 -24 vhcurveto
          62 -67 rlineto
          51 callgsubr
          -99 105 -88 82 -55 vhcurveto
          -23 -20 -12 -32 -33 vvcurveto
          67 -40 3 37 16 31 26 9 rlinecurve
          0 vlineto
          1 1 rlineto
          1 5 5 1 5 102 callgsubr
          endchar
        </CharString>
        <CharString name="dvHA_mUU">
          39 callsubr
          -84 76 -76 73 -55 vhcurveto
          -55 -15 -40 -44 -60 vvcurveto
          -70 82 -87 76 58 34 42 56 9 vhcurveto
          234 callgsubr
          55 51 26 38 76 81 -79 -101 68 hvcurveto
          37 33 -59 93 -82 100 -99 25 rlinecurve
          -72 43 -86 66 77 vvcurveto
          77 76 54 74 51 25 -27 -29 -34 -29 -45 -56 -24 vhcurveto
          endchar
        </CharString>
        <CharString name="dvHA_mvR">
          -8 460 145 rmoveto
          67 -103 67 -80 -33 -35 -8 -14 -31 vhcurveto
          -18 15 -21 25 31 182 callsubr
          192 176 228 99 callsubr
          -673 155 callsubr
          -161 208 -117 52 -31 vhcurveto
          47 33 rlineto
          -49 27 -180 94 119 vvcurveto
          86 84 49 72 38 35 -13 -23 -11 -17 -11 -15 -8 vhcurveto
          -38 -23 -42 -23 -44 vvcurveto
          -71 85 -71 73 55 56 34 31 31 vhcurveto
          -51 49 rlineto
          -33 -35 -39 -21 -45 hhcurveto
          -32 -33 15 36 hvcurveto
          60 133 21 49 vvcurveto
          endchar
        </CharString>
        <CharString name="dvH_LA">
          -4 334 -66 rmoveto
          -41 30 -38 40 49 vvcurveto
          35 24 17 27 16 11 -6 -5 7 vhcurveto
          -3 -12 -1 -6 -12 vvcurveto
          -15 4 -17 7 -15 vhcurveto
          48 -20 rlineto
          -5 15 -4 17 16 vvcurveto
          33 12 31 39 6 6 0 -2 6 vhcurveto
          -140 vlineto
          70 -51 rlineto
          177 vlineto
          82 -116 109 -128 27 callsubr
          70 52 -33 -32 12 vhcurveto
          6 -14 -14 4 -15 hhcurveto
          -24 -19 -12 -15 -11 hvcurveto
          14 -16 -21 14 -34 hhcurveto
          -50 -35 -35 -49 -75 63 -54 40 -33 hvcurveto
          endchar
        </CharString>
        <CharString name="dvH_MA">
          181 337 103 rmoveto
          134 callgsubr
          -51 84 -83 274 callsubr
          18 hvcurveto
          62 165 -170 vlineto
          81 -50 rlineto
          757 156 275 callsubr
          -862 -95 callsubr
          334 -98 -143 128 callgsubr
          -38 20 -46 54 -51 hvcurveto
          -37 -31 -24 -46 1 -54 1 -161 205 -114 54 -29 47 33 rcurveline
          -49 26 -180 90 119 vvcurveto
          86 77 51 68 49 12 -31 -36 vhcurveto
          -34 vlineto
          42 454 rmoveto
          203 -454 -165 25 hlineto
          42 -79 109 -91 -30 -30 -6 -12 -28 vhcurveto
          -17 16 -17 23 28 182 callsubr
          169 hlineto
          endchar
        </CharString>
        <CharString name="dvH_NA">
          -35 421 381 rmoveto
          176 199 263 callsubr
          -648 -95 callsubr
          362 -98 -171 183 callgsubr
          21 -47 57 -53 hvcurveto
          -38 -32 -26 -45 -50 vvcurveto
          -161 207 -107 53 -31 vhcurveto
          47 33 rlineto
          -49 26 -180 85 119 vvcurveto
          86 86 57 79 32 25 -9 -15 19 vhcurveto
          -154 -110 rlineto
          -16 -12 -10 -12 -14 vvcurveto
          -39 67 -30 50 22 17 9 14 5 -2 5 -5 7 vhcurveto
          -2 5 -26 34 -9 13 100 75 rcurveline
          -156 vlineto
          70 -51 -1 164 rlineto
          74 -110 117 -101 -35 -34 -10 -15 -32 vhcurveto
          -17 16 -19 23 30 182 callsubr
          endchar
        </CharString>
        <CharString name="dvH_NNA">
          -26 524 -96 rmoveto
          189 vlineto
          79 -121 112 -116 -46 -39 -9 -16 -32 vhcurveto
          -16 15 -15 23 31 182 callsubr
          210 176 186 78 callsubr
          -648 -95 callsubr
          375 -98 -184 221 callgsubr
          -45 54 -52 hvcurveto
          -43 -34 -23 -49 -54 vvcurveto
          -160 223 -118 52 -30 vhcurveto
          47 30 rlineto
          -49 27 -198 99 119 vvcurveto
          43 18 37 33 26 vhcurveto
          -65 vlineto
          -31 13 -32 30 -27 vhcurveto
          -27 29 34 -14 25 hhcurveto
          54 32 42 48 hvcurveto
          126 vlineto
          30 -15 20 -23 -23 vvcurveto
          -174 vlineto
          -130 256 rmoveto
          5 9 -2 -1 6 hvcurveto
          -125 vlineto
          -41 -16 -16 -30 -32 -18 25 39 vhcurveto
          108 vlineto
          8 22 26 5 28 hhcurveto
          endchar
        </CharString>
        <CharString name="dvH_RA">
          -45 280 -20 rmoveto
          132 146 rlineto
          -142 vlineto
          70 -50 rlineto
          159 vlineto
          74 -111 117 -101 -33 -33 -9 -15 -31 vhcurveto
          -16 16 -18 23 29 182 callsubr
          205 176 185 78 callsubr
          -642 -95 callsubr
          370 -98 -179 239 callgsubr
          56 -52 hvcurveto
          -38 -33 -24 -45 -51 vvcurveto
          -161 212 -112 52 -30 vhcurveto
          47 32 rlineto
          -49 27 -184 89 119 vvcurveto
          86 80 57 79 30 31 -12 -16 18 vhcurveto
          -168 -153 rlineto
          endchar
        </CharString>
        <CharString name="dvH_VA">
          -3 514 -78 rmoveto
          171 vlineto
          82 -116 109 -117 27 callsubr
          46 44 -21 -24 21 vhcurveto
          2 -5 1 -4 1 -6 rrcurveto
          12 -32 -33 8 -35 hhcurveto
          -84 -58 -64 -52 -56 61 -62 70 49 43 44 51 29 hvcurveto
          -59 vlineto
          -155 16 rmoveto
          -21 -15 12 25 54 63 40 59 13 21 -2 -3 13 hvcurveto
          -53 -29 -53 -73 -51 hhcurveto
          endchar
        </CharString>
        <CharString name="dvH_YA">
          167 67 103 rmoveto
          -161 208 -115 52 -31 vhcurveto
          47 33 rlineto
          -49 26 -180 93 119 vvcurveto
          86 84 49 72 42 31 -16 -23 -15 -34 -24 -55 -30 vhcurveto
          -12 -8 -13 -8 -17 vvcurveto
          -65 110 -108 88 54 45 32 31 32 vhcurveto
          -3 -138 77 -46 rlineto
          790 156 275 callsubr
          -848 155 callsubr
          72 225 rmoveto
          44 35 9 50 vhcurveto
          192 176 171 -495 hlineto
          -47 -28 -68 -57 -63 hhcurveto
          -37 -49 22 38 15 11 8 17 11 hvcurveto
          41 26 45 26 31 vvcurveto
          67 -99 77 -80 -33 -35 -8 -14 -31 vhcurveto
          -18 15 -21 25 31 vvcurveto
          endchar
        </CharString>
        <CharString name="dvI">
          -38 487 121 rmoveto
          67 -71 88 -74 vhcurveto
          -46 -53 -37 -50 hhcurveto
          -35 -21 27 36 49 40 26 45 hvcurveto
          216 180 166 99 callsubr
          -607 -95 callsubr
          353 -98 -152 hlineto
          -71 -58 -43 -68 -88 93 -97 65 hvcurveto
          61 52 38 37 hhcurveto
          26 20 -22 -26 -75 -122 -44 -72 4 hvcurveto
          50 -38 -39 44 -26 hhcurveto
          -29 -27 -19 -25 -49 79 -57 69 -17 hvcurveto
          143 -179 57 38 -132 139 rlineto
          90 9 110 61 88 vvcurveto
          endchar
        </CharString>
        <CharString name="dvII">
          -39 530 867 -24 callgsubr
        </CharString>
        <CharString name="dvII_Anusvara">
          -39 441 729 rmoveto
          56 -56 56 56 -57 55 rlineto
          34 83 -24 callgsubr
        </CharString>
        <CharString name="dvJ">
          -107 546 127 callgsubr
          -566 -95 callsubr
          575 -145 rmoveto
          -318 -99 callgsubr
          262 hlineto
          endchar
        </CharString>
        <CharString name="dvJA">
          129 35 callsubr
          endchar
        </CharString>
        <CharString name="dvJH">
          -73 579 71 callsubr
          -600 199 callsubr
          -86 -144 hlineto
          -76 -52 -40 -67 -87 93 -93 64 hvcurveto
          -69 callgsubr
          -7 24 23 -4 21 hhcurveto
          45 45 27 29 33 hvcurveto
          -48 63 rlineto
          -41 -37 -40 -14 -43 hhcurveto
          -38 -35 11 5 -30 hvcurveto
          2 -11 -11 1 -13 30 callsubr
          hlineto
          endchar
        </CharString>
        <CharString name="dvJHA">
          167 663 205 callsubr
          -840 -95 callsubr
          353 -86 -144 hlineto
          -76 -52 -40 -67 -87 93 -93 64 hvcurveto
          41 callgsubr
          rlineto
          323 vmoveto
          -42 -31 -36 -14 -38 -67 -36 19 -43 30 callsubr
          155 hlineto
          endchar
        </CharString>
        <CharString name="dvJH_MA">
          486 894 321 104 callsubr
          -31 -22 -9 -22 -4 hvcurveto
          -9 -20 -22 -3 -22 hhcurveto
          -38 -35 11 5 -30 hvcurveto
          2 -11 -11 1 -13 30 callsubr
          176 hlineto
          492 72 rmoveto
          -1159 199 callsubr
          -86 -144 hlineto
          -76 -52 -40 -67 -87 93 -93 64 hvcurveto
          -69 callgsubr
          -7 24 23 -4 21 hhcurveto
          15 14 3 5 14 hvcurveto
          -40 30 48 -37 28 hhcurveto
          18 8 11 18 hvcurveto
          -65 callsubr
        </CharString>
        <CharString name="dvJH_NA">
          233 729 205 callsubr
          -906 27 callgsubr
          32 37 9 33 41 hvcurveto
          -158 -253 rlineto
          -9 -15 -6 -14 -11 vvcurveto
          -37 45 -11 40 32 63 7 30 11 -7 6 -8 7 vhcurveto
          -6 7 -42 28 -6 4 85 164 rcurveline
          -4 -171 rlineto
          1 343 rmoveto
          -41 -47 -58 -33 -63 134 callsubr
          218 hlineto
          endchar
        </CharString>
        <CharString name="dvJH_R">
          -63 437 -61 rmoveto
          66 -46 197 396 -58 64 rlineto
          -41 -47 -57 -34 -64 134 callsubr
          165 99 callsubr
          -610 27 callgsubr
          36 36 11 31 39 hvcurveto
          endchar
        </CharString>
        <CharString name="dvJH_RA">
          233 438 -61 rmoveto
          65 -46 142 281 -4 -165 184 callgsubr
          157 275 callsubr
          -909 -95 callsubr
          359 -86 -144 hlineto
          -76 -53 -40 -67 -87 93 -93 65 hvcurveto
          50 48 38 42 hhcurveto
          29 19 -21 -26 -73 -106 -42 -80 1 hvcurveto
          51 -39 -39 47 -26 hhcurveto
          -29 -27 -20 -26 -49 77 -57 70 -17 hvcurveto
          146 -182 57 38 -132 141 rlineto
          83 11 108 59 87 vvcurveto
          23 -10 34 -26 28 vhcurveto
          -8 24 30 -6 21 hhcurveto
          43 40 12 38 48 hvcurveto
          -168 13 rmoveto
          -51 -37 12 6 -35 hvcurveto
          -8 -8 1 -8 30 callsubr
          218 -200 hlineto
          -47 -44 -50 -32 -73 hhcurveto
          endchar
        </CharString>
        <CharString name="dvJH_YA">
          514 921 306 -106 callgsubr
          -500 -164 rmoveto
          164 222 vlineto
          -75 callsubr
          -9 2 -9 2 -10 vhcurveto
          -17 -26 -28 -7 -30 hhcurveto
          -38 -35 11 5 -30 hvcurveto
          2 -11 -11 1 -13 -41 -53 -38 -46 hhcurveto
          -35 -22 29 36 48 42 21 43 hvcurveto
          903 236 rmoveto
          -1186 199 callsubr
          -86 -144 hlineto
          -76 -52 -40 -67 -87 93 -93 64 hvcurveto
          -69 callgsubr
          -7 24 23 -4 21 hhcurveto
          26 25 9 13 23 hvcurveto
          -66 49 84 -60 69 -103 callgsubr
        </CharString>
        <CharString name="dvJ_BA">
          473 777 185 9 callsubr
          -1146 -95 callsubr
          900 40 callgsubr
          -47 -52 -24 -42 -33 hvcurveto
          -317 -99 callgsubr
          174 hlineto
          -1 -9 -1 -10 -10 84 callgsubr
        </CharString>
        <CharString name="dvJ_DA">
          432 899 49 callsubr
          -1106 -95 callsubr
          830 228 callsubr
          -50 -40 -12 -21 -29 hvcurveto
          -357 -99 callgsubr
          193 hlineto
          -5 -17 -3 -18 -19 vvcurveto
          -68 37 -68 51 -47 vhcurveto
          -44 46 58 -28 58 hhcurveto
          33 32 10 15 28 hvcurveto
          -96 callgsubr
          endchar
        </CharString>
        <CharString name="dvJ_DDA">
          392 883 377 180 callgsubr
          -1065 -95 callsubr
          818 -102 -143 hlineto
          -49 -36 -16 -27 -21 hvcurveto
          -312 -99 callgsubr
          183 hlineto
          -89 6 84 -84 67 -57 callgsubr
        </CharString>
        <CharString name="dvJ_JA">
          615 1218 -6 callgsubr
          -1287 -95 callsubr
          1041 154 callgsubr
          -1 -1 -2 8 rlineto
          -320 hlineto
          -9 -13 rlineto
          57 149 callgsubr
          34 callgsubr
          -35 vhcurveto
          -48 -28 rlineto
          -135 46 74 -181 143 hhcurveto
          80 -1 callgsubr
          183 hlineto
          -127 47 73 -146 127 -28 callsubr
        </CharString>
        <CharString name="dvJ_JHA">
          633 1041 334 rmoveto
          -42 -31 -36 -14 -38 -67 -36 19 -43 30 callsubr
          155 hlineto
          78 callgsubr
          -1306 -95 callsubr
          819 -86 -144 hlineto
          -56 -42 -21 -38 -19 hvcurveto
          -301 -99 callgsubr
          185 hlineto
          -77 18 79 -73 57 28 callsubr
        </CharString>
        <CharString name="dvJ_J_NYA">
          588 1191 -6 callgsubr
          -1261 -95 callsubr
          1016 -145 -759 -99 callgsubr
          394 hlineto
          34 -40 26 -43 -44 vvcurveto
          -59 -35 -35 -59 -32 -21 11 9 -11 vhcurveto
          60 -29 -27 82 -31 hhcurveto
          -27 -19 -23 -27 -34 38 -47 55 -46 hvcurveto
          1 -1 104 -211 0 vvcurveto
          56 36 -78 130 rlineto
          -4 16 16 -3 18 hhcurveto
          81 52 59 71 60 -27 55 -46 44 hvcurveto
          202 -323 hlineto
          141 callsubr
        </CharString>
        <CharString name="dvJ_J_VA">
          963 1566 -6 callgsubr
          -1636 -95 callsubr
          1390 -92 callgsubr
          -63 -64 -38 -68 -25 hvcurveto
          17 -39 -51 19 -38 hhcurveto
          -171 11 callgsubr
          118 hlineto
          13 26 -3 -4 24 hvcurveto
          -1 -6 0 -5 -6 vvcurveto
          -54 callsubr
        </CharString>
        <CharString name="dvJ_J_YA">
          996 1404 306 43 callsubr
          -1669 -95 callsubr
          1146 86 callgsubr
          -22 -26 -112 -57 vhcurveto
          25 -32 -47 24 -68 hhcurveto
          -180 11 callgsubr
          112 hlineto
          34 27 -10 -12 21 hvcurveto
          -84 17 125 -118 97 -103 callgsubr
        </CharString>
        <CharString name="dvJ_KA">
          674 1325 71 callsubr
          -1346 -95 callsubr
          839 -296 hlineto
          -54 -26 206 callsubr
          -50 48 60 73 callgsubr
          18 21 -2 -8 21 hvcurveto
          -26 79 rlineto
          10 -24 -25 4 -24 hhcurveto
          -44 -44 -17 -34 -29 hvcurveto
          -300 -99 callgsubr
          161 hlineto
          -1 -5 0 -6 -6 vvcurveto
          67 callgsubr
          vhcurveto
          -5 -135 89 -55 rlineto
          -97 callgsubr
          endchar
        </CharString>
        <CharString name="dvJ_MA">
          491 899 29 callgsubr
          78 callgsubr
          -1164 -95 callsubr
          622 -234 hlineto
          33 -24 -57 56 -104 hhcurveto
          -180 -99 callgsubr
          112 hlineto
          37 28 -12 -13 21 hvcurveto
          -8 -6 -4 -9 -13 vvcurveto
          -51 89 -85 274 callsubr
          18 vhcurveto
          -65 callsubr
        </CharString>
        <CharString name="dvJ_NA">
          226 634 9 rmoveto
          89 -55 218 callgsubr
          -899 -95 callsubr
          655 hlineto
          2 -224 rlineto
          48 -48 -73 48 -100 hhcurveto
          -183 hlineto
          -9 -14 rlineto
          58 -56 56 220 callsubr
          144 callsubr
          109 -35 vhcurveto
          -47 -27 rlineto
          -135 46 73 -181 143 120 callsubr
          88 hlineto
          101 75 -28 -59 36 hvcurveto
          -239 -216 rlineto
          -18 -15 -9 -12 -15 vvcurveto
          -47 78 -24 48 26 20 10 16 6 -2 6 -7 142 callgsubr
          140 149 rcurveline
          endchar
        </CharString>
        <CharString name="dvJ_NY">
          -104 549 127 callgsubr
          -569 -95 callsubr
          594 -145 rmoveto
          -337 -13 callgsubr
          283 hlineto
          endchar
        </CharString>
        <CharString name="dvJ_NYA">
          138 635 205 callsubr
          -812 -95 callsubr
          566 -145 -309 -13 callgsubr
          201 -323 hlineto
          endchar
        </CharString>
        <CharString name="dvJ_NY_YA">
          490 898 306 43 callsubr
          -1163 -95 callsubr
          640 143 callsubr
          -20 -25 -104 -54 vhcurveto
          21 -33 -54 23 -76 hhcurveto
          -158 -13 callgsubr
          78 hlineto
          41 35 -16 -16 25 hvcurveto
          -83 24 120 -109 93 -103 callgsubr
        </CharString>
        <CharString name="dvJ_R">
          215 callgsubr
          -317 -128 36 callgsubr
        </CharString>
        <CharString name="dvJ_RA">
          6 callgsubr
          endchar
        </CharString>
        <CharString name="dvJ_TA">
          441 1044 -6 callgsubr
          -1114 -95 callsubr
          871 242 callsubr
          -8 -9 0 -1 -7 hvcurveto
          -425 hlineto
          -9 -14 rlineto
          58 -56 56 -62 -82 callgsubr
          80 45 54 70 53 -24 55 -46 41 hvcurveto
          188 hlineto
          -8 -19 -4 -22 -24 -43 callgsubr
        </CharString>
        <CharString name="dvJ_TTA">
          399 889 360 68 callgsubr
          -1072 -95 callsubr
          821 -116 -97 hlineto
          -43 -37 -11 -18 -28 hvcurveto
          -359 -99 callgsubr
          189 hlineto
          -8 -20 -4 -23 -24 -17 callsubr
        </CharString>
        <CharString name="dvJ_VA">
          467 1070 -6 callgsubr
          -1140 -95 callsubr
          894 -92 callgsubr
          -51 -51 -25 -45 -32 hvcurveto
          -311 -99 callgsubr
          174 hlineto
          -1 -8 0 -8 -8 vvcurveto
          -54 callsubr
        </CharString>
        <CharString name="dvJ_YA">
          499 906 306 43 callsubr
          -1171 -95 callsubr
          648 86 callgsubr
          -21 -25 -108 -56 vhcurveto
          25 -32 -46 22 -66 hhcurveto
          -180 -99 callgsubr
          112 hlineto
          29 24 -7 -10 19 hvcurveto
          -84 12 129 -123 99 -103 callgsubr
        </CharString>
        <CharString name="dvJx">
          -107 18 -15 -51 callsubr
          462 506 rmoveto
          -50 72 rlineto
          -566 -95 callsubr
          575 -145 rmoveto
          -318 -99 callgsubr
          262 hlineto
          endchar
        </CharString>
        <CharString name="dvJxA">
          137 35 callsubr
          -463 -69 -51 callsubr
          endchar
        </CharString>
        <CharString name="dvJx_JxA">
          614 123 -64 rmoveto
          67 -67 67 67 -69 67 rlineto
          387 -68 rmoveto
          68 -66 66 66 -68 67 rlineto
          577 627 rmoveto
          -1288 -95 callsubr
          1042 154 callgsubr
          -2 -1 -1 8 rlineto
          -321 -99 callgsubr
          183 hlineto
          -127 47 73 -146 127 -28 callsubr
        </CharString>
        <CharString name="dvJx_R">
          215 callgsubr
          -527 -551 -51 callsubr
          144 357 36 callgsubr
        </CharString>
        <CharString name="dvJx_RA">
          6 callgsubr
          -616 -268 -51 callsubr
          endchar
        </CharString>
        <CharString name="dvJx_YA">
          494 108 -62 -51 callsubr
          728 302 43 callsubr
          -1167 -95 callsubr
          644 86 callgsubr
          -21 -25 -106 -55 vhcurveto
          25 -31 -46 21 -65 hhcurveto
          -180 -99 callgsubr
          112 hlineto
          27 22 -6 -9 19 hvcurveto
          -84 10 130 -125 100 -103 callgsubr
        </CharString>
        <CharString name="dvK">
          17 716 348 rmoveto
          63 -39 -63 49 -64 hhcurveto
          -87 callgsubr
          223 78 callsubr
          -690 -106 callsubr
          60 32 41 39 58 hhcurveto
          46 32 -28 -40 23 hvcurveto
          endchar
        </CharString>
        <CharString name="dvKA">
          212 447 -10 callsubr
          endchar
        </CharString>
        <CharString name="dvKH">
          -6 callsubr
          endchar
        </CharString>
        <CharString name="dvKHA">
          200 33 -12 callsubr
          endchar
        </CharString>
        <CharString name="dvKH_KHA">
          779 1162 190 rmoveto
          -70 -5 -94 29 81 vvcurveto
          57 41 33 45 61 50 -43 -61 -45 -22 -35 -11 -11 vhcurveto
          -324 367 rmoveto
          349 hlineto
          -1 -165 rlineto
          38 -32 -47 23 -55 259 callsubr
          99 -60 105 -5 hvcurveto
          -43 -36 -50 -27 -69 hhcurveto
          -98 -86 74 65 -42 hvcurveto
          68 9 30 44 55 vvcurveto
          -579 237 rmoveto
          493 -217 hlineto
          -29 -15 -12 -23 -28 -17 15 20 -16 vhcurveto
          -10 21 -16 20 -20 19 rrcurveto
          37 -34 -47 22 -53 -95 callgsubr
          324 -130 -67 callsubr
          799 439 rmoveto
          -1452 -84 callsubr
          111 125 86 127 24 hvcurveto
          -107 72 98 -106 150 hhcurveto
          96 79 68 39 29 hvcurveto
          -5 -94 65 callgsubr
        </CharString>
        <CharString name="dvKH_MA">
          570 978 321 104 callsubr
          -3 -3 0 -2 hhcurveto
          -11 25 -17 25 -25 23 rrcurveto
          113 callgsubr
          422 vlineto
          -98 -367 -67 callsubr
          590 439 rmoveto
          -1243 -84 callsubr
          104 117 76 115 34 hvcurveto
          -25 25 30 -19 21 hhcurveto
          18 8 11 18 hvcurveto
          -65 callsubr
        </CharString>
        <CharString name="dvKH_NA">
          200 851 71 callsubr
          -870 -37 callsubr
          193 -217 hlineto
          -29 -15 -12 -23 -20 259 callgsubr
          79 -130 102 -152 162 -11 rlinecurve
          -114 -77 rlineto
          -22 -14 -8 -13 -15 vvcurveto
          -49 87 -30 45 23 17 9 15 1 vhcurveto
          8 -2 5 -5 7 vhcurveto
          -2 5 -3 4 -33 46 rrcurveto
          0 158 106 5 5 vhcurveto
          18 13 61 52 12 19 -6 -91 rcurveline
          87 -57 rlineto
          603 vlineto
          -222 -104 rmoveto
          -94 callsubr
          237 348 vlineto
          -1 -160 rlineto
          36 -34 -47 20 -52 hhcurveto
          110 -263 -14 callgsubr
          46 59 50 -46 -58 -41 -18 -36 -13 -14 vhcurveto
          endchar
        </CharString>
        <CharString name="dvKH_R">
          -16 callgsubr
          endchar
        </CharString>
        <CharString name="dvKH_RA">
          -30 callsubr
          endchar
        </CharString>
        <CharString name="dvKH_SHA">
          687 583 190 -58 callgsubr
        </CharString>
        <CharString name="dvKH_TA">
          534 944 408 rmoveto
          -165 hlineto
          -64 -46 -19 -35 -27 hvcurveto
          -10 14 -11 13 -14 13 rrcurveto
          113 callgsubr
          685 vlineto
          -361 -367 -67 callsubr
          554 439 rmoveto
          -1207 -84 callsubr
          87 97 54 85 48 hvcurveto
          26 -62 40 -64 45 -57 -18 callgsubr
        </CharString>
        <CharString name="dvKH_VA">
          562 932 76 callsubr
          -64 -63 -38 -68 -25 hvcurveto
          -6 6 -6 6 -6 6 rrcurveto
          113 callgsubr
          710 44 callsubr
          -324 -170 -67 callsubr
          582 439 rmoveto
          -1235 -84 callsubr
          102 113 72 110 37 hvcurveto
          -53 43 64 -36 59 hhcurveto
          -74 callsubr
        </CharString>
        <CharString name="dvKH_YA">
          578 986 306 -106 callgsubr
          -727 hmoveto
          449 86 callgsubr
          -22 -26 -112 -58 vhcurveto
          -9 11 -9 11 -11 10 rrcurveto
          37 -34 -47 22 -53 -95 callgsubr
          324 -130 -67 callsubr
          598 439 rmoveto
          -1251 -84 callsubr
          110 124 85 126 25 hvcurveto
          -54 50 70 -45 60 -103 callgsubr
        </CharString>
        <CharString name="dvKHx">
          -6 callsubr
          -514 -241 -51 callsubr
          endchar
        </CharString>
        <CharString name="dvKHxA">
          215 35 -12 callsubr
          -533 -340 -51 callsubr
          endchar
        </CharString>
        <CharString name="dvKHx_MA">
          575 76 -64 -8 callsubr
          840 318 104 callsubr
          -4 -4 0 -1 -4 hvcurveto
          -11 26 -17 25 -25 23 rrcurveto
          113 callgsubr
          426 vlineto
          -102 -367 -67 callsubr
          594 439 rmoveto
          -1247 -84 callsubr
          105 118 77 117 33 hvcurveto
          -27 27 31 -20 21 hhcurveto
          18 8 11 18 hvcurveto
          -65 callsubr
        </CharString>
        <CharString name="dvKHx_R">
          -16 callgsubr
          -63 -262 -51 callsubr
          endchar
        </CharString>
        <CharString name="dvKHx_RA">
          -30 callsubr
          -108 -285 -51 callsubr
          endchar
        </CharString>
        <CharString name="dvKHx_SA">
          652 83 -63 -8 callsubr
          913 340 -38 callgsubr
          -316 169 callgsubr
          -19 -18 13 19 -21 vhcurveto
          -11 21 -15 20 -20 19 rrcurveto
          113 callgsubr
          487 vlineto
          -163 -367 -67 callsubr
          672 439 rmoveto
          -1325 -84 callsubr
          109 124 84 125 26 hvcurveto
          58 -80 63 -77 78 -96 62 36 rcurveline
          -78 46 callgsubr
          54 -20 48 hhcurveto
          26 -34 callgsubr
        </CharString>
        <CharString name="dvKHx_SHA">
          687 79 -65 -8 callsubr
          438 188 -58 callgsubr
        </CharString>
        <CharString name="dvKHx_TA">
          535 70 -64 rmoveto
          67 -67 67 67 -69 66 rlineto
          809 406 rmoveto
          -165 hlineto
          -64 -46 -19 -35 -27 hvcurveto
          -10 14 -11 13 -14 13 rrcurveto
          113 callgsubr
          685 vlineto
          -361 -367 -67 callsubr
          554 439 rmoveto
          -1207 -84 callsubr
          87 97 54 85 48 hvcurveto
          26 -62 40 -64 45 -57 -18 callgsubr
        </CharString>
        <CharString name="dvKHx_VA">
          562 65 -63 -51 callsubr
          801 398 96 callsubr
          -64 -63 -38 -68 -25 hvcurveto
          -6 6 -6 6 -6 6 rrcurveto
          113 callgsubr
          710 44 callsubr
          -324 -170 -67 callsubr
          582 439 rmoveto
          -1235 -84 callsubr
          102 113 72 110 37 hvcurveto
          -53 43 64 -36 59 hhcurveto
          -74 callsubr
        </CharString>
        <CharString name="dvKHx_YA">
          579 61 -63 rmoveto
          68 -66 67 66 -69 67 rlineto
          860 302 -106 callgsubr
          -728 hmoveto
          450 86 callgsubr
          -22 -26 -113 -58 vhcurveto
          -8 11 -10 11 -11 10 rrcurveto
          37 -34 -47 22 -53 -95 callgsubr
          324 -130 -67 callsubr
          599 439 rmoveto
          -1252 -84 callsubr
          110 125 85 127 25 hvcurveto
          -55 49 71 -45 60 -103 callgsubr
        </CharString>
        <CharString name="dvK_CA">
          654 1062 287 rmoveto
          174 callgsubr
          -387 hlineto
          -13 hlineto
          -40 -41 -14 -24 -21 hvcurveto
          16 4 131 1 13 vhcurveto
          615 hlineto
          78 callgsubr
          -1327 -106 callsubr
          28 51 52 30 58 2 rrcurveto
          21 hlineto
          1 -1 137 4 131 callgsubr
        </CharString>
        <CharString name="dvK_DA">
          530 907 557 rmoveto
          -112 -97 vlineto
          -59 -45 -17 -28 -31 hvcurveto
          36 -36 -44 24 -45 hhcurveto
          -87 callgsubr
          549 -193 22 callsubr
          -1203 -106 callsubr
          60 32 41 39 58 hhcurveto
          25 22 -9 -14 17 hvcurveto
          -10 -22 -5 -25 -27 vvcurveto
          -68 37 -68 51 -47 vhcurveto
          -44 46 58 -28 58 hhcurveto
          33 32 10 15 28 hvcurveto
          -96 callgsubr
          endchar
        </CharString>
        <CharString name="dvK_JA">
          731 1138 412 rmoveto
          70 callgsubr
          -81 -51 106 98 -34 vhcurveto
          57 -32 -55 58 -65 hhcurveto
          -43 -36 -25 -29 -24 hvcurveto
          16 4 122 1 13 vhcurveto
          691 hlineto
          196 72 rmoveto
          -1404 -106 callsubr
          60 32 35 39 57 hhcurveto
          40 27 -39 -32 17 hvcurveto
          -119 47 70 -126 119 120 callsubr
          193 -323 hlineto
          89 24 callgsubr
        </CharString>
        <CharString name="dvK_KA">
          827 974 261 rmoveto
          -54 -26 206 callsubr
          -50 48 60 73 callgsubr
          18 21 -2 -8 21 hvcurveto
          -26 79 rlineto
          10 -24 -25 4 -24 hhcurveto
          -50 -50 -22 -43 -27 hvcurveto
          37 -36 -45 25 -46 hhcurveto
          -87 callgsubr
          522 hlineto
          506 hmoveto
          -49 72 rlineto
          -1496 -106 callsubr
          60 32 41 39 58 hhcurveto
          33 25 -14 -23 21 hvcurveto
          -1 -7 -1 -8 -8 vvcurveto
          67 callgsubr
          vhcurveto
          -5 -135 89 -55 rlineto
          -97 callgsubr
          endchar
        </CharString>
        <CharString name="dvK_KHA">
          814 1197 -56 callgsubr
          -87 237 rmoveto
          -217 vlineto
          -29 -15 -12 -23 -18 -21 11 20 -20 vhcurveto
          65 -46 -36 59 -70 hhcurveto
          -33 -35 -21 265 callgsubr
          966 72 rmoveto
          -1482 -37 callsubr
          379 -296 hlineto
          -54 -27 206 callsubr
          -50 48 60 73 55 34 59 17 22 85 callsubr
          -24 -24 4 -24 hhcurveto
          -76 -73 -49 -97 -114 116 -118 95 41 38 21 37 29 hvcurveto
          -6 126 callgsubr
          48 26 33 43 50 hhcurveto
          38 27 -36 -37 24 hvcurveto
          -133 80 110 -165 186 82 callgsubr
        </CharString>
        <CharString name="dvK_LA">
          729 1137 402 rmoveto
          -51 callgsubr
          -45 -39 -16 -28 -29 hvcurveto
          41 -37 -47 27 -48 hhcurveto
          -87 callgsubr
          690 hlineto
          78 callgsubr
          -1402 -106 callsubr
          60 32 41 39 58 hhcurveto
          29 23 -11 -18 19 hvcurveto
          -11 -23 -6 -26 -28 -60 callgsubr
        </CharString>
        <CharString name="dvK_MA">
          600 1013 321 267 callsubr
          hmoveto
          -232 vlineto
          59 -32 -59 76 -82 hhcurveto
          -40 -39 -27 265 callgsubr
          762 72 rmoveto
          -1278 52 callsubr
          61 30 36 35 51 hhcurveto
          38 35 -28 -34 25 hvcurveto
          -10 -6 -6 -10 -15 vvcurveto
          -51 89 -85 274 callsubr
          18 vhcurveto
          -65 callsubr
        </CharString>
        <CharString name="dvK_NA">
          212 358 247 rmoveto
          -30 -32 -59 -52 -40 hhcurveto
          -57 10 callgsubr
          -76 -73 -49 -97 -86 69 -96 75 -26 hvcurveto
          -74 -60 rlineto
          -18 -14 -9 -13 -14 vvcurveto
          -48 81 -25 48 26 20 9 17 136 callgsubr
          rrcurveto
          0 139 116 11 11 vhcurveto
          -5 -72 callgsubr
          418 78 callsubr
          -884 -37 callsubr
          379 hlineto
          endchar
        </CharString>
        <CharString name="dvK_NNA">
          752 926 321 -37 callgsubr
          -259 hmoveto
          -149 vlineto
          31 -34 -41 210 callgsubr
          908 72 rmoveto
          -1425 -106 callsubr
          60 32 41 39 58 hhcurveto
          43 30 -24 -35 23 hvcurveto
          11 -40 26 -42 39 -32 rrcurveto
          13 callgsubr
          endchar
        </CharString>
        <CharString name="dvK_PA">
          539 947 -23 callsubr
          -293 hmoveto
          -138 vlineto
          25 -32 -36 16 -36 hhcurveto
          -87 callgsubr
          695 72 rmoveto
          -1212 -106 callsubr
          60 32 41 39 58 hhcurveto
          35 27 -16 -26 21 hvcurveto
          -87 28 102 -78 67 -25 callsubr
        </CharString>
</ttFont>
